<svg width="38" height="38" viewBox="0 0 38 38" fill="none" xmlns="http://www.w3.org/2000/svg">
<circle cx="18.8387" cy="18.8608" r="18.8387" fill="#FF00FF"/>
<path d="M6.12786 17.1367L7.54628 16.5565L11.233 25.3716L9.8146 25.9648L9.49843 25.2063C9.3534 25.9692 8.67754 26.6131 7.98138 26.9046C6.47739 27.5326 4.67317 26.8945 3.9103 25.0729C3.14742 23.2513 3.95381 21.5355 5.4578 20.9061C6.18297 20.6044 7.09668 20.5652 7.73773 21.0003L6.12786 17.1367ZM8.59342 23.083C8.41023 22.6437 8.06058 22.2947 7.62087 22.1123C7.18116 21.93 6.68715 21.9291 6.24678 22.1098C6.03022 22.2007 5.83414 22.3341 5.67022 22.5023C5.5063 22.6704 5.3779 22.8699 5.29264 23.0887C5.20739 23.3075 5.16704 23.5412 5.17398 23.776C5.18093 24.0107 5.23503 24.2416 5.33308 24.455C5.73192 25.4079 6.766 25.8531 7.65361 25.4848C7.8729 25.3904 8.07129 25.2534 8.23727 25.0818C8.40325 24.9102 8.53352 24.7074 8.62053 24.4851C8.70754 24.2627 8.74956 24.0254 8.74416 23.7867C8.73876 23.548 8.68605 23.3128 8.58907 23.0946L8.59342 23.083Z" fill="black"/>
<path d="M14.0989 17.4571L15.6305 16.8175V26.7972L14.1381 27.4223L14.0873 23.6935L9.59131 19.3425L11.1446 18.6928L14.1381 21.6935L14.0989 17.4571Z" fill="black"/>
<path d="M26.4861 15.2193L27.8262 18.4231L26.4194 19.0119L25.1141 15.8806C24.7312 14.964 24.0554 14.687 23.394 14.9626C22.576 15.3063 22.3454 16.0619 22.8211 17.199L24.0032 20.0242L22.5804 20.6174L21.2751 17.4876C20.8966 16.5826 20.2164 16.2925 19.6043 16.5492C18.9444 16.8248 18.444 17.4919 18.9024 18.5797L20.1757 21.6254L18.753 22.2128L16.3657 16.5028L17.7841 15.9096L18.2192 16.9611C18.0554 16.1243 18.6964 15.3527 19.4172 15.051C19.7987 14.8808 20.2215 14.8258 20.6338 14.8928C21.0461 14.9598 21.4298 15.1459 21.7378 15.4281C21.7744 15.0015 21.9283 14.5934 22.1824 14.2489C22.4366 13.9043 22.7812 13.6368 23.1779 13.476C24.6225 12.8842 25.79 13.5572 26.4861 15.2193Z" fill="black"/>
<path d="M33.7741 13.1627L29.3477 15.0134C29.8394 15.7385 30.6298 15.914 31.4855 15.5558C31.7846 15.4385 32.0519 15.2527 32.2663 15.0135C32.4806 14.7742 32.6359 14.4881 32.7197 14.178L33.9743 14.5014C33.7959 15.5514 32.9765 16.4419 31.9438 16.8756C30.244 17.5863 28.4369 16.9061 27.69 15.1207C26.9286 13.2991 27.7944 11.5587 29.4304 10.8727C31.0664 10.1867 32.8256 10.8176 33.5725 12.6015C33.6349 12.761 33.6987 12.9495 33.7741 13.1627ZM31.9786 12.7494C31.5653 12.0039 30.7589 11.7951 29.9641 12.1272C29.207 12.4434 28.7415 13.0844 28.9329 14.0242L31.9786 12.7494Z" fill="black"/>
</svg>
