<svg width="39" height="39" viewBox="0 0 39 39" fill="none" xmlns="http://www.w3.org/2000/svg">
<circle cx="19.2077" cy="19.6547" r="18.76" transform="rotate(0.485734 19.2077 19.6547)" fill="#FF0000"/>
<path d="M20.3893 19.1446C20.4031 18.8989 20.3474 18.6663 20.2772 18.4396C20.2285 18.2825 20.1406 18.1401 20.076 17.9889C19.9921 17.7932 19.8479 17.6492 19.6992 17.5096C19.6214 17.4353 19.5229 17.3817 19.4273 17.3296C19.3074 17.2641 19.1845 17.2016 19.0571 17.1508C18.9741 17.118 18.8834 17.1059 18.7956 17.0923C18.5538 17.0545 18.3126 16.9887 18.07 16.9938C17.5168 17.004 16.9601 16.9061 16.4083 17.0509C16.3517 17.0656 16.2933 17.095 16.2492 17.1333C16.1389 17.2263 16.0959 17.349 16.0927 17.4971C16.0635 19.01 16.0298 20.5244 15.9976 22.0388L15.9926 22.2756C16.0373 22.2787 16.0646 22.2847 16.0934 22.2848C16.7749 22.2869 17.4549 22.289 18.1349 22.2896C18.2129 22.2898 18.2935 22.3019 18.3661 22.2814C18.6058 22.2126 18.8559 22.1971 19.0866 22.0779C19.2633 21.9866 19.4397 21.9057 19.5799 21.7611C19.602 21.7389 19.6159 21.7005 19.6406 21.6902C19.8023 21.6241 19.8564 21.4569 19.9514 21.3343C20.0346 21.2265 20.0609 21.0726 20.1356 20.9559C20.2505 20.7801 20.2996 20.5774 20.3384 20.3836C20.3917 20.1173 20.3961 19.8405 20.4091 19.5681C20.4179 19.4275 20.3805 19.2852 20.3893 19.1446ZM19.2949 20.2279C19.2734 20.3552 19.2346 20.4839 19.1801 20.6021C19.1104 20.7559 19.032 20.9111 18.8983 21.0202C18.7925 21.1058 18.6781 21.1928 18.5543 21.2412C18.4306 21.2882 18.2878 21.2804 18.1572 21.3126C17.8465 21.3901 17.5351 21.3684 17.2232 21.3689C17.0413 21.3699 17.0215 21.3491 17.0254 21.164L17.0905 18.1041C17.0939 17.9443 17.1235 17.9133 17.2779 17.9137C17.4945 17.9144 17.7123 17.9239 17.9291 17.9128C18.1763 17.9002 18.4149 17.9513 18.637 18.0334C18.7816 18.0871 18.933 18.169 19.0305 18.3336C19.0905 18.4345 19.1312 18.5545 19.2159 18.6451C19.2498 18.6822 19.2526 18.7533 19.2629 18.811C19.2874 18.9518 19.3118 19.0925 19.3276 19.2346C19.3433 19.3753 19.3562 19.5175 19.3518 19.6581C19.3434 19.8491 19.3263 20.04 19.2949 20.2279Z" fill="black"/>
<path d="M9.64406 20.7808C9.59088 21.1107 9.51473 21.4361 9.28404 21.7032C9.17756 21.8272 9.05032 21.9097 8.91324 21.9803C8.75867 22.0598 8.59832 22.1392 8.43143 22.1875C8.28918 22.23 8.13604 22.2429 7.98737 22.2483C7.70739 22.2564 7.42748 22.2615 7.14948 22.2443C6.94783 22.2319 6.74218 22.2046 6.55166 22.1433C6.31098 22.0671 6.10369 21.9126 5.91688 21.7448C5.81923 21.6571 5.76018 21.5178 5.6979 21.3948C5.63421 21.2703 5.57064 21.1399 5.54181 21.0036C5.51304 20.8644 5.52777 20.715 5.52249 20.5566C5.84842 20.5576 6.14557 20.5555 6.44251 20.5639C6.47564 20.5654 6.52331 20.6292 6.53393 20.6722C6.58689 20.8943 6.65761 21.0958 6.86984 21.2208C6.9596 21.2729 7.05579 21.2939 7.14432 21.3356C7.39713 21.4518 7.66062 21.4052 7.91773 21.3868C8.11563 21.3726 8.30513 21.2784 8.4651 21.1487C8.50621 21.1148 8.53495 21.0512 8.5491 20.9965C8.59605 20.8235 8.62724 20.646 8.53405 20.4844C8.46588 20.3673 8.35803 20.2841 8.22905 20.2452C8.02844 20.1839 7.82472 20.1329 7.6211 20.0776C7.4777 20.0387 7.33427 20.0012 7.19093 19.9593C7.07196 19.9249 6.95291 19.8935 6.83854 19.8458C6.68844 19.7832 6.5399 19.7146 6.39886 19.6328C6.26064 19.5539 6.11956 19.4736 6.00508 19.3637C5.89906 19.2628 5.81969 19.1293 5.74311 19.0003C5.59137 18.7438 5.62783 18.4539 5.65827 18.1757C5.68184 17.9493 5.77717 17.7395 5.89686 17.5371C5.99708 17.3687 6.13914 17.267 6.2829 17.1535C6.43253 17.0355 6.60757 17.0109 6.77612 16.9522C7.17568 16.8143 7.57593 16.8481 7.97795 16.8656C8.23876 16.8767 8.49687 16.9471 8.725 17.0706C8.94031 17.1867 9.12283 17.353 9.24624 17.5858C9.3142 17.7133 9.36051 17.8407 9.3878 17.9814C9.41111 18.1058 9.44747 18.2272 9.46931 18.3531C9.48469 18.4434 9.44247 18.4625 9.35321 18.4549C9.16316 18.4395 8.97105 18.4522 8.781 18.4368C8.63844 18.426 8.53804 18.3325 8.46566 18.2094C8.33755 17.9944 8.18085 17.8356 7.92421 17.7638C7.75504 17.7159 7.59215 17.711 7.42358 17.7031C7.206 17.6935 7.00983 17.7625 6.83255 17.8922C6.63333 18.0366 6.58773 18.4168 6.73061 18.6156C6.81886 18.7387 6.93121 18.813 7.06272 18.8682C7.23424 18.9412 7.4072 19.0143 7.58179 19.0785C7.65907 19.1068 7.74407 19.1115 7.82446 19.1295C7.99808 19.1715 8.17176 19.2105 8.34237 19.2584C8.45994 19.2913 8.5743 19.339 8.6902 19.3823C8.80895 19.427 8.92926 19.4674 9.04196 19.5254C9.18746 19.6013 9.30475 19.7142 9.41606 19.8374C9.54428 19.9798 9.55931 20.1545 9.60757 20.3263C9.65477 20.4804 9.6674 20.6329 9.64406 20.7808Z" fill="black"/>
<path d="M24.5111 20.0479C24.5047 19.802 24.5085 19.5548 24.4109 19.322C24.3544 19.1915 24.3155 19.0522 24.2591 18.9202C24.2384 18.8713 24.1915 18.8341 24.1563 18.794C24.09 18.7168 24.0311 18.6307 23.9545 18.5654C23.8722 18.4955 23.7751 18.4404 23.6808 18.3868C23.5766 18.3273 23.4726 18.2588 23.3576 18.2289C23.2154 18.1914 23.0639 18.1806 22.9152 18.1742C22.5889 18.1584 22.2624 18.1574 21.9489 18.2897C21.8964 18.3118 21.8327 18.3175 21.7872 18.3499C21.6802 18.4236 21.5871 18.5196 21.4759 18.5859C21.3178 18.6787 21.245 18.8414 21.1596 18.9833C21.0682 19.1355 21.021 19.3175 20.9797 19.4936C20.9273 19.7156 20.8993 19.9435 20.8627 20.1685C20.8577 20.2011 20.8598 20.2366 20.8591 20.2707C20.8518 20.2721 20.8446 20.2736 20.8374 20.2736C20.8619 20.478 20.8952 20.681 20.9096 20.8869C20.9263 21.1194 20.9895 21.3402 21.0834 21.5449C21.1581 21.7035 21.2795 21.8387 21.3907 21.9753C21.5146 22.1296 21.6921 22.2087 21.8652 22.2892C21.9425 22.3249 22.0289 22.34 22.1123 22.358C22.2489 22.3881 22.387 22.4211 22.5254 22.4348C22.6985 22.4502 22.8733 22.4507 23.0438 22.3831C23.2172 22.314 23.4087 22.3457 23.5803 22.2292C23.768 22.101 23.9653 21.995 24.0966 21.7999C24.1161 21.7689 24.1242 21.726 24.1507 21.7038C24.3271 21.5607 24.3623 21.3358 24.4227 21.1449C24.5033 20.889 24.5093 20.6076 24.5353 20.3367C24.5459 20.242 24.5133 20.1441 24.5111 20.0479ZM23.4214 20.8012C23.3582 20.9862 23.3092 21.1844 23.1328 21.3246C22.9432 21.4765 22.7451 21.55 22.5191 21.5093C22.4155 21.4897 22.3098 21.4287 22.226 21.3603C22.0059 21.1805 21.9594 20.9212 21.9132 20.6485C21.8836 20.4752 21.8555 20.3019 21.885 20.1361C21.9277 19.8963 21.9618 19.6551 22.0793 19.4259C22.1638 19.2618 22.2898 19.1778 22.427 19.113C22.5715 19.0439 22.7351 19.0311 22.8972 19.0863C23.154 19.173 23.3184 19.3246 23.4035 19.6062C23.4682 19.8211 23.4652 20.0328 23.4907 20.2624C23.4726 20.4312 23.4814 20.6282 23.4214 20.8012Z" fill="black"/>
<path d="M32.5296 18.5622C32.5095 19.3748 32.4907 20.189 32.4662 21.0016C32.4614 21.1585 32.4493 21.3198 32.4058 21.4677C32.3653 21.6052 32.2718 21.7278 32.2098 21.8609C32.1387 22.0116 32.0057 22.0897 31.8798 22.1737C31.6118 22.3549 31.306 22.4102 30.9964 22.4463C30.9255 22.455 30.8537 22.5036 30.7874 22.4975C30.629 22.4837 30.4723 22.4521 30.317 22.422C30.2078 22.401 30.0926 22.3888 29.9954 22.3411C29.8397 22.2666 29.6917 22.167 29.5419 22.0821C29.3651 21.9809 29.3227 21.8017 29.2087 21.6666C29.1678 21.6176 29.1828 21.5229 29.1568 21.4563C29.0553 21.2072 29.097 20.9439 29.101 20.6878C29.1076 19.9713 29.1286 19.2564 29.1438 18.5415L29.1493 18.281C29.4683 18.2819 29.7613 18.2828 30.0557 18.2837C30.1553 18.284 30.158 18.3595 30.158 18.4306C30.1559 18.6645 30.148 18.8983 30.1431 19.1307C30.1293 19.7791 30.1257 20.426 30.0974 21.0743C30.0864 21.3214 30.3279 21.6404 30.5718 21.6397C30.6281 21.6399 30.6875 21.6978 30.7411 21.6906C30.8569 21.6761 30.9689 21.635 31.0835 21.6057C31.3564 21.5355 31.4274 21.3167 31.4601 21.0725C31.5662 20.2897 31.5194 19.5036 31.5433 18.7191C31.5495 18.497 31.687 18.4101 31.8206 18.3025C31.8382 18.2892 31.8713 18.2952 31.8959 18.2953C32.0648 18.2928 32.235 18.2978 32.4041 18.2894C32.5081 18.2838 32.5419 18.3269 32.534 18.426C32.5273 18.4704 32.5306 18.5163 32.5296 18.5622Z" fill="black"/>
<path d="M15.5906 18.2895C15.5812 18.325 15.5818 18.3635 15.581 18.402C15.5648 19.1658 15.5528 19.9311 15.5294 20.6949C15.5215 20.9302 15.502 21.167 15.4524 21.3963C15.4107 21.5931 15.3003 21.7586 15.1386 21.8957C15.0019 22.0108 14.8546 22.0814 14.6943 22.1534C14.2993 22.3299 13.8912 22.3079 13.4845 22.2919C13.3503 22.287 13.2096 22.2525 13.0866 22.1974C12.9351 22.1288 12.8063 22.0085 12.6533 21.9385C12.4746 21.8565 12.4294 21.6713 12.3211 21.5363C12.3 21.511 12.2966 21.4666 12.2902 21.4311C12.26 21.2889 12.2081 21.1481 12.2069 21.0045C12.2061 20.0911 12.2168 19.1777 12.2218 18.2644C12.2223 18.1755 12.2477 18.1342 12.3429 18.1359C12.5969 18.1412 12.8509 18.1434 13.1036 18.1383C13.2076 18.1371 13.2355 18.1816 13.232 18.2793C13.2198 18.716 13.212 19.1526 13.2027 19.5893C13.1945 19.9742 13.1835 20.3576 13.1811 20.741C13.1798 20.8713 13.1768 21.0104 13.2205 21.1275C13.2819 21.295 13.3915 21.4389 13.5811 21.4839C13.6672 21.5049 13.7548 21.5273 13.841 21.5454C13.8655 21.5499 13.8929 21.55 13.9176 21.5426C14.0208 21.5119 14.1253 21.4826 14.2272 21.4459C14.3639 21.3945 14.4383 21.2911 14.5062 21.1566C14.5997 20.9674 14.5719 20.7778 14.5774 20.5883C14.5973 19.9267 14.6085 19.2635 14.6211 18.6003C14.6239 18.4701 14.6626 18.3473 14.7567 18.2662C14.8288 18.2042 14.9336 18.1616 15.0277 18.1501C15.184 18.1313 15.344 18.1437 15.5013 18.1456C15.5864 18.1503 15.6141 18.2022 15.5906 18.2895Z" fill="black"/>
<path d="M28.4314 21.1141C28.4718 21.1157 28.5112 21.1632 28.5354 21.1795C28.5167 21.2446 28.5098 21.2994 28.4857 21.3452C28.3834 21.5344 28.3024 21.7459 28.1632 21.9024C28.0419 22.0397 27.9047 22.1755 27.7237 22.2623C27.5486 22.3462 27.3634 22.3575 27.193 22.4236C26.976 22.5088 26.7628 22.48 26.5538 22.4601C26.3548 22.4432 26.1523 22.3878 25.9721 22.3058C25.8261 22.2402 25.6701 22.1731 25.5664 22.0248C25.471 21.8897 25.3419 21.7812 25.2451 21.6462C25.1932 21.5735 25.1838 21.4698 25.1452 21.3853C25.0693 21.2163 25.0733 21.0283 25.0294 20.8549C24.9549 20.5526 24.9858 20.2536 25.0038 19.9531C25.0127 19.8051 25.052 19.6556 25.0955 19.5121C25.1436 19.3539 25.1991 19.1926 25.2773 19.0478C25.3435 18.9236 25.4439 18.8188 25.5315 18.7065C25.5494 18.6814 25.5744 18.6622 25.5936 18.6386C25.6707 18.547 25.7645 18.4822 25.8738 18.4366C26.0006 18.3852 26.1192 18.3115 26.2472 18.2675C26.3433 18.2337 26.4475 18.2222 26.5487 18.2166C26.7439 18.2083 26.939 18.203 27.1339 18.211C27.271 18.2158 27.4137 18.2296 27.5443 18.2685C27.6635 18.3029 27.7762 18.3684 27.8787 18.4383C28.0012 18.5201 28.1236 18.6079 28.2238 18.7163C28.3099 18.8098 28.3724 18.9299 28.4277 19.0456C28.4775 19.1494 28.5025 19.2649 28.5406 19.3746C28.5502 19.3998 28.5729 19.4191 28.6094 19.4666C28.5339 19.4857 28.4712 19.5151 28.4076 19.5164C28.1316 19.5214 27.8558 19.5162 27.5799 19.5168C27.4946 19.5165 27.4434 19.4823 27.4104 19.4023C27.3678 19.3014 27.2852 19.2449 27.1881 19.1943C27.0895 19.1422 26.9982 19.0886 26.8811 19.0912C26.5806 19.0962 26.3373 19.1917 26.1823 19.4859C26.1176 19.6056 26.1105 19.7373 26.0618 19.8527C25.9598 20.0996 25.9876 20.3514 26.0041 20.5943C26.0193 20.8342 26.0703 21.0831 26.2206 21.282C26.2797 21.3592 26.3694 21.4157 26.4551 21.4648C26.5478 21.5184 26.6452 21.5602 26.7636 21.562C26.9657 21.5656 27.1373 21.5143 27.2961 21.383C27.4078 21.2886 27.5322 21.212 27.6539 21.1294C27.673 21.1162 27.7019 21.1133 27.7265 21.1134C27.9591 21.1111 28.1946 21.1074 28.4314 21.1141Z" fill="black"/>
<path d="M11.737 21.7079C11.7343 21.8349 11.7302 21.9633 11.729 22.0903C11.7278 22.1478 11.7116 22.1817 11.6495 22.186C11.5281 22.193 11.4077 22.2192 11.288 22.2158C11.071 22.2107 10.8513 22.2012 10.6377 22.1695C10.538 22.1544 10.4235 22.1039 10.3573 22.0298C10.2637 21.9262 10.2101 21.7932 10.1837 21.6366C10.0999 21.13 10.1753 20.6239 10.1718 20.1175C10.1682 19.6111 10.1901 19.1048 10.2007 18.597L10.2342 16.9924C10.4947 17.0065 10.7499 16.9365 10.9929 17.0421C11.1368 17.1045 11.2017 17.2391 11.2068 17.397C11.2126 17.5919 11.2015 17.7868 11.1974 17.9831C11.1946 18.1189 11.2029 18.1263 11.3368 18.1267C11.4368 18.127 11.5383 18.1274 11.6384 18.1277C11.7836 18.1281 11.8452 18.2125 11.8027 18.3614C11.7723 18.4632 11.7461 18.5739 11.6893 18.6608C11.6136 18.7727 11.4979 18.8462 11.3612 18.8443C11.2119 18.8408 11.1744 18.8821 11.1726 19.0371C11.1642 19.7087 11.1516 20.3804 11.1304 21.0535C11.1252 21.2395 11.2874 21.4364 11.475 21.4266C11.7502 21.4112 11.7455 21.3699 11.737 21.7079Z" fill="black"/>
</svg>
