<svg width="251" height="251" viewBox="0 0 251 251" fill="none" xmlns="http://www.w3.org/2000/svg">
<g>
<rect width="250" height="250" transform="translate(0.671112 0.404175)" fill="white"/>
<circle cx="126" cy="125.404" r="125" fill="#31FF3F"/>
<path d="M117.49 144.929C115.149 143.004 111.094 142.79 108.706 144.881C108.127 145.392 107.855 145.345 107.571 144.62C107.335 144.002 106.944 143.776 106.318 143.8C105.797 143.824 105.277 143.812 104.757 143.824C104.178 143.836 103.847 144.133 103.799 144.727C103.776 145.059 103.752 145.392 103.752 145.713C103.752 152.164 103.752 158.615 103.752 165.066C103.752 165.375 103.74 165.672 103.776 165.969C103.847 166.598 104.166 166.99 104.828 167.002C105.455 167.014 106.093 167.05 106.708 167.002C107.654 166.931 108.02 166.539 108.02 165.577C108.044 164.044 108.02 162.5 108.044 160.967C108.044 160.611 108.174 160.266 108.268 159.755C109.025 160.183 109.569 160.658 110.196 160.836C112.631 161.514 115.008 161.419 117.171 159.922C119.417 158.365 120.493 156.061 120.813 153.471C121.226 150.085 120.198 147.15 117.49 144.929ZM113.222 157.308C111.945 157.807 110.066 156.999 108.978 155.68C107.63 154.041 107.642 150.417 109.12 148.766C111.201 146.449 114.428 146.96 115.811 149.586C116.249 150.406 116.438 151.368 116.746 152.259C116.58 154.552 115.279 156.488 113.222 157.308Z" fill="black"/>
<path d="M138.379 147.319C136.972 144.824 134.75 143.529 131.9 143.399C130.056 143.303 128.271 143.707 126.805 144.848C124.429 146.677 123.187 149.149 123.211 152.214C123.223 153.485 123.483 154.661 123.837 155.897C124.594 158.51 127.763 160.934 130.281 161.148C132.291 161.314 134.312 161.361 136.062 160.197C137.032 159.556 137.871 158.653 138.663 157.774C139.077 157.322 138.947 156.586 138.45 156.312C137.682 155.885 136.795 155.54 135.932 155.433C135.53 155.386 135.081 156.003 134.62 156.277C133.91 156.704 133.225 157.275 132.444 157.453C130.434 157.892 128.791 156.704 128.058 154.994C127.585 153.889 127.692 153.675 128.921 153.663C130.423 153.651 131.924 153.663 133.426 153.663V153.639H138.261C138.994 153.639 139.467 153.342 139.538 152.558C139.703 150.669 139.278 148.911 138.379 147.319ZM134.218 150.23C133.26 150.253 132.303 150.242 131.357 150.242C131.357 150.242 131.357 150.242 131.357 150.253C130.458 150.253 129.56 150.265 128.649 150.242C128.094 150.23 127.869 150.016 128.105 149.398C128.685 147.889 129.938 147.01 131.569 147.022C133.035 147.034 134.289 148.008 134.809 149.469C135.033 150.087 134.667 150.218 134.218 150.23Z" fill="black"/>
<path d="M158.065 179.905H158.053C158.053 178.42 158.065 176.935 158.053 175.462C158.042 171.636 154.932 169.13 151.421 168.892C150.215 168.809 149.08 169.13 147.921 169.522C146.29 170.068 145.273 171.197 144.374 172.516C143.937 173.157 144.079 173.799 144.682 174.048C145.356 174.321 146.077 174.595 146.786 174.666C147.235 174.702 147.756 174.416 148.17 174.155C148.725 173.799 149.21 173.335 149.707 172.896C151.09 171.672 153.845 173.478 153.809 175.26C153.797 176.056 153.643 176.175 152.851 176.139C151.385 176.068 149.896 175.913 148.453 176.08C146.408 176.305 144.8 177.315 143.831 179.276C142.518 181.96 143.972 184.966 146.361 186.119C148.761 187.283 151.102 187.14 153.336 185.62C153.525 185.489 154.022 185.489 154.14 185.631C154.814 186.427 155.689 186.309 156.564 186.309C157.888 186.309 158.053 186.142 158.065 184.776C158.077 183.148 158.065 181.521 158.065 179.905ZM153.762 180.689C153.561 181.794 152.367 182.947 151.054 183.244C149.801 183.529 148.666 183.065 148.004 182.008C147.448 181.129 147.685 180.071 148.619 179.632C149.316 179.311 150.097 179.145 150.794 178.919C151.598 179.109 152.284 179.287 152.981 179.43C153.691 179.573 153.88 180 153.762 180.689Z" fill="black"/>
<path d="M108.114 168.907C103.29 168.954 99.5425 172.316 99.507 177.876C99.4715 183.282 103.432 186.881 108.031 186.846C112.973 186.846 116.674 183.044 116.721 177.995C116.757 172.684 113.009 168.859 108.114 168.907ZM112.264 178.874C112.063 180.217 111.555 181.428 110.313 182.117C109.616 182.498 108.835 182.688 108.09 182.973C106.057 182.866 104.579 181.416 104.071 179.646C103.669 178.268 103.74 176.902 104.224 175.619C104.697 174.36 105.56 173.374 106.979 173.077C108.54 172.756 109.959 172.97 111.082 174.229C112.276 175.571 112.524 177.163 112.264 178.874Z" fill="black"/>
<path d="M93.3 143.372C88.2044 143.407 84.8231 146.936 84.6103 152.009C84.3975 157.284 88.2753 161.406 93.1463 161.216C98.041 161.43 101.741 157.343 101.86 152.722C101.99 147.245 98.2065 143.336 93.3 143.372ZM94.6478 157.094C93.0872 157.901 91.704 157.426 90.5454 156.262C88.299 153.993 88.3346 150.868 90.439 148.409C91.4203 147.269 93.6902 146.96 94.9789 147.732C96.7405 148.789 97.5799 150.31 97.4972 152.365C97.5799 154.563 96.5868 156.084 94.6478 157.094Z" fill="black"/>
<path d="M157.982 158.937C157.982 160.66 157.734 160.909 156.055 160.909C153.856 160.921 153.773 160.838 153.762 158.592C153.762 156.347 153.821 154.09 153.726 151.844C153.691 150.858 153.442 149.86 153.123 148.91C152.721 147.674 151.692 147.235 150.475 147.306C149.151 147.389 148.11 148.031 147.59 149.278C147.33 149.92 147.223 150.656 147.212 151.357C147.164 153.912 147.2 156.466 147.188 159.008C147.176 160.529 146.81 160.897 145.296 160.897C143.085 160.909 142.932 160.755 142.932 158.521C142.932 154.268 142.932 150.015 142.932 145.762C142.932 143.92 143.085 143.778 144.871 143.79C145.746 143.79 146.691 143.683 146.975 144.823C148.098 144.36 149.044 143.861 150.049 143.588C153.052 142.768 156.434 144.277 157.356 147.568C157.663 148.661 157.9 149.813 157.923 150.942C158.03 153.615 157.982 156.276 157.982 158.937Z" fill="black"/>
<path d="M95.8657 185.323C94.4351 186.344 92.8982 186.903 91.4913 186.855C89.0794 186.867 87.2705 186.214 85.8163 184.741C85.3079 184.23 84.9296 183.564 84.5985 182.923C84.3148 182.364 84.5512 181.913 85.1897 181.735C85.4025 181.675 85.6153 181.604 85.8045 181.533C87.5542 180.832 87.4715 180.915 88.902 182.198C90.3089 183.469 91.5503 183.671 93.04 182.566C93.6784 182.091 93.643 180.903 93.0163 180.416C92.3188 179.87 91.5267 179.691 90.6636 179.596C88.8074 179.383 87.0459 178.836 85.8163 177.339C84.7877 176.08 84.5276 174.417 85.0478 172.646C85.9345 169.676 90.2852 168.334 92.839 169.07C94.707 169.617 96.3623 170.52 97.2372 172.433C97.6864 173.431 97.5799 173.751 96.5632 174.06C96.1376 174.191 95.7238 174.286 95.31 174.428C94.5179 174.69 93.915 174.524 93.3948 173.799C92.8627 173.05 92.1652 172.504 91.1721 172.444C90.2854 172.385 89.7178 172.896 89.2331 173.478C88.7602 174.048 89.3158 175.094 90.238 175.355C91.2075 175.64 92.2242 175.759 93.17 176.104C94.2223 176.496 95.3099 176.923 96.2321 177.565C98.4903 179.121 98.2775 183.588 95.8657 185.323Z" fill="black"/>
<path d="M134.089 181.986C134.112 182.889 133.628 183.59 133.037 184.231C131.464 185.906 129.289 186.904 126.983 186.869C123.401 186.762 120.753 185.051 119.381 181.772C118.601 179.907 118.317 177.863 118.92 175.737C119.44 173.907 120.209 172.339 121.568 171.032C123.401 169.262 127.113 168.3 129.643 169.345C131.228 169.999 132.516 170.878 133.474 172.256C133.734 172.636 133.888 173.135 133.971 173.61C134.089 174.299 133.758 174.691 133.037 174.786C132.469 174.858 131.89 175.119 131.346 175.06C130.814 175 130.14 174.763 129.821 174.371C128.792 173.088 127.527 172.755 126.026 173.099C124.56 173.444 123.838 174.549 123.342 175.915C122.845 177.269 122.916 178.517 123.294 179.907C124.158 183.103 128.024 183.697 129.915 181.582C130.246 181.214 130.696 180.679 131.098 180.679C131.973 180.691 132.871 180.94 133.722 181.202C133.9 181.237 134.077 181.701 134.089 181.986Z" fill="black"/>
<path d="M165.431 174.452C165.431 177.826 165.443 181.2 165.431 184.586C165.419 186.118 165.23 186.297 163.728 186.297C161.506 186.308 161.352 186.154 161.352 183.921C161.352 177.529 161.352 171.126 161.352 164.734C161.352 164.401 161.34 164.069 161.387 163.748C161.506 162.774 161.848 162.465 162.83 162.453C163.149 162.441 163.48 162.453 163.811 162.453C165.194 162.453 165.419 162.667 165.419 164.081C165.443 167.526 165.431 170.995 165.431 174.452Z" fill="black"/>
<path d="M140.993 170.675C140.981 175.427 140.993 180.167 140.958 184.919C140.958 185.288 140.78 185.834 140.508 185.977C139.468 186.523 138.321 186.452 137.269 186.048C136.997 185.941 136.808 185.264 136.796 184.848C136.748 182.484 136.772 180.131 136.772 177.767C136.772 177.767 136.772 177.767 136.76 177.767C136.76 175.486 136.76 173.217 136.76 170.936C136.76 169.784 136.985 169.546 138.144 169.511C138.77 169.487 139.397 169.499 140.023 169.57C140.65 169.641 140.993 169.986 140.993 170.675Z" fill="black"/>
<path d="M114.203 74.4794C114.179 75.5011 113.127 76.5465 112.134 76.5346C110.893 76.5228 109.852 75.5367 109.888 74.4081C109.923 73.1369 110.881 72.2578 112.205 72.3053C113.304 72.3409 114.227 73.3508 114.203 74.4794Z" fill="black"/>
<path d="M106.873 116.525C106.873 117.558 105.702 118.604 104.555 118.592C103.231 118.568 102.616 117.867 102.628 116.406C102.64 115.099 103.432 114.303 104.697 114.315C105.596 114.327 106.873 115.622 106.873 116.525Z" fill="black"/>
<path d="M140.804 99.1072C140.804 100.462 140.023 101.246 138.687 101.269C137.718 101.281 136.559 100.129 136.559 99.1547C136.559 97.943 137.375 97.1945 138.675 97.1826C140.224 97.1708 140.804 97.6935 140.804 99.1072Z" fill="black"/>
<path d="M151.291 94.6188C151.291 95.9969 150.511 96.8166 149.21 96.8047C148.241 96.7928 147.248 95.7117 147.236 94.6663C147.224 93.6089 148.264 92.4803 149.269 92.4565C150.475 92.4447 151.291 93.3 151.291 94.6188Z" fill="black"/>
<path d="M145.546 111.795C145.51 113.114 144.706 113.839 143.311 113.827C141.904 113.803 141.289 113.161 141.313 111.736C141.325 110.678 142.377 109.704 143.488 109.728C144.446 109.752 145.569 110.869 145.546 111.795Z" fill="black"/>
<path d="M130.318 93.0634C130.306 94.3583 129.466 95.2018 128.213 95.1662C126.96 95.1424 126.215 94.3346 126.227 93.0634C126.25 91.8635 127.149 90.9368 128.284 90.9724C129.502 90.9962 130.329 91.8516 130.318 93.0634Z" fill="black"/>
<path d="M135.874 114.717C135.874 115.905 134.822 116.488 133.77 116.571C132.516 116.678 131.63 115.787 131.63 114.563C131.63 113.316 132.445 112.531 133.734 112.531C134.999 112.52 135.874 113.446 135.874 114.717Z" fill="black"/>
<path d="M138.534 106.722C138.534 108.136 137.896 108.873 136.643 108.885C135.401 108.897 134.621 108.101 134.609 106.817C134.597 105.522 135.425 104.596 136.607 104.596C137.861 104.596 138.523 105.332 138.534 106.722Z" fill="black"/>
<path d="M127.031 104.571C127.055 105.652 126.121 106.555 124.95 106.567C123.532 106.567 122.834 105.949 122.822 104.69C122.811 103.454 123.78 102.445 124.95 102.468C125.908 102.492 127.007 103.597 127.031 104.571Z" fill="black"/>
<path d="M149.115 87.0972C149.103 88.2496 148.039 89.402 146.987 89.3782C145.994 89.3544 145.107 88.2614 145.119 87.0853C145.143 85.6715 145.675 85.1369 147.034 85.1369C148.37 85.125 149.127 85.8379 149.115 87.0972Z" fill="black"/>
<path d="M123.118 76.7742C123.118 78.1523 122.325 79.0315 121.072 79.0196C119.996 79.0077 119.027 78.0335 119.039 76.9643C119.051 75.8475 120.044 74.8021 121.084 74.8021C122.231 74.8021 123.106 75.6574 123.118 76.7742Z" fill="black"/>
<path d="M140.781 91.5773C140.792 92.9198 140.107 93.5732 138.688 93.5851C137.399 93.5851 136.501 92.8248 136.489 91.6961C136.465 90.6032 137.518 89.6409 138.723 89.6528C139.989 89.6646 140.769 90.3893 140.781 91.5773Z" fill="black"/>
<path d="M123.956 96.3885C123.956 97.8023 123.306 98.4675 121.923 98.4675C120.965 98.4675 119.889 97.3746 119.877 96.3766C119.866 95.4025 121.083 94.2501 122.088 94.2857C123.176 94.3214 123.956 95.2005 123.956 96.3885Z" fill="black"/>
<path d="M122.172 89.0453C122.172 90.3165 121.38 91.0887 120.067 91.0887C118.897 91.1005 118.057 90.2689 118.045 89.1166C118.034 87.9642 118.956 86.99 120.067 86.9781C121.143 86.9544 122.16 87.9642 122.172 89.0453Z" fill="black"/>
<path d="M115.066 115.548C115.043 116.843 114.274 117.615 113.033 117.603C111.992 117.592 110.999 116.57 110.999 115.524C110.999 114.372 111.969 113.457 113.175 113.481C114.404 113.493 115.09 114.253 115.066 115.548Z" fill="black"/>
<path d="M119.937 112.473C118.778 112.461 117.927 111.57 117.915 110.334C117.903 109.194 118.731 108.445 119.996 108.41C121.379 108.374 121.958 109.325 122.088 110.346C122.183 111.225 121.214 112.485 119.937 112.473Z" fill="black"/>
<path d="M135.472 87.9044C134.396 87.8806 133.497 86.9183 133.545 85.8135C133.58 84.7442 134.632 83.7344 135.708 83.7344C136.749 83.7225 137.576 84.673 137.576 85.861C137.73 87.1916 136.642 87.9282 135.472 87.9044Z" fill="black"/>
<path d="M116.366 94.1069C116.342 95.2236 115.408 96.0434 114.179 96.0434C112.795 96.0434 112.192 95.4612 112.204 94.1188C112.216 92.7644 112.843 92.1229 114.179 92.111C115.29 92.0872 116.389 93.0971 116.366 94.1069Z" fill="black"/>
<path d="M144.883 80.338C144.895 81.3834 144.363 82.4645 142.861 82.3457C141.36 82.3457 140.887 81.8586 140.887 80.2905C140.887 79.2569 141.833 78.2233 142.802 78.1996C143.854 78.1758 144.871 79.2212 144.883 80.338Z" fill="black"/>
<path d="M128.035 120.302C128.023 121.525 127.184 122.464 125.978 122.333C124.772 122.203 124.075 121.656 124.11 120.064C124.146 118.745 124.713 118.258 126.167 118.27C127.456 118.282 128.047 118.936 128.035 120.302Z" fill="black"/>
<path d="M135.413 75.8923C135.413 76.9259 134.385 78.0307 133.439 78.0307C132.268 78.0189 131.476 77.1397 131.476 75.8448C131.464 74.4666 132.115 73.8132 133.451 73.8132C134.574 73.8132 135.413 74.7043 135.413 75.8923Z" fill="black"/>
<path d="M144.008 121.86C144.02 123.095 143.169 123.915 141.892 123.903C140.922 123.891 139.858 122.786 139.882 121.824C139.906 120.719 140.84 119.9 142.057 119.9C143.393 119.911 143.996 120.529 144.008 121.86Z" fill="black"/>
<path d="M155.547 109.517C155.512 110.883 154.956 111.465 153.703 111.477C152.166 111.489 151.646 110.954 151.646 109.41C151.646 108.269 152.533 107.307 153.585 107.307C154.578 107.295 155.571 108.424 155.547 109.517Z" fill="black"/>
<path d="M128.935 81.0496C128.923 82.4634 128.355 83.0336 126.948 83.0336C125.672 83.0218 124.974 82.2971 124.974 80.9784C124.974 79.9448 125.932 78.9231 126.901 78.9112C128.095 78.8993 128.935 79.7785 128.935 81.0496Z" fill="black"/>
<path d="M101.103 81.952C101.127 82.9737 100.11 83.9597 99.0224 83.9597C97.781 83.9597 96.9416 83.1281 96.9534 81.9163C96.9653 80.6808 97.7691 79.9085 99.0341 79.9204C100.063 79.9323 101.079 80.9302 101.103 81.952Z" fill="black"/>
<path d="M119.853 102.4C119.842 103.719 119.144 104.431 117.914 104.396C116.756 104.372 115.751 103.493 115.774 102.483C115.798 101.533 116.318 100.357 117.997 100.452C119.309 100.523 119.877 101.057 119.853 102.4Z" fill="black"/>
<path d="M129.974 111.106C129.998 112.175 129.029 113.138 127.929 113.126C126.605 113.114 125.884 112.377 125.907 111.035C125.931 109.657 126.451 109.181 127.917 109.205C129.171 109.217 129.951 109.942 129.974 111.106Z" fill="black"/>
<path d="M130.494 65.867C130.518 67.3401 129.974 67.8629 128.448 67.8629C126.971 67.8629 126.581 67.4708 126.569 65.962C126.557 64.6909 127.314 63.8949 128.508 63.9187C129.725 63.9424 130.47 64.679 130.494 65.867Z" fill="black"/>
<path d="M133.759 98.9631C133.771 100.365 133.168 100.983 131.761 100.983C130.543 100.983 129.845 100.282 129.845 99.0344C129.834 97.6206 130.448 97.0385 131.914 97.0622C133.25 97.0622 133.747 97.585 133.759 98.9631Z" fill="black"/>
<path d="M114.261 86.3477C114.249 87.5714 113.564 88.2723 112.417 88.2366C111.412 88.201 110.679 87.405 110.679 86.3358C110.679 85.3498 111.554 84.5063 112.559 84.5063C113.599 84.4944 114.273 85.231 114.261 86.3477Z" fill="black"/>
<path d="M110.951 107.675C110.939 108.637 110.076 109.516 109.13 109.516C108.125 109.516 107.381 108.708 107.381 107.627C107.381 106.475 107.972 105.881 109.13 105.845C110.076 105.821 110.963 106.724 110.951 107.675Z" fill="black"/>
<path d="M142.105 72.8398C142.081 73.7427 140.97 74.8119 140.107 74.7763C139.244 74.7287 138.487 73.7308 138.558 72.6972C138.617 71.7587 139.362 71.1052 140.308 71.1646C141.265 71.2359 142.128 72.0438 142.105 72.8398Z" fill="black"/>
<path d="M107.038 101.543C107.038 102.671 106.483 103.265 105.43 103.254C104.402 103.242 103.633 102.505 103.633 101.543C103.633 100.545 104.378 99.7963 105.371 99.7963C106.459 99.7963 107.038 100.402 107.038 101.543Z" fill="black"/>
<path d="M90.25 95.0928C90.2145 96.364 89.777 96.8273 88.6065 96.8155C87.6489 96.8036 86.9159 96.067 86.9041 95.1047C86.8923 94.1662 87.7081 93.3702 88.6776 93.3821C89.8008 93.394 90.2855 93.9048 90.25 95.0928Z" fill="black"/>
<path d="M155.097 80.8112C155.085 81.7853 154.423 82.3556 153.3 82.3437C152.023 82.3318 151.645 81.9516 151.657 80.6805C151.669 79.8607 152.532 78.9103 153.265 78.946C154.14 78.9816 155.109 79.9795 155.097 80.8112Z" fill="black"/>
<path d="M108.54 91.4678C108.552 92.4776 107.854 93.2142 106.896 93.2142C105.951 93.2142 105.135 92.442 105.123 91.5509C105.111 90.4698 105.702 89.9352 106.92 89.9352C108.126 89.9352 108.528 90.3154 108.54 91.4678Z" fill="black"/>
<path d="M148.867 100.974C148.855 101.948 148.406 102.423 147.496 102.435C146.502 102.447 146.065 101.96 146.065 100.879C146.065 99.8094 146.337 99.5124 147.318 99.5005C148.5 99.4886 148.879 99.8451 148.867 100.974Z" fill="black"/>
<path d="M145.154 104.68C145.166 105.297 144.456 105.963 143.783 105.975C143.144 105.986 142.317 105.226 142.328 104.644C142.34 104.002 143.156 103.171 143.771 103.171C144.433 103.171 145.154 103.967 145.154 104.68Z" fill="black"/>
<path d="M149.624 74.4348C149.612 75.0763 149.033 75.6703 148.453 75.6466C147.791 75.6228 147.2 75.005 147.236 74.3754C147.271 73.6745 147.85 73.1042 148.465 73.128C149.163 73.1636 149.647 73.7101 149.624 74.4348Z" fill="black"/>
<path d="M157.546 94.6164C157.57 95.2461 156.955 95.8401 156.281 95.852C155.666 95.8639 154.969 95.1867 154.98 94.6164C154.992 94.07 155.69 93.4403 156.269 93.4522C156.825 93.4522 157.522 94.0937 157.546 94.6164Z" fill="black"/>
<path d="M112.122 127.931C112.087 128.774 111.685 129.166 110.904 129.119C110.159 129.071 109.817 128.667 109.864 127.86C109.899 127.194 110.467 126.636 111.07 126.672C111.649 126.719 112.146 127.313 112.122 127.931Z" fill="black"/>
<path d="M166.861 109.741C166.849 110.287 166.211 110.905 165.667 110.893C165.028 110.869 164.567 110.323 164.591 109.598C164.603 108.802 164.886 108.541 165.714 108.553C166.447 108.565 166.884 109.016 166.861 109.741Z" fill="black"/>
<path d="M144.753 95.7686C144.753 96.5409 144.445 96.8379 143.653 96.8497C142.944 96.8616 142.364 96.3864 142.341 95.7686C142.317 95.1746 142.885 94.7113 143.653 94.7113C144.469 94.6994 144.753 94.9727 144.753 95.7686Z" fill="black"/>
<path d="M159.165 65.8566C159.165 66.5338 158.692 66.9733 157.959 66.9971C157.332 67.0209 156.777 66.51 156.753 65.916C156.729 65.2982 157.309 64.7755 157.994 64.7874C158.739 64.8111 159.165 65.2032 159.165 65.8566Z" fill="black"/>
<path d="M94.2346 65.9138C94.2464 66.5791 93.8325 66.9949 93.1823 66.9949C92.4374 66.9949 91.9881 66.5672 92.0118 65.8544C92.0236 65.1297 92.4137 64.8209 93.0285 64.8803C93.9153 64.8803 94.2346 65.1654 94.2346 65.9138Z" fill="black"/>
<path d="M133.876 91.2913C133.781 91.9209 133.308 92.0991 132.705 92.0872C132.209 92.016 131.688 91.9328 131.688 91.22C131.688 90.6022 132.28 90.0794 132.942 90.1032C133.438 90.1032 133.958 90.7329 133.876 91.2913Z" fill="black"/>
<path d="M102.073 109.22C102.049 109.719 101.363 110.325 100.642 110.468C100.382 110.088 100.027 109.719 99.9092 109.304C99.7791 108.84 100.418 108.282 100.95 108.27C101.47 108.258 102.096 108.793 102.073 109.22Z" fill="black"/>
<path d="M129.265 87.3124C129.288 87.6807 128.721 88.0965 128.248 88.7024C127.763 88.0965 127.137 87.6451 127.196 87.3124C127.267 86.8966 127.87 86.3382 128.295 86.2907C128.591 86.2432 129.229 86.9204 129.265 87.3124Z" fill="black"/>
<path d="M164.923 82.7845C164.947 83.4498 164.711 83.8419 163.989 83.83C163.245 83.8181 162.973 83.533 162.973 82.7726C162.973 82.0479 163.387 81.8459 164.025 81.8459C164.687 81.8578 164.983 82.1548 164.923 82.7845Z" fill="black"/>
<path d="M123.105 83.4144C123.117 84.1391 122.763 84.5905 122.148 84.5905C121.486 84.6024 121.107 84.2935 121.166 83.5807C121.084 82.856 121.497 82.5709 122.136 82.559C122.656 82.5709 123.094 82.7491 123.105 83.4144Z" fill="black"/>
<path d="M127.196 99.262C127.22 99.8917 126.853 100.189 125.99 100.296C125.813 100.07 125.411 99.7729 125.316 99.3808C125.174 98.8343 125.766 98.2047 126.286 98.2284C126.912 98.2641 127.172 98.6799 127.196 99.262Z" fill="black"/>
<path d="M111 98.988C110.976 99.285 110.751 99.7721 110.113 99.7483C109.581 99.7246 109.096 99.4157 109.12 98.7742C109.143 98.1207 109.593 97.7762 110.172 97.7406C110.775 97.7049 111.035 98.1207 111 98.988Z" fill="black"/>
<path d="M97.5208 105.366C97.0243 105.652 96.7405 105.949 96.4804 105.925C96.2558 105.913 96.0666 105.545 95.8656 105.331C96.1021 105.105 96.303 104.737 96.5749 104.701C96.7759 104.665 97.0479 105.022 97.5208 105.366Z" fill="black"/>
</g>
<defs>
<clipPath id="clip0">
<rect width="250" height="250" fill="white" transform="translate(0.671112 0.404175)"/>
</clipPath>
</defs>
</svg>
