<svg width="200" height="200" viewBox="0 0 200 200" fill="none" xmlns="http://www.w3.org/2000/svg">
<path d="M107.468 8.16922L103.065 7.98528L103.174 5.30188L107.544 5.475L107.599 4.0792L103.228 3.90608L103.337 1.43908L107.74 1.62302L107.795 0.248864L101.825 0L101.445 9.29452L107.414 9.54338L107.468 8.16922Z" fill="black"/>
<path d="M109.984 9.91175L112.615 6.9362L114.355 10.5177L116.192 10.7665L113.724 5.68106L117.399 1.54775L115.638 1.29889L113.039 4.23116L111.321 0.703776L109.505 0.444092L111.93 5.46466L108.19 9.66289L109.984 9.91175Z" fill="black"/>
<path d="M120.185 2.15093L118.198 11.2441L119.729 11.5751L121.715 2.48187L120.185 2.15093Z" fill="black"/>
<path d="M131.795 5.22612L124.38 3.05127L123.988 4.37133L126.935 5.23694L124.673 12.8435L126.185 13.2871L128.446 5.69138L131.404 6.55699L131.795 5.22612Z" fill="black"/>
<path d="M143.048 18.7301L139.09 16.7933L140.286 14.3804L144.211 16.3064L144.831 15.0621L140.906 13.1361L141.993 10.9179L145.951 12.8656L146.571 11.6212L141.21 8.99194L137.079 17.3451L142.439 19.9744L143.048 18.7301Z" fill="black"/>
<path d="M144.048 20.8076L145.581 21.7598L149.213 20.1043L149.332 24.0753L150.909 25.0599L150.735 19.4118L155.78 17.1071L154.269 16.1766L150.692 17.7996L150.561 13.8827L149.006 12.9197L149.18 18.4921L144.048 20.8076Z" fill="black"/>
<path d="M158.067 18.7979L152.545 26.3064L153.808 27.2266L159.331 19.7181L158.067 18.7979Z" fill="black"/>
<path d="M157.813 30.3608L159.02 31.3779L164.174 25.3402L166.512 27.3203L167.414 26.2708L161.532 21.2935L160.629 22.343L162.978 24.3231L157.813 30.3608Z" fill="black"/>
<path d="M171.197 44.0056L172.252 43.1184L169.414 39.7641L171.48 38.0329L174.296 41.3655L175.373 40.4674L172.557 37.1348L174.449 35.5443L177.297 38.9093L178.352 38.0221L174.514 33.4668L167.348 39.4612L171.197 44.0056Z" fill="black"/>
<path d="M172.318 45.4014L173.351 46.8838L177.342 46.8189L175.852 50.5086L176.907 52.0342L179.016 46.7864L184.561 46.689L183.561 45.2283L179.625 45.2932L181.082 41.6577L180.038 40.1428L177.961 45.3149L172.318 45.4014Z" fill="black"/>
<path d="M186.009 49.1651L177.915 53.8464L178.702 55.1936L186.796 50.5122L186.009 49.1651Z" fill="black"/>
<path d="M181.092 59.6732L181.788 61.0799L188.953 57.6066L190.291 60.3657L191.541 59.7598L188.159 52.8457L186.909 53.4516L188.257 56.2L181.092 59.6732Z" fill="black"/>
<path d="M187.801 77.494L189.127 77.1045L187.888 72.8847L190.487 72.1381L191.704 76.3146L193.053 75.9251L191.824 71.7485L194.205 71.056L195.434 75.2651L196.771 74.8864L195.097 69.1733L186.126 71.781L187.801 77.494Z" fill="black"/>
<path d="M188.258 79.2256L188.595 81.0001L192.27 82.5366L189.41 85.3174L189.758 87.1352L193.825 83.1858L198.935 85.3391L198.609 83.597L194.988 82.0713L197.804 79.323L197.467 77.5269L193.444 81.4221L188.258 79.2256Z" fill="black"/>
<path d="M199.233 88.1809L189.937 89.1934L190.107 90.7423L199.403 89.7298L199.233 88.1809Z" fill="black"/>
<path d="M198.434 95.5097L190.475 95.8018L190.541 97.3707L198.5 97.0786L198.608 100.13L200 100.087L199.706 92.4043L198.326 92.4476L198.434 95.5097Z" fill="black"/>
<path d="M189.41 114.835L190.78 115.008L191.356 110.658L194.031 111.004L193.466 115.322L194.857 115.495L195.412 111.178L197.869 111.502L197.304 115.852L198.674 116.036L199.446 110.139L190.171 108.938L189.41 114.835Z" fill="black"/>
<path d="M189.128 116.609L188.725 118.362L191.465 121.24L187.725 122.647L187.312 124.454L192.618 122.452L196.434 126.466L196.836 124.746L194.14 121.9L197.826 120.515L198.239 118.73L192.998 120.688L189.128 116.609Z" fill="black"/>
<path d="M186.645 126.387L186.175 127.874L195.096 130.663L195.565 129.177L186.645 126.387Z" fill="black"/>
<path d="M191.889 135.577L184.474 132.656L183.898 134.116L191.302 137.038L190.171 139.883L191.465 140.392L194.314 133.24L193.02 132.731L191.889 135.577Z" fill="black"/>
<path d="M175.754 149.654L176.939 150.368L179.233 146.614L181.538 148.009L179.266 151.732L180.462 152.456L182.734 148.734L184.855 150.022L182.56 153.777L183.746 154.491L186.855 149.405L178.864 144.569L175.754 149.654Z" fill="black"/>
<path d="M174.797 151.136L173.71 152.586L175.047 156.319L171.067 156.103L169.948 157.585L175.612 157.899L177.482 163.093L178.548 161.675L177.232 157.996L181.158 158.202L182.267 156.741L176.678 156.427L174.797 151.136Z" fill="black"/>
<path d="M168.567 159.067L167.536 160.24L174.575 166.366L175.605 165.194L168.567 159.067Z" fill="black"/>
<path d="M169.611 169.595L164.022 163.958L162.902 165.061L168.491 170.699L166.305 172.841L167.273 173.826L172.775 168.427L171.796 167.442L169.611 169.595Z" fill="black"/>
<path d="M149.169 176.034L149.963 177.159L153.583 174.638L155.138 176.845L151.55 179.345L152.355 180.481L155.943 177.981L157.356 179.994L153.747 182.526L154.54 183.651L159.433 180.232L154.062 172.615L149.169 176.034Z" fill="black"/>
<path d="M147.68 177.018L146.103 177.905L145.821 181.854L142.265 180.058L140.645 180.967L145.701 183.521L145.31 189.028L146.854 188.163L147.136 184.256L150.648 186.031L152.258 185.133L147.267 182.601L147.68 177.018Z" fill="black"/>
<path d="M138.742 181.787L137.324 182.446L141.281 190.877L142.7 190.218L138.742 181.787Z" fill="black"/>
<path d="M135.481 191.842L132.643 184.441L131.175 184.993L134.013 192.394L131.131 193.487L131.632 194.774L138.851 192.037L138.351 190.749L135.481 191.842Z" fill="black"/>
<path d="M114.18 189.505L114.441 190.868L118.769 190.013L119.302 192.643L115.007 193.487L115.278 194.861L119.562 194.017L120.052 196.43L115.724 197.285L115.985 198.637L121.846 197.479L120.041 188.358L114.18 189.505Z" fill="black"/>
<path d="M112.419 189.807L110.614 189.98L108.755 193.486L106.222 190.413L104.373 190.586L107.961 194.968L105.363 199.848L107.135 199.675L108.983 196.223L111.473 199.253L113.3 199.08L109.766 194.752L112.419 189.807Z" fill="black"/>
<path d="M103.307 190.601L101.742 190.635L101.94 199.938L103.505 199.905L103.307 190.601Z" fill="black"/>
<path d="M96.6389 190.554L95.0623 190.467L94.66 198.388L91.583 198.236L91.5178 199.621L99.2375 200L99.3027 198.626L96.2366 198.474L96.6389 190.554Z" fill="black"/>
<path d="M77.3605 189.158L81.6662 190.11L81.09 192.739L76.8169 191.787L76.5124 193.151L80.7855 194.092L80.2527 196.505L75.9362 195.553L75.6317 196.905L81.4705 198.182L83.4929 189.093L77.665 187.805L77.3605 189.158Z" fill="black"/>
<path d="M75.9583 187.395L74.2295 186.832L71.1089 189.288L70.0434 185.458L68.2711 184.885L69.7824 190.327L65.4332 193.746L67.1185 194.298L70.2065 191.874L71.272 195.651L73.0117 196.224L71.5221 190.857L75.9583 187.395Z" fill="black"/>
<path d="M64.9232 183.47L61.3372 192.063L62.7832 192.661L66.3691 184.067L64.9232 183.47Z" fill="black"/>
<path d="M58.888 180.643L55.2999 187.719L52.5599 186.345L51.9293 187.567L58.8336 191.03L59.4533 189.796L56.7134 188.422L60.2906 181.346L58.888 180.643Z" fill="black"/>
<path d="M43.2308 172.311L46.7862 174.908L45.1879 177.072L41.6651 174.497L40.8279 175.611L44.3507 178.197L42.8829 180.188L39.3274 177.581L38.512 178.695L43.3178 182.223L48.8738 174.724L44.0571 171.197L43.2308 172.311Z" fill="black"/>
<path d="M41.2953 168.903L37.4245 169.898L38.0008 165.96L36.6199 164.726L35.8044 170.32L30.4332 171.705L31.7488 172.896L35.5652 171.911L34.9998 175.795L36.3698 177.018L37.1744 171.5L42.6435 170.104L41.2953 168.903Z" fill="black"/>
<path d="M34.1473 162.071L27.3807 168.508L28.4626 169.634L35.2292 163.197L34.1473 162.071Z" fill="black"/>
<path d="M30.7596 158.299L29.7593 157.087L23.6162 162.14L21.659 159.782L20.5935 160.658L25.508 166.588L26.5845 165.711L24.6165 163.352L30.7596 158.299Z" fill="black"/>
<path d="M19.9849 142.513L18.7889 143.205L20.9852 147.014L18.6475 148.356L16.4621 144.579L15.2552 145.272L17.4406 149.048L15.2878 150.282L13.0915 146.473L11.8846 147.165L14.8637 152.316L22.9749 147.674L19.9849 142.513Z" fill="black"/>
<path d="M19.1254 140.955L18.3751 139.31L14.4392 138.671L16.5594 135.306L15.7983 133.608L12.7865 138.401L7.30658 137.525L8.03506 139.126L11.9167 139.764L9.82908 143.086L10.5902 144.752L13.5693 140.035L19.1254 140.955Z" fill="black"/>
<path d="M14.6168 130.228L5.82715 133.404L6.36153 134.868L15.1512 131.693L14.6168 130.228Z" fill="black"/>
<path d="M5.38181 127.526L13.0363 125.384L12.6123 123.88L4.9469 126.022L4.12056 123.079L2.7832 123.458L4.87079 130.848L6.20815 130.48L5.38181 127.526Z" fill="black"/>
<path d="M9.60075 106.633L8.21987 106.785L8.68741 111.145L6.00178 111.426L5.54511 107.098L4.15337 107.25L4.62091 111.578L2.15273 111.838L1.68519 107.477L0.304321 107.618L0.945829 113.536L10.2314 112.541L9.60075 106.633Z" fill="black"/>
<path d="M9.48124 104.848L9.45949 103.041L6.08887 100.898L9.38338 98.6477L9.35076 96.7866L4.67538 100L0 97.0247L0.0326189 98.7992L3.338 100.909L0.0978568 103.138L0.130476 104.967L4.74062 101.807L9.48124 104.848Z" fill="black"/>
<path d="M0.334832 92.5999L0.23291 94.1548L9.56398 94.7606L9.6659 93.2058L0.334832 92.5999Z" fill="black"/>
<path d="M2.29378 87.0593L10.1766 88.1521L10.3941 86.6048L2.51124 85.512L2.93528 82.4824L1.5653 82.2876L0.499756 89.905L1.86974 90.0889L2.29378 87.0593Z" fill="black"/>
<path d="M14.6027 69.5958L13.2871 69.1738L11.9497 73.3612L9.37282 72.5497L10.6993 68.3948L9.36195 67.9728L8.04632 72.1277L5.68688 71.3811L7.01338 67.1937L5.69775 66.7717L3.88196 72.4415L12.7978 75.2547L14.6027 69.5958Z" fill="black"/>
<path d="M15.179 67.9181L15.8966 66.2627L13.7112 62.9408L17.6472 62.2267L18.3865 60.5279L12.7978 61.545L9.7643 56.9248L9.05756 58.5478L11.2104 61.8264L7.32877 62.5297L6.60028 64.2176L12.1128 63.2114L15.179 67.9181Z" fill="black"/>
<path d="M11.7953 53.0487L11.0702 54.4297L19.3578 58.7389L20.0829 57.358L11.7953 53.0487Z" fill="black"/>
<path d="M15.8741 48.7453L22.6371 52.9219L23.4635 51.591L16.7005 47.4144L18.3205 44.8176L17.1463 44.0818L13.0689 50.6172L14.2541 51.3421L15.8741 48.7453Z" fill="black"/>
<path d="M34.2172 37.741L33.1843 36.8213L30.2595 40.1214L28.2371 38.3361L31.1293 35.0684L30.0855 34.1487L27.1824 37.4164L25.3232 35.7825L28.248 32.4932L27.2151 31.5735L23.2573 36.0314L30.2595 42.1989L34.2172 37.741Z" fill="black"/>
<path d="M35.4236 36.4314L36.7501 35.2088L36.0869 31.2919L39.9793 32.2116L41.3384 30.9456L35.815 29.6472L34.9017 24.1938L33.597 25.4057L34.2385 29.2685L30.4112 28.3704L29.063 29.6147L34.5103 30.9023L35.4236 36.4314Z" fill="black"/>
<path d="M38.3625 21.449L37.1405 22.4231L42.9866 29.6859L44.2086 28.7118L38.3625 21.449Z" fill="black"/>
<path d="M47.6238 16.5333L46.8409 15.3972L40.4694 19.7469L41.2522 20.8939L43.7856 19.1518L48.2979 25.6872L49.6026 24.7999L45.0904 18.2646L47.6238 16.5333Z" fill="black"/>
<path d="M65.042 16.4036L64.4657 15.1485L60.4536 16.9987L59.3228 14.5642L63.2914 12.7247L62.7043 11.4696L58.7357 13.2982L57.6919 11.0584L61.6931 9.20819L61.1169 7.96387L55.6913 10.4633L59.6164 18.9139L65.042 16.4036Z" fill="black"/>
<path d="M66.6834 15.7002L68.3904 15.1051L69.3799 11.2531L72.5657 13.6552L74.3271 13.0493L69.7931 9.63009L71.163 4.28491L69.4886 4.85838L68.51 8.65627L65.3677 6.29747L63.6281 6.89258L68.0969 10.2685L66.6834 15.7002Z" fill="black"/>
<path d="M75.4188 3.17609L73.9054 3.57544L76.302 12.57L77.8154 12.1707L75.4188 3.17609Z" fill="black"/>
<path d="M85.646 1.03882L78.0458 2.45626L78.3067 3.81961L81.3294 3.25696L82.7973 11.0475L84.3521 10.7554L82.8843 2.96481L85.907 2.40216L85.646 1.03882Z" fill="black"/>
</svg>
