<?xml version="1.0" encoding="utf-8"?>
<!-- Generator: Adobe Illustrator 25.2.3, SVG Export Plug-In . SVG Version: 6.00 Build 0)  -->
<svg version="1.1" id="Layer_1" xmlns="http://www.w3.org/2000/svg" xmlns:xlink="http://www.w3.org/1999/xlink" x="0px" y="0px"
	 viewBox="0 0 413 160.3" style="enable-background:new 0 0 413 160.3;" xml:space="preserve">
<style type="text/css">
	.st0{fill:#000EDC;}
	.st1{fill:#FFFFFF;}
	.st2{fill:#FFC600;}
	.st3{fill:#00FFFF;}
</style>
<ellipse transform="matrix(0.5883 -0.8086 0.8086 0.5883 53.6309 360.0415)" class="st0" cx="380.4" cy="127.3" rx="32.5" ry="32.3"/>
<path class="st1" d="M395.8,127.7c-0.4-0.1-0.9,0.2-1,0.6c-0.1,0.4-0.3,0.9-0.5,1.3c-0.2,0.5-0.5,0.9-1,1.1
	c-0.3,0.2-0.3,0.1-0.4-0.2c-0.1-0.5-0.1-0.9,0-1.4c0.2-0.9,0.4-1.8,0.6-2.7c0-0.2,0.1-0.2,0.3-0.2c0.4,0,0.7,0,1.1,0
	c0.5,0,0.9-0.4,0.9-0.8c0-0.5-0.4-0.8-0.9-0.8c-0.3,0-0.6,0-0.9,0c0-0.1,0.1-0.3,0.1-0.4c0.1-0.5,0.2-0.9,0.3-1.4
	c0.1-0.4-0.1-0.8-0.4-1c-0.3-0.2-0.7-0.1-1,0.1c-0.1,0.1-0.2,0.3-0.3,0.5c-0.5,1.9-0.9,3.8-1.4,5.7c-0.2,0.7-0.4,1.5-0.9,2.1
	c-0.2,0.2-0.4,0.5-0.6,0.7c-0.3,0.2-0.4,0.2-0.5-0.2c-0.1-0.5,0-0.9,0.1-1.4c0.3-1.2,0.6-2.3,0.9-3.5c0.2-0.7-0.3-1.2-0.9-1.2
	c-0.6,0-1.2,0-1.9,0h-0.3c0.2-1,0.4-1.9,0.7-2.8c0.5,0.1,1,0.2,1.4,0.2c0.4,0,0.9,0,1.3-0.2c1-0.4,1.6-1.3,1.5-2.4
	c-0.1-1-0.7-1.8-1.7-2c-0.8-0.2-1.6,0-2.2,0.5c-0.4,0.3-0.8,0.6-1.1,1.1c0,0.1-0.1,0.1-0.1,0.2c-0.2-0.3-0.4-0.5-0.5-0.8
	c-0.2-0.3-0.4-0.4-0.7-0.4c-0.3,0-0.6,0.1-0.8,0.4c-0.2,0.3-0.2,0.6,0,0.9c0.3,0.6,0.7,1.1,1.3,1.5c0.1,0.1,0.2,0.2,0.1,0.4
	c-0.3,1.1-0.5,2.2-0.8,3.3c0,0.1,0,0.1-0.1,0.2c-0.6,0-1,0.2-1.1,0.8c-0.1,0.4,0.2,0.7,0.7,0.9c-0.2,0.8-0.3,1.7-0.7,2.5
	c-0.4,0.9-1.1,1.5-2,1.9c-0.7,0.3-1.5,0.2-2.1-0.3c-0.1-0.1-0.2-0.3-0.4-0.4c0.1,0,0.1,0,0.2-0.1c1.8-0.5,3.1-1.6,3.6-3.4
	c0.2-0.8,0-1.4-0.6-2c-0.5-0.4-1.1-0.5-1.7-0.4c-1.1,0.3-1.9,1-2.4,1.9c-0.5,0.8-0.8,1.6-0.9,2.6c0,0.2-0.1,0.4-0.2,0.6
	c-0.3,0.6-0.8,1-1.4,1.3c-0.1,0-0.2,0.1-0.3,0.1c-0.1-0.4,0-0.7,0.1-1.1c0.2-0.8,0.4-1.5,0.6-2.3c0.1-0.5,0.2-1,0.1-1.6
	c-0.2-1.1-1.2-1.7-2.3-1.4c-0.3,0.1-0.5,0.2-0.8,0.3c-0.1,0-0.2,0-0.2,0c-0.5-0.3-1.1-0.1-1.3,0.5c-0.3,0.7-0.7,1.3-1.2,1.7
	c-0.1,0-0.1,0.1-0.2,0.2c0.1-0.2,0.1-0.4,0.1-0.6c0.3-1.3,0.5-2.6,0.5-3.9c0-0.8-0.2-1.6-0.6-2.3c-0.7-1.3-2-1.8-3.5-1.4
	c-1.2,0.3-2.2,1.1-3,2.1c-1.1,1.3-1.8,2.9-2.2,4.6c-0.1,0.6-0.2,1.2-0.3,1.8c0,0.1,0,0.1,0,0.2l0,1.2c0.1,0.4,0.1,0.8,0.2,1.3
	c0.2,0.9,0.6,1.7,1.3,2.4c0.8,0.7,1.7,1.2,2.7,1c0.8-0.1,1.5-0.5,2.1-1c0.6-0.6,1.1-1.3,1.5-2.1c0.2-0.4,0.3-0.7,0.4-1.1
	c0-0.1,0.1-0.2,0.2-0.2c0.4-0.2,0.8-0.4,1.2-0.7c-0.1,0.4-0.2,0.7-0.3,1.1c-0.2,0.7-0.3,1.4-0.5,2c-0.1,0.4,0,0.8,0.3,1
	c0.3,0.2,0.7,0.2,0.9,0c0.2-0.1,0.3-0.3,0.4-0.5c0.2-0.9,0.4-1.8,0.7-2.7c0.2-0.9,0.6-1.7,1.1-2.4c0.2-0.2,0.4-0.4,0.6-0.5
	c0.2-0.2,0.5-0.1,0.5,0.2c0,0.3,0,0.7-0.1,1c-0.2,0.8-0.4,1.6-0.6,2.4c-0.1,0.4-0.1,0.9,0,1.3c0.2,1,1.1,1.6,2.2,1.3
	c0.7-0.2,1.2-0.5,1.7-1c0-0.1,0.1-0.1,0.2-0.2c0.6,0.9,1.4,1.4,2.4,1.5c1,0.1,1.9,0,2.8-0.6c0,0.1,0,0.2,0,0.2
	c-0.3,1.4-0.7,2.7-1,4.1c-0.2,0.6,0,0.9,0.5,1.2l0.4,0c0.4-0.1,0.6-0.4,0.7-0.8c0.8-3.4,1.6-6.7,2.4-10.1c0-0.2,0.1-0.2,0.3-0.2
	c0.4,0,0.8,0,1.3,0c-0.1,0.3-0.2,0.6-0.2,0.9c-0.2,0.9-0.4,1.8-0.5,2.7c-0.1,0.6,0,1.1,0.2,1.6c0.4,1,1.5,1.5,2.5,1.1
	c0.4-0.2,0.7-0.4,1-0.7c0.1,0,0.1-0.1,0.2-0.2c0,0,0,0.1,0.1,0.1c0.6,0.8,1.4,1,2.3,0.6c0.7-0.3,1.2-0.9,1.7-1.6
	c0.4-0.7,0.7-1.4,0.9-2.1c0,0,0-0.1,0-0.1l0-0.2C396.3,128.1,396.1,127.8,395.8,127.7z M389.9,119.1c0.4,0,0.6,0.2,0.7,0.5
	c0.1,0.3-0.2,0.7-0.5,0.8c-0.4,0.1-0.8,0.1-1.2,0c-0.2,0-0.3-0.1-0.6-0.2C388.7,119.6,389.2,119.2,389.9,119.1z M369.8,122.7
	c0,1.3-0.3,2.6-0.9,3.9c-0.2,0.4-0.5,0.8-0.8,1.2c-0.2,0.2-0.4,0.3-0.6,0.4c-0.4,0.2-0.6,0.1-0.9-0.2c-0.2-0.2-0.5-0.4-0.8-0.3
	c-0.4,0.1-0.6,0.3-0.7,0.7c0,0.2,0,0.4,0.1,0.6c0.5,0.9,1.6,1.2,2.7,0.9c0.1,0,0.2,0,0.3-0.1c-0.4,0.7-0.8,1.3-1.5,1.7
	c-0.4,0.2-0.9,0.2-1.4,0c-0.8-0.4-1.1-1-1.4-1.8c-0.3-0.9-0.2-1.8-0.1-2.7c0.2-1.4,0.6-2.7,1.2-3.9c0.5-0.9,1.1-1.6,1.9-2.2
	c0.4-0.3,0.9-0.5,1.4-0.5c0.6,0,1,0.2,1.2,0.7C369.8,121.6,369.8,122.2,369.8,122.7z M381.6,125.9c0.1-0.1,0.3,0,0.4-0.1
	c0,0.1,0,0.3,0,0.4c-0.2,0.8-1.2,1.7-2.1,1.9C380.2,127.2,380.7,126.4,381.6,125.9z"/>
<path class="st1" d="M390.9,123.4c0,0.5-0.4,0.8-0.8,0.8c-0.4,0-0.8-0.4-0.8-0.8c0-0.5,0.4-0.8,0.8-0.8
	C390.6,122.6,390.9,123,390.9,123.4z"/>
<path class="st1" d="M382.5,99.8l-1.3-0.1l0-0.8l1.3,0l0-0.4l-1.3,0l0-0.7l1.3,0.1l0-0.4l-1.8-0.1l-0.1,2.8l1.8,0.1L382.5,99.8z"/>
<path class="st1" d="M383.5,100.4l0.8-0.9l0.5,1.1l0.5,0.1l-0.7-1.5l1.1-1.2l-0.5-0.1l-0.8,0.9l-0.5-1.1l-0.5-0.1l0.7,1.5l-1.1,1.3
	L383.5,100.4z"/>
<path class="st1" d="M386.5,98l-0.6,2.7l0.5,0.1l0.6-2.7L386.5,98z"/>
<path class="st1" d="M390,99l-2.2-0.6l-0.1,0.4l0.9,0.3l-0.7,2.3l0.4,0.1l0.7-2.3l0.9,0.3L390,99z"/>
<path class="st1" d="M393.3,103l-1.2-0.6l0.4-0.7l1.2,0.6l0.2-0.4l-1.2-0.6l0.3-0.7l1.2,0.6l0.2-0.4l-1.6-0.8l-1.2,2.5l1.6,0.8
	L393.3,103z"/>
<path class="st1" d="M393.6,103.6l0.5,0.3l1.1-0.5l0,1.2l0.5,0.3l0-1.7l1.5-0.7l-0.4-0.3l-1.1,0.5l0-1.2l-0.5-0.3l0,1.7L393.6,103.6
	z"/>
<path class="st1" d="M397.7,103l-1.6,2.3l0.4,0.3l1.6-2.3L397.7,103z"/>
<path class="st1" d="M397.6,106.5l0.4,0.3l1.5-1.8l0.7,0.6l0.3-0.3l-1.7-1.5l-0.3,0.3l0.7,0.6L397.6,106.5z"/>
<path class="st1" d="M401.6,110.6l0.3-0.3l-0.8-1l0.6-0.5l0.8,1l0.3-0.3l-0.8-1l0.6-0.5l0.8,1l0.3-0.3l-1.1-1.4l-2.1,1.8
	L401.6,110.6z"/>
<path class="st1" d="M401.9,111l0.3,0.4l1.2,0l-0.4,1.1l0.3,0.5l0.6-1.6l1.6,0l-0.3-0.4l-1.2,0l0.4-1.1l-0.3-0.5l-0.6,1.5L401.9,111
	z"/>
<path class="st1" d="M405.9,112.1l-2.4,1.4l0.2,0.4l2.4-1.4L405.9,112.1z"/>
<path class="st1" d="M404.5,115.3l0.2,0.4l2.1-1l0.4,0.8l0.4-0.2l-1-2.1l-0.4,0.2l0.4,0.8L404.5,115.3z"/>
<path class="st1" d="M406.4,120.6l0.4-0.1l-0.4-1.3l0.8-0.2l0.4,1.2l0.4-0.1l-0.4-1.2l0.7-0.2l0.4,1.3l0.4-0.1l-0.5-1.7l-2.7,0.8
	L406.4,120.6z"/>
<path class="st1" d="M406.6,121.1l0.1,0.5l1.1,0.5l-0.9,0.8l0.1,0.5l1.2-1.2l1.5,0.6l-0.1-0.5l-1.1-0.5l0.8-0.8l-0.1-0.5l-1.2,1.2
	L406.6,121.1z"/>
<path class="st1" d="M409.8,123.8l-2.7,0.3l0,0.5l2.7-0.3L409.8,123.8z"/>
<path class="st1" d="M409.5,126l-2.4,0.1l0,0.5l2.4-0.1l0,0.9l0.4,0l-0.1-2.3l-0.4,0L409.5,126z"/>
<path class="st1" d="M406.8,131.8l0.4,0.1l0.2-1.3l0.8,0.1l-0.2,1.3l0.4,0.1l0.2-1.3l0.7,0.1l-0.2,1.3l0.4,0.1l0.2-1.8l-2.7-0.4
	L406.8,131.8z"/>
<path class="st1" d="M406.8,132.3l-0.1,0.5l0.8,0.9l-1.1,0.4l-0.1,0.5l1.6-0.6l1.1,1.2l0.1-0.5l-0.8-0.8l1.1-0.4l0.1-0.5l-1.6,0.6
	L406.8,132.3z"/>
<path class="st1" d="M406,135.3l-0.1,0.5l2.6,0.8l0.1-0.5L406,135.3z"/>
<path class="st1" d="M407.6,138l-2.2-0.9l-0.2,0.4l2.2,0.9l-0.3,0.9l0.4,0.2l0.9-2.1l-0.4-0.2L407.6,138z"/>
<path class="st1" d="M402.8,142.2l0.4,0.2l0.7-1.1l0.7,0.4l-0.7,1.1l0.4,0.2l0.7-1.1l0.6,0.4l-0.7,1.1l0.3,0.2l0.9-1.5l-2.4-1.4
	L402.8,142.2z"/>
<path class="st1" d="M402.5,142.7l-0.3,0.4l0.4,1.1l-1.2-0.1l-0.3,0.4l1.7,0.1l0.5,1.6l0.3-0.4l-0.4-1.1l1.2,0.1l0.3-0.4l-1.7-0.1
	L402.5,142.7z"/>
<path class="st1" d="M400.6,145.1l-0.3,0.4l2.1,1.8l0.3-0.4L400.6,145.1z"/>
<path class="st1" d="M400.9,148.2l-1.6-1.7l-0.3,0.3l1.6,1.7l-0.7,0.6l0.3,0.3l1.6-1.6l-0.3-0.3L400.9,148.2z"/>
<path class="st1" d="M394.9,150.2l0.2,0.3l1.1-0.8l0.5,0.7l-1.1,0.8l0.2,0.3l1.1-0.7l0.4,0.6l-1.1,0.8l0.2,0.3l1.5-1l-1.6-2.3
	L394.9,150.2z"/>
<path class="st1" d="M394.5,150.5l-0.5,0.3l-0.1,1.2l-1-0.5l-0.5,0.3l1.5,0.8l-0.1,1.6l0.5-0.3l0.1-1.2l1,0.5l0.5-0.3l-1.5-0.8
	L394.5,150.5z"/>
<path class="st1" d="M391.8,151.9l-0.4,0.2l1.2,2.5l0.4-0.2L391.8,151.9z"/>
<path class="st1" d="M390.8,154.9l-0.8-2.2l-0.4,0.2l0.8,2.2l-0.9,0.3l0.1,0.4l2.1-0.8l-0.1-0.4L390.8,154.9z"/>
<path class="st1" d="M384.5,154.2l0.1,0.4l1.3-0.3l0.2,0.8l-1.3,0.3l0.1,0.4l1.3-0.3l0.1,0.7l-1.3,0.3l0.1,0.4l1.7-0.4l-0.5-2.7
	L384.5,154.2z"/>
<path class="st1" d="M384,154.3l-0.5,0.1l-0.6,1l-0.7-0.9l-0.5,0.1l1.1,1.3l-0.8,1.5l0.5-0.1l0.6-1l0.7,0.9l0.5-0.1l-1-1.3
	L384,154.3z"/>
<path class="st1" d="M381,154.5l-0.5,0l0,2.8l0.5,0L381,154.5z"/>
<path class="st1" d="M379.1,154.5l-0.5,0l-0.1,2.4l-0.9,0l0,0.4l2.3,0.1l0-0.4l-0.9,0L379.1,154.5z"/>
<path class="st1" d="M373.4,154.1l1.3,0.3l-0.2,0.8l-1.3-0.3l-0.1,0.4l1.3,0.3l-0.2,0.7l-1.3-0.3l-0.1,0.4l1.7,0.4l0.6-2.7l-1.7-0.4
	L373.4,154.1z"/>
<path class="st1" d="M373,153.6l-0.5-0.2l-0.9,0.7l-0.3-1.1l-0.5-0.2l0.4,1.6l-1.3,1l0.5,0.2l0.9-0.7l0.3,1.1l0.5,0.2l-0.4-1.6
	L373,153.6z"/>
<path class="st1" d="M369.7,152.4l-1.1,2.6l0.4,0.2l1.1-2.6L369.7,152.4z"/>
<path class="st1" d="M367.9,151.6l-1.1,2.1l-0.8-0.4l-0.2,0.4l2,1l0.2-0.4l-0.8-0.4l1.1-2.1L367.9,151.6z"/>
<path class="st1" d="M363.3,149.1l1,0.8l-0.5,0.6l-1-0.8l-0.2,0.3l1,0.8l-0.4,0.6l-1-0.8l-0.2,0.3l1.4,1.1l1.7-2.2l-1.4-1.1
	L363.3,149.1z"/>
<path class="st1" d="M362.8,148l-1.1,0.3l0.2-1.2l-0.4-0.4l-0.3,1.7l-1.6,0.4l0.4,0.4l1.1-0.3l-0.2,1.2l0.4,0.4l0.2-1.6l1.6-0.4
	L362.8,148z"/>
<path class="st1" d="M360.7,146l-2,1.9l0.3,0.3l2-1.9L360.7,146z"/>
<path class="st1" d="M359.7,144.9l-0.3-0.4l-1.8,1.5l-0.6-0.7l-0.3,0.3l1.4,1.8l0.3-0.3l-0.6-0.7L359.7,144.9z"/>
<path class="st1" d="M356.5,140.1l-0.4,0.2l0.6,1.1l-0.7,0.4l-0.6-1.1l-0.4,0.2l0.6,1.1l-0.6,0.4l-0.6-1.1l-0.4,0.2l0.9,1.5l2.4-1.4
	L356.5,140.1z"/>
<path class="st1" d="M356.2,139.7l-0.2-0.5l-1.2-0.2l0.6-1l-0.2-0.5l-0.9,1.4l-1.6-0.3l0.2,0.5l1.1,0.2l-0.6,1l0.2,0.5l0.9-1.4
	L356.2,139.7z"/>
<path class="st1" d="M354.9,136.5l-2.6,1l0.2,0.4l2.6-1L354.9,136.5z"/>
<path class="st1" d="M352.2,135.7l2.3-0.6l-0.1-0.4l-2.3,0.6l-0.2-0.9l-0.4,0.1l0.6,2.2l0.4-0.1L352.2,135.7z"/>
<path class="st1" d="M353.5,129.4l-0.4,0l0.1,1.3l-0.8,0.1l-0.1-1.3l-0.4,0l0.1,1.3l-0.7,0.1l-0.1-1.3l-0.4,0l0.2,1.8l2.8-0.3
	L353.5,129.4z"/>
<path class="st1" d="M353.4,128.8l0-0.5l-1-0.6l1-0.7l0-0.6l-1.4,1l-1.4-0.9l0,0.5l1,0.6l-1,0.7l0,0.5l1.4-0.9L353.4,128.8z"/>
<path class="st1" d="M350.8,125.2l0,0.5l2.8,0.2l0-0.5L350.8,125.2z"/>
<path class="st1" d="M351.3,123.5l2.3,0.3l0.1-0.5l-2.3-0.3l0.1-0.9l-0.4-0.1l-0.3,2.3l0.4,0.1L351.3,123.5z"/>
<path class="st1" d="M355,118.3l-0.4-0.1l-0.4,1.3l-0.8-0.2l0.4-1.2l-0.4-0.1l-0.4,1.2l-0.7-0.2l0.4-1.3l-0.4-0.1l-0.5,1.7l2.6,0.8
	L355,118.3z"/>
<path class="st1" d="M355.2,117.8l0.2-0.5l-0.6-1l1.2-0.2l0.2-0.5l-1.7,0.3l-0.9-1.4l-0.2,0.5l0.6,1l-1.2,0.2l-0.2,0.5l1.6-0.3
	L355.2,117.8z"/>
<path class="st1" d="M354.2,113.3l-0.2,0.4l2.4,1.3l0.2-0.4L354.2,113.3z"/>
<path class="st1" d="M355.4,112l2,1.2l0.2-0.4l-2-1.2l0.5-0.8l-0.3-0.2l-1.2,2l0.3,0.2L355.4,112z"/>
<path class="st1" d="M360.8,108.7l-0.3-0.3l-0.9,1l-0.6-0.5l0.9-1l-0.3-0.3l-0.9,1l-0.5-0.5l0.9-1l-0.3-0.3l-1.2,1.3l2.1,1.8
	L360.8,108.7z"/>
<path class="st1" d="M361.2,108.3l0.4-0.4l-0.2-1.2l1.2,0.3l0.4-0.4l-1.6-0.4l-0.3-1.6l-0.4,0.4l0.2,1.2l-1.1-0.3l-0.4,0.4l1.6,0.4
	L361.2,108.3z"/>
<path class="st1" d="M362.1,103.9l-0.4,0.3l1.7,2.2l0.4-0.3L362.1,103.9z"/>
<path class="st1" d="M364.8,102.4l-0.2-0.3l-1.9,1.3l0.2,0.3l0.8-0.5l1.3,1.9l0.4-0.3l-1.3-1.9L364.8,102.4z"/>
<path class="st1" d="M370,102.3l-0.2-0.4l-1.2,0.6l-0.3-0.7l1.2-0.6l-0.2-0.4l-1.2,0.6l-0.3-0.7l1.2-0.6l-0.2-0.4l-1.6,0.8l1.1,2.5
	L370,102.3z"/>
<path class="st1" d="M370.4,102.1l0.5-0.2l0.3-1.2l0.9,0.7l0.5-0.2l-1.3-1l0.4-1.6l-0.5,0.2L371,100l-0.9-0.7l-0.5,0.2l1.3,1
	L370.4,102.1z"/>
<path class="st1" d="M373,98.4l-0.4,0.1l0.7,2.7l0.4-0.1L373,98.4z"/>
<path class="st1" d="M376.1,97.7l-2.3,0.4l0.1,0.4l0.9-0.2l0.4,2.3l0.5-0.1l-0.4-2.3l0.9-0.2L376.1,97.7z"/>
<circle class="st2" cx="195.5" cy="127.6" r="32.4"/>
<path d="M203.2,115.7c-0.1-0.9-0.5-1.6-1.4-1.9c-0.3-0.1-0.6-0.2-0.9-0.3H200c-0.1,0-0.2,0.1-0.3,0.1c-1.4,0.1-2.6,0.8-3.6,1.6
	c-2.1,1.6-3.5,3.7-4.7,5.9c-0.6,1-0.4,1.9,0.2,2.7c0.5,0.5,1.1,0.9,1.7,1.3c0.1,0.1,0.4,0.1,0.6,0c2.7-0.9,5.3-2.2,7.3-4.3
	C202.5,119.4,203.3,117.7,203.2,115.7z M197.8,120.4c-0.9,0-1.7-0.7-1.7-1.6c0-0.9,0.8-1.7,1.7-1.7c0.9,0,1.7,0.8,1.7,1.7
	C199.5,119.7,198.8,120.4,197.8,120.4z"/>
<path d="M177.7,136.2c-1.2,0-2.4,0-3.6,0v-6.2c0.5,0,0.9,0,1.5,0.1v4.8h3c0.1,0.1,0.1,0.2,0.1,0.2
	C178.7,136.2,178.7,136.2,177.7,136.2z"/>
<path d="M211.2,130.3c0,1.2,0,2.4-0.1,3.7c-0.1,1.3-1,2.2-2.3,2.3c-2.1,0.2-3.3-0.8-3.3-3c0-1,0-2.1,0-3.2h1.4c0,0.3,0,0.6,0,0.9
	c0,0.9,0,1.9,0.1,2.8c0.1,0.7,0.6,1.2,1.3,1.2c0.7,0,1.2-0.4,1.4-1.1c0.1-0.6,0.1-1.3,0.1-1.9c0-0.6,0-1.3,0-2h1.3
	C211.1,130.2,211.2,130.3,211.2,130.3z"/>
<path d="M216.8,133.1c-0.4-0.9-1.2-1.3-2.2-1.2c-0.6,0-1.2,0.1-1.8,0.1c-0.4,0-0.6,0.1-0.5,0.5c0,1.7,0,3.3,0,5v0.9
	c0.3,0,0.5,0,0.7,0c0.6,0.1,0.8-0.2,0.7-0.7c0-0.5,0-1,0-1.5c0.2,0.1,0.3,0.1,0.4,0.1c1,0.3,1.9,0.1,2.5-0.6
	C217.2,134.9,217.2,134,216.8,133.1z M214.6,135.3c-0.7,0-1-0.4-1-1.2c0-0.8,0.3-1.2,1-1.2c0.7,0,1.2,0.5,1.2,1.2
	C215.7,134.8,215.2,135.3,214.6,135.3z"/>
<path d="M204.3,136.1c-0.1,0.1-0.1,0.1-0.1,0.1c-1.2,0.1-1.2,0.1-1.2-1.1c0-0.5,0-0.9-0.1-1.4c-0.1-0.5-0.5-0.8-0.9-0.8
	c-0.5,0.1-0.8,0.3-0.8,0.9c0,0.6,0,1.1,0,1.7c0,0.5-0.2,0.7-0.7,0.6c-0.2,0-0.4,0-0.7,0v-4.4c0.5,0.1,0.9,0.1,1.4,0.2
	c0.1,0,0.3,0,0.4-0.1c1.4-0.6,2.7,0.2,2.7,1.7C204.4,134.5,204.3,135.3,204.3,136.1z"/>
<path d="M180.7,134.5c0.9,0,1.8,0,2.7,0c0.5,0,0.6-0.2,0.5-0.6c-0.1-1.6-1.6-2.5-3.1-2c-1.1,0.4-1.7,1.5-1.4,2.8
	c0.3,1.1,1.5,1.8,2.6,1.6c0.8-0.1,1.5-0.4,1.8-1.5c-0.7,0.1-1.2,0.2-1.7,0.4C181.5,135.5,181,135.3,180.7,134.5z M181.5,132.9
	c0.5-0.1,0.8,0.2,1,0.8h-1.8C180.8,133.2,181.1,132.9,181.5,132.9z"/>
<path d="M196.6,131.9c-1.4,0-2.4,0.9-2.4,2.2c0,1.4,0.9,2.4,2.3,2.4c1.4,0,2.4-0.9,2.4-2.3C198.9,132.8,198,131.9,196.6,131.9z
	 M196.6,135.3c-0.6,0-1.1-0.5-1.1-1.1c0-0.6,0.5-1.1,1.1-1.1c0.6,0,1.1,0.5,1.1,1.2C197.6,134.8,197.2,135.3,196.6,135.3z"/>
<path d="M193.5,134.8c0,0.6-0.2,1-0.7,1.3c-0.8,0.4-1.7,0.4-2.5,0c-0.6-0.2-0.8-0.6-0.8-1.2c0.5,0,0.9-0.2,1.4,0.3
	c0.2,0.2,0.7,0.1,1.1,0.1c0.1,0,0.2-0.2,0.2-0.3c0-0.1-0.2-0.3-0.3-0.3c-0.3-0.1-0.7-0.1-1-0.2c-0.9-0.2-1.3-0.6-1.3-1.3
	c0-0.7,0.5-1.2,1.3-1.3c0.8-0.1,1.5-0.1,2.2,0.4c0.2,0.2,0.4,0.5,0.6,0.9c-0.6,0-1.1,0.2-1.6-0.3c-0.1-0.1-0.3-0.2-0.4-0.2
	c-0.3,0.1-0.5,0.2-0.7,0.3c0.2,0.2,0.3,0.4,0.6,0.5c0.4,0.1,0.8,0.2,1.2,0.3C193.1,133.9,193.5,134.2,193.5,134.8z"/>
<path d="M187.6,136.2c-0.8,0.2-1.6,0.2-2.4-0.2c-0.4-0.2-0.7-0.6-0.7-1.2c0.5,0,1.1-0.2,1.4,0.4c0.1,0.1,0.2,0.1,0.3,0.1
	c0.4,0,0.8,0.2,0.9-0.3c0-0.1-0.5-0.3-0.8-0.4c-0.2-0.1-0.4-0.1-0.6-0.1c-0.8-0.2-1.2-0.5-1.2-1.2c0-0.7,0.3-1.2,1.1-1.4
	c0.7-0.2,1.5-0.2,2.1,0.2c0.3,0.2,0.5,0.6,0.7,1c-0.6,0.1-1.1,0.3-1.5-0.2c-0.1-0.1-0.3-0.2-0.5-0.2c-0.2,0-0.4,0.2-0.6,0.3
	c0.2,0.2,0.3,0.4,0.5,0.5c0.3,0.1,0.7,0.1,1,0.2c0.7,0.2,1.1,0.6,1.1,1.1C188.7,135.5,188.4,136,187.6,136.2z"/>
<path d="M192.3,118.6c-0.4,0.7-0.8,1.3-1.2,2c-0.1,0.1-0.3,0.2-0.4,0.2c-0.5,0-1,0-1.5,0c-0.6,0.1-1,0.1-1.3-0.5
	C188.7,119.1,191.4,118,192.3,118.6z"/>
<path d="M197.5,124.2c0,1.8-0.9,3.1-2.1,4.2c-0.6-0.3-0.7-0.7-0.5-1.3c0.1-0.3,0.2-0.7,0.2-1.1c-0.1-0.6,0.2-0.9,0.8-1.1
	C196.4,124.7,196.9,124.5,197.5,124.2z"/>
<path d="M190.9,125c-0.3,0.9-1.1,1.1-1.9,1.2c0-0.9,0.5-1.6,1.3-1.8c0.2,0,0.5,0,0.6,0.1C190.9,124.5,190.9,124.8,190.9,125z"/>
<path d="M197.9,117.6c-0.7,0-1.3,0.5-1.3,1.2c0,0.7,0.5,1.2,1.2,1.3c0.7,0,1.2-0.5,1.2-1.2C199.1,118.1,198.6,117.6,197.9,117.6z
	 M198,118.5c-0.2,0-0.3-0.3-0.4-0.4c0.1-0.1,0.3-0.4,0.4-0.4c0.1,0,0.3,0.2,0.6,0.4C198.3,118.3,198.1,118.5,198,118.5z"/>
<ellipse transform="matrix(0.4797 -0.8774 0.8774 0.4797 -48.6931 173.4524)" class="st3" cx="121.9" cy="127.8" rx="32.5" ry="32.3"/>
<path d="M112.9,125.6c0-0.3-0.1-0.5-0.2-0.8c-0.1-0.4-0.3-0.7-0.7-1c-0.4-0.3-0.7-0.6-1.2-0.7c-0.3-0.1-0.5-0.2-0.8-0.3
	c0,0-0.1,0-0.1,0c-0.2,0-0.3-0.1-0.5-0.1c-0.1,0-0.3,0-0.4,0c-0.4,0-0.9-0.1-1.3-0.1c-0.6,0-1.2,0.1-1.8,0.1c-0.4,0-0.8,0.1-1.1,0.1
	c-0.1,0-0.2,0-0.3,0c-0.2,0-0.4,0.1-0.6,0.1c-0.1,0-0.1,0-0.2,0c-0.3,0.1-0.6,0.2-0.8,0.2c-0.3,0.1-0.7,0.2-1,0.3
	c-0.3,0.1-0.5,0.2-0.8,0.4c-0.4,0.2-0.8,0.5-1.2,0.9c-0.2,0.3-0.4,0.6-0.5,0.9c-0.1,0.6-0.1,1.2,0.2,1.8c0.1,0.2,0.2,0.5,0.3,0.7
	c0.4,0.6,0.8,1.1,1.3,1.5c0.5,0.4,1,0.8,1.5,1.2c0.3,0.2,0.6,0.4,0.9,0.5c0.3,0.2,0.6,0.3,0.9,0.5c0.2,0.1,0.4,0.3,0.7,0.4
	c0.3,0.1,0.5,0.2,0.8,0.3c0.3,0.1,0.5,0.2,0.8,0.3c0,0,0.1,0,0.1,0c0.2,0,0.3,0.1,0.5,0.1c0.2,0,0.3,0,0.5,0c0.4,0,0.8,0.1,1.1-0.1
	c0.3-0.2,0.6-0.3,0.9-0.5c0.3-0.3,0.6-0.6,0.9-0.9c0.5-0.5,0.9-1.2,1.2-1.8c0.1-0.3,0.2-0.6,0.3-0.9c0.1-0.2,0.1-0.3,0.2-0.5
	c0.1-0.2,0.2-0.5,0.2-0.7c0.1-0.4,0.1-0.7,0.2-1.1C113,126.3,113,126,112.9,125.6z M102.8,126.6c-0.1,0-0.2-0.2-0.2-0.3
	c-0.1-0.3-0.1-0.9,0.4-1c0.3,0,0.6,0,0.8-0.1c0.2,0,0.4,0,0.6,0c1.6,0,3.1,0,4.7,0c0.2,0,0.4,0,0.6,0.2c0.4,0.3,0.4,0.8,0.1,1.1
	c-0.1,0.2-0.4,0.2-0.6,0.2c-0.3,0-0.5,0-0.8,0c0,0,0,0,0,0c-1.7,0-3.4,0-5.1,0C103.2,126.7,103,126.7,102.8,126.6z M103.6,127.6
	c0.1-0.3,0.4-0.5,0.7-0.5c0.7,0,1.4,0,2.2,0c0.3,0,0.6,0,0.9,0c0.4,0,0.6,0.3,0.7,0.7c0,0.3-0.1,0.5-0.3,0.7c-0.1,0-0.2,0.1-0.2,0.1
	c-0.5,0-1.1,0-1.7,0c-0.5,0-1.1,0-1.6,0C103.8,128.5,103.5,128.1,103.6,127.6z M109.8,130.2c-0.2,0.1-0.3,0.2-0.5,0.2
	c-0.7,0-1.3,0-2,0v0c-0.7,0-1.4,0-2.1,0c-0.4,0-0.8-0.4-0.7-0.8c0-0.3,0.3-0.5,0.5-0.6c0.2,0,0.4-0.1,0.6-0.1c1.1,0,2.3,0,3.4,0
	c0.2,0,0.5,0,0.7,0.1c0.2,0.1,0.3,0.2,0.4,0.4C110.2,129.6,110,130,109.8,130.2z"/>
<path d="M139,127.9c0-0.7,0-1.4,0-2.1c0-0.2-0.1-0.3-0.3-0.3c-0.3,0-0.6-0.1-0.9-0.1c-0.1,0-0.2,0-0.2,0.1c0,0.2-0.1,0.1-0.2,0.1
	c-0.2-0.1-0.3-0.1-0.5-0.2c-0.1,0-0.1,0-0.2,0c-0.1,0-0.3,0-0.4,0c-0.1,0-0.3,0.1-0.4,0.1c-0.3,0-0.6,0.2-0.9,0.4
	c-0.3,0.2-0.5,0.5-0.7,0.9c-0.1,0.3-0.2,0.6-0.2,1c0,0.5,0.1,0.9,0.3,1.4c0.1,0.2,0.2,0.4,0.4,0.6c0.2,0.2,0.5,0.4,0.8,0.5
	c0.6,0.1,1.1,0.2,1.7-0.1c0.1,0,0.1-0.1,0.2-0.1c0.1,0,0.2,0,0.2,0.1c0,0.2-0.1,0.4-0.1,0.5c-0.2,0.4-0.6,0.6-1,0.6
	c-0.4,0-0.9-0.1-1.2-0.3c-0.1-0.1-0.2-0.1-0.3,0c-0.1,0.2-0.3,0.3-0.4,0.4c-0.1,0.1-0.1,0.2,0,0.3c0.2,0.2,0.5,0.3,0.8,0.4
	c0.5,0.2,1,0.3,1.6,0.2c0.2,0,0.4,0,0.6-0.1c0.3-0.1,0.6-0.3,0.9-0.6c0.3-0.3,0.6-0.7,0.6-1.2c0-0.3,0-0.5,0-0.8
	C139,129.1,139,128.5,139,127.9z M137.5,128.6c0,0.1-0.1,0.2-0.2,0.3c-0.4,0.3-1,0.3-1.4,0c-0.4-0.3-0.5-0.7-0.5-1.2
	c0-0.3,0.2-0.6,0.4-0.8c0.1-0.1,0.2-0.1,0.3-0.2c0.2-0.1,0.5-0.2,0.8-0.1c0.1,0,0.3,0.1,0.4,0.2c0.3,0.2,0.4,0.5,0.5,0.8
	c0,0.1,0,0.2,0,0.3c0,0,0,0,0,0C137.6,128.1,137.6,128.4,137.5,128.6z"/>
<path d="M127.5,126.3c-0.4-0.5-0.8-0.8-1.5-0.9c-0.1,0-0.1,0-0.2,0c-0.4-0.1-0.8,0-1.1,0.1c-0.4,0.1-0.8,0.4-1.1,0.8
	c-0.3,0.4-0.5,0.8-0.5,1.3c0,0.2,0,0.3,0,0.5c0,0.4,0.2,0.8,0.4,1.1c0.2,0.3,0.5,0.6,0.9,0.8c0.3,0.1,0.5,0.2,0.8,0.2
	c0.5,0,1,0,1.5-0.1c0.3-0.1,0.5-0.2,0.8-0.4c0.1-0.1,0.1-0.2,0-0.4c-0.2-0.2-0.3-0.3-0.5-0.5c-0.1-0.1-0.3-0.1-0.4-0.1
	c-0.3,0.2-0.7,0.3-1,0.3c-0.4,0-0.6-0.2-0.8-0.5c0-0.1-0.1-0.1,0-0.2c0,0,0.1,0,0.2,0c0.5,0,0.9,0,1.4,0c0.5,0,1,0,1.4,0
	c0.1,0,0.2-0.1,0.2-0.2c0-0.2,0-0.3,0-0.5C127.9,127.2,127.8,126.8,127.5,126.3z M126.3,127.4l-0.8,0c-0.2,0-0.5,0-0.7,0
	c-0.2,0-0.2,0-0.2-0.2c0.1-0.3,0.3-0.4,0.5-0.5c0.4-0.2,0.7,0,1,0.2c0.1,0.1,0.2,0.2,0.2,0.4C126.5,127.3,126.4,127.4,126.3,127.4z"
	/>
<path d="M133.3,130.1c0,0.2,0,0.2-0.2,0.2c-0.3,0-0.6,0-0.9,0c-0.2,0-0.2,0-0.2-0.2c0-0.7,0-1.5,0-2.2c0-0.3,0-0.5-0.1-0.7
	c-0.2-0.5-1-0.6-1.3-0.3c-0.2,0.2-0.3,0.4-0.3,0.7c0,0.8,0,1.6,0,2.5c0,0.2,0,0.3-0.3,0.3c-0.3,0-0.6,0-0.9,0
	c-0.2,0-0.3-0.1-0.3-0.3c0-0.7,0-1.4,0-2.1c0-0.7,0-1.4,0-2c0-0.3,0.1-0.4,0.4-0.4c0.3,0,0.5,0,0.8-0.1c0.2,0,0.2,0,0.2,0.2
	c0,0.2,0,0.2,0.2,0.1c0.4-0.2,0.8-0.3,1.3-0.3c0.4,0.1,0.7,0.2,1,0.4c0.3,0.3,0.5,0.7,0.5,1.2C133.3,128.1,133.3,129.1,133.3,130.1z
	"/>
<path d="M142.1,125.4c-1.3,0-2.5,1.1-2.5,2.5c0,1.5,1.2,2.5,2.4,2.5c1.5,0,2.5-1.1,2.6-2.5C144.6,126.5,143.5,125.4,142.1,125.4z
	 M142.6,129c-0.1,0.1-0.3,0.1-0.4,0.1c-0.5,0-0.8-0.2-1.1-0.6c-0.2-0.3-0.2-0.7-0.1-1c0.1-0.4,0.4-0.7,0.8-0.8c0.3-0.1,0.5,0,0.7,0
	c0.2,0.1,0.4,0.2,0.5,0.4c0.1,0.1,0.1,0.2,0.2,0.3C143.4,128.1,143.1,128.8,142.6,129z"/>
<path d="M118.6,130.2c-0.5,0.2-0.9,0.2-1.4,0c-0.5-0.2-0.8-0.5-1-1c0-0.1,0-0.2,0-0.3c0-0.3,0-0.7,0-1c0-0.4,0-0.7,0-1.1
	c0-0.1,0-0.2-0.2-0.2c-0.1,0-0.2,0-0.4,0c-0.1,0-0.2-0.1-0.2-0.2c0-0.2,0-0.5,0-0.7c0-0.2,0.1-0.2,0.3-0.3c0.1,0,0.2,0,0.3,0
	c0.2,0,0.2,0,0.2-0.2c0-0.3,0-0.5,0-0.8c0-0.3,0-0.3,0.3-0.3c0.3,0,0.5-0.1,0.8-0.1c0.2,0,0.3,0.1,0.3,0.3c0,0.3,0,0.6,0,0.9
	c0,0.2,0,0.2,0.2,0.2c0.5,0,0.5,0,0.5,0.5c0,0.1,0,0.3,0,0.4c0,0.2,0,0.2-0.2,0.2c-0.1,0-0.2,0-0.3,0c-0.1,0-0.2,0-0.2,0.2
	c0,0.6,0,1.2,0,1.8c0,0.4,0.3,0.6,0.6,0.5c0.3,0,0.4,0.1,0.4,0.3c0,0.1,0.1,0.3,0.1,0.4C118.8,130,118.8,130.1,118.6,130.2z"/>
<path d="M122.6,125.7c0,0.2-0.1,0.4-0.1,0.6c0,0.1-0.1,0.2-0.1,0.4c0,0.1-0.1,0.1-0.2,0.1c-0.4-0.2-0.8-0.2-1.1,0.2
	c-0.1,0.2-0.2,0.4-0.2,0.6c0,0.8,0,1.6,0,2.4c0,0.2,0,0.3-0.3,0.3c-0.3,0-0.6,0-0.9,0c-0.2,0-0.2,0-0.2-0.2c0-0.7,0-1.4,0-2.1
	c0-0.7,0-1.4,0-2.1c0-0.3,0-0.3,0.3-0.3c0.3,0,0.6-0.1,0.9-0.1c0.1,0,0.2,0.1,0.2,0.2c0,0.2,0,0.2,0.2,0.1c0.4-0.2,0.8-0.3,1.3-0.3
	C122.5,125.5,122.6,125.6,122.6,125.7z"/>
<ellipse transform="matrix(0.6253 -0.7804 0.7804 0.6253 1.5061 148.6501)" class="st2" cx="155.6" cy="72.8" rx="32.5" ry="32.3"/>
<path d="M146.3,65.1c0.1-0.4,0.1-0.9-0.1-1.3c0-0.1-0.1-0.2,0-0.3c0.1-0.5,0.1-0.9-0.1-1.3c-0.1-0.1-0.1-0.3-0.1-0.5
	c0.1-0.6,0-1.3-0.4-1.8c-0.4-0.5-1-0.9-1.7-0.9c-0.1,0-0.2,0-0.2-0.1c-0.2-0.2-0.3-0.3-0.6-0.4c-0.5-0.2-1-0.3-1.5-0.1
	c-0.1,0-0.2,0.1-0.4,0c-0.2,0-0.4-0.1-0.6-0.2c-0.6-0.1-1.1,0.1-1.5,0.4c-0.3,0.2-0.5,0.5-0.8,0.8c-0.2,0.2-0.3,0.4-0.4,0.6
	c-0.1,0.2-0.2,0.3-0.2,0.5c-0.1,0.3-0.2,0.5-0.2,0.8c-0.1,0.5-0.2,1.1-0.1,1.6c0.1,0.4,0.2,0.8,0.3,1.2c0.1,0.5,0.4,0.9,0.7,1.3
	c0.2,0.3,0.5,0.5,0.8,0.8c0.3,0.2,0.6,0.4,1,0.6c0.3,0.1,0.6,0.2,0.9,0.3c0.4,0.1,0.7,0.1,1.1,0.2c0.7,0,1.3-0.1,2-0.4
	c0.4-0.2,0.8-0.3,1.1-0.6c0.2-0.2,0.4-0.3,0.5-0.4C146,65.8,146.2,65.5,146.3,65.1z M145,65.9c-0.2,0.1-0.4,0.3-0.5,0.4
	c-0.5,0.3-0.9,0.5-1.5,0.6c-0.6,0.1-1.2,0.1-1.7,0c-0.3-0.1-0.6-0.2-0.9-0.3c-0.3-0.2-0.7-0.3-0.9-0.6c-0.2-0.2-0.4-0.4-0.6-0.6
	c-0.2-0.3-0.4-0.6-0.5-0.9c-0.3-0.7-0.5-1.5-0.3-2.3c0.1-0.4,0.2-0.8,0.3-1.2c0.1-0.3,0.3-0.6,0.5-0.9c0.2-0.2,0.4-0.4,0.7-0.6
	c0.2-0.2,0.6-0.3,0.9-0.3c0.3,0,0.7,0.1,0.9,0.3c0,0,0.1,0,0.2,0c0.2-0.2,0.5-0.3,0.8-0.3c0.5,0,0.8,0.2,1.1,0.6
	c0.1,0.1,0.1,0.1,0.2,0.1c0.3-0.1,0.7,0,1,0.1c0.7,0.3,1,1.2,0.8,1.9c-0.1,0.2,0,0.4,0.1,0.5c0.2,0.3,0.2,0.6,0.2,0.9
	c0,0.1-0.1,0.2-0.1,0.3c-0.1,0.1,0,0.3,0,0.4c0.2,0.3,0.2,0.6,0.1,0.9C145.7,65.3,145.4,65.6,145,65.9z"/>
<path d="M171.6,84.6c0.4-0.6,0.9-1.1,1.3-1.7c0.1-0.2,0.1-0.2,0-0.3c-0.1-0.1-0.2-0.1-0.4-0.2c-0.1-0.1-0.2-0.1-0.3,0
	c-0.2,0.3-0.5,0.6-0.7,0.9c-0.1,0.1-0.1,0.1-0.2,0c-0.1-0.1-0.1-0.2-0.2-0.3c-0.4-0.6-1.2-0.7-1.8-0.3c-0.4,0.2-0.7,0.6-0.9,1
	c-0.2,0.3-0.2,0.7-0.1,1.1c0.2,0.6,0.7,0.8,1.2,1c0.3,0.1,0.3,0,0.3,0.3c0,0.1,0.2,0.3,0.3,0.3c0.1,0,0.1-0.1,0.2-0.1
	C170.7,85.7,171.2,85.2,171.6,84.6z M169.8,85.2c-0.3-0.1-0.5-0.2-0.6-0.5c-0.1-0.2-0.1-0.3,0-0.5c0.2-0.4,0.4-0.8,0.9-0.9
	c0.1,0,0.3,0,0.4,0c0.3,0.1,0.5,0.3,0.6,0.6c0,0.1,0,0.2,0,0.3c-0.1,0.2-0.3,0.3-0.4,0.5c-0.1,0.1-0.2,0.2-0.3,0.4
	C170.1,85.2,170,85.3,169.8,85.2z"/>
<path d="M156.7,72.7l0.6-0.7c0.3-0.3,0.5-0.6,0.8-1c0.1-0.1,0.1-0.2,0-0.2c-0.1-0.1-0.2-0.1-0.3-0.2c-0.2-0.1-0.2-0.1-0.4,0.1
	c-0.2,0.3-0.4,0.6-0.7,0.8c-0.1,0.1-0.1,0.1-0.2,0c-0.1-0.1-0.1-0.2-0.2-0.3c-0.4-0.5-1.1-0.7-1.7-0.4c-0.5,0.3-0.8,0.7-1,1.2
	c-0.1,0.4-0.2,0.8,0,1.1c0.3,0.5,0.7,0.7,1.3,0.8c0.1,0,0.2,0.1,0.2,0.2c0,0.2,0,0.3,0.2,0.4c0.1,0.1,0.2,0.1,0.2,0
	C155.8,73.8,156.3,73.3,156.7,72.7z M155.7,72.8c-0.1,0.2-0.2,0.3-0.4,0.5c-0.1,0.1-0.2,0.1-0.3,0.1c-0.3-0.1-0.6-0.2-0.7-0.5
	c0-0.1-0.1-0.2-0.1-0.4c0.1-0.5,0.4-0.8,0.8-1c0.4-0.2,0.7,0.1,0.9,0.4c0,0,0,0.1,0.1,0.1c0.1,0.1,0.1,0.2,0,0.4
	C155.9,72.5,155.8,72.6,155.7,72.8z"/>
<path d="M165.8,80.2c0.1-0.3,0.2-0.5,0.1-0.8c-0.1-0.4-0.3-0.8-0.7-1c-0.1,0-0.1-0.1-0.2-0.1c-0.5-0.3-1-0.4-1.5-0.1
	c-0.5,0.2-0.8,0.6-1,1.1c-0.1,0.3-0.1,0.7,0,1c0.2,0.4,0.5,0.6,0.8,0.8c0.2,0.2,0.5,0.2,0.8,0.2C165,81.4,165.5,80.9,165.8,80.2z
	 M164.1,80.6c-0.3,0-0.7-0.3-0.7-0.7c0-0.2,0.1-0.4,0.1-0.5c0.1-0.3,0.3-0.5,0.6-0.6c0.3-0.2,0.6-0.1,0.9,0.1
	c0.2,0.2,0.3,0.5,0.2,0.8c0,0.1,0,0.1-0.1,0.2c-0.1,0.1-0.1,0.2-0.2,0.3C164.7,80.5,164.4,80.7,164.1,80.6z"/>
<path d="M159.1,75.6c0.1-0.1,0.2-0.3,0.3-0.4c0.2-0.4,0.3-0.8,0.1-1.2c-0.1-0.4-0.4-0.6-0.7-0.8c-0.4-0.2-0.8-0.3-1.2-0.1
	c-0.5,0.2-0.8,0.5-1,1c-0.2,0.4-0.2,0.8,0,1.3c0.2,0.4,0.6,0.7,1,1c0.1,0.1,0.3,0.1,0.5,0.2c0.1,0,0.2,0,0.2-0.1
	c0-0.1,0.1-0.2,0.1-0.4c0-0.1,0-0.2-0.1-0.2c-0.1,0-0.2-0.1-0.3-0.1c-0.4-0.2-0.8-0.6-0.6-1.1c0-0.2,0.1-0.2,0.2-0.1
	c0.2,0.2,0.5,0.4,0.7,0.6l0,0c0.2,0.2,0.5,0.4,0.7,0.6C158.9,75.7,159,75.7,159.1,75.6z M158.6,74.7c-0.1,0-0.1-0.1-0.2-0.1
	c-0.1-0.1-0.2-0.1-0.3-0.2c0,0-0.1-0.1-0.1-0.1c-0.1-0.1-0.2-0.2-0.3-0.2c-0.1-0.1-0.1-0.1,0-0.2c0.3-0.2,0.6-0.2,0.8,0
	c0.2,0.2,0.3,0.5,0.2,0.8C158.7,74.8,158.7,74.8,158.6,74.7z"/>
<path d="M153.2,71.3c0.2-0.2,0.4-0.5,0.6-0.7c0.1-0.1,0.2-0.3,0.2-0.4c0.1-0.4,0-0.8-0.3-1.1c-0.3-0.3-0.7-0.5-1.1-0.7
	c-0.1,0-0.2,0-0.2,0.1c-0.1,0.1-0.1,0.3-0.2,0.4c0,0.1,0,0.1,0.1,0.2c0.3,0.1,0.6,0.2,0.8,0.4c0.1,0.1,0.2,0.3,0.1,0.5
	c-0.1,0.2-0.1,0.2-0.3,0.1c-0.3-0.2-0.5-0.4-0.8-0.5c-0.2-0.1-0.4-0.1-0.6-0.1c-0.3,0.1-0.4,0.3-0.6,0.5c-0.2,0.3-0.2,0.8,0.1,1.1
	c0.3,0.3,0.6,0.5,1,0.5c0.1,0,0.2,0.1,0.2,0.2c0,0.2,0.1,0.3,0.2,0.4c0.1,0.1,0.2,0.1,0.2,0C152.8,71.9,153,71.6,153.2,71.3z
	 M152.1,71c-0.3,0-0.5-0.1-0.6-0.3c-0.1-0.2-0.1-0.4,0-0.5c0.1-0.1,0.4-0.2,0.5-0.1c0.1,0.1,0.2,0.1,0.3,0.2l0,0c0,0,0,0,0.1,0
	c0.1,0.1,0.3,0.1,0.2,0.3C152.6,70.9,152.3,71,152.1,71z"/>
<path d="M167.4,84c-0.1,0.1-0.2,0.1-0.3,0c-0.1-0.1-0.2-0.2-0.2-0.4c0-0.1,0-0.2-0.2-0.2c-0.4,0-0.8-0.1-1.1-0.4
	c-0.4-0.4-0.5-0.8-0.2-1.3c0.1-0.2,0.2-0.4,0.4-0.5c0.3-0.4,0.6-0.8,1-1.2c0.1-0.2,0.1-0.2,0.3,0c0.1,0.1,0.2,0.2,0.3,0.3
	c0.1,0.1,0.1,0.1,0,0.3c-0.4,0.4-0.7,0.9-1.1,1.3c-0.1,0.2-0.2,0.3-0.2,0.6c0,0.2,0.3,0.5,0.6,0.5c0,0,0.1,0,0.1,0
	c0.2,0,0.3,0,0.5-0.2c0.4-0.5,0.8-1,1.2-1.5c0.1-0.1,0.2-0.1,0.3,0c0.1,0.1,0.2,0.2,0.4,0.3c0.1,0.1,0.1,0.1,0,0.2
	c-0.3,0.4-0.6,0.7-0.9,1.1C168,83.3,167.7,83.6,167.4,84z"/>
<path d="M160.7,78.4c0,0.1-0.1,0.1-0.2,0.1c-0.7-0.1-1.7-0.8-1.5-1.8c0.1-0.3,0.2-0.6,0.4-0.9c0.3-0.4,0.7-0.7,1.3-0.7
	c0.3,0,0.5,0.1,0.8,0.2c0.4,0.2,0.7,0.6,0.9,1c0,0.1,0,0.1-0.1,0.2c-0.1,0-0.2,0.1-0.3,0.2c-0.1,0.1-0.2,0-0.3-0.1
	c-0.1-0.2-0.2-0.3-0.3-0.4c-0.3-0.3-0.6-0.3-0.9-0.1c-0.4,0.2-0.6,0.5-0.7,0.9c0,0.4,0.2,0.7,0.5,0.8c0.1,0.1,0.2,0.1,0.3,0.1
	c0.1,0,0.1,0.1,0.1,0.2C160.7,78.2,160.7,78.3,160.7,78.4z"/>
<path d="M148.5,69c-0.1,0-0.3-0.1-0.4-0.1c-0.3-0.2-0.6-0.4-0.7-0.8c-0.1-0.4,0-0.7,0.2-1c0.3-0.4,0.6-0.7,0.8-1.1
	c0.1-0.2,0.1-0.2,0-0.3c-0.2-0.1-0.2-0.1,0-0.3l0,0c0.2-0.2,0.2-0.2,0.4-0.1c0.1,0.1,0.2,0,0.2,0c0.1-0.1,0.2-0.2,0.3-0.4
	c0.1-0.1,0.1-0.1,0.2-0.1c0.2,0.1,0.3,0.2,0.5,0.3c0.1,0.1,0.1,0.1,0,0.2c-0.1,0.1-0.2,0.3-0.4,0.5c-0.1,0.1-0.1,0.2,0,0.3
	c0.3,0.3,0.3,0.3,0.2,0.7c0,0.1,0,0.1-0.1,0.2l-0.5-0.4c-0.1-0.1-0.2-0.1-0.3,0c-0.3,0.3-0.5,0.6-0.8,0.9c-0.2,0.2-0.2,0.5,0,0.7
	c0.1,0.1,0.1,0.1,0.2,0.2c0.1,0.1,0.1,0.1,0.1,0.2C148.6,68.7,148.6,68.9,148.5,69z"/>
<path d="M161.7,79.4c-0.1,0.1-0.2,0.1-0.3,0c-0.1-0.1-0.2-0.2-0.3-0.3c-0.1-0.1-0.1-0.2,0-0.3c0.8-1,1.7-2.1,2.5-3.1
	c0.2-0.3,0.2-0.3,0.5-0.1c0.1,0,0.1,0.1,0.2,0.1c0.1,0.1,0.1,0.1,0,0.2c-0.5,0.6-0.9,1.1-1.3,1.7C162.5,78.3,162.1,78.8,161.7,79.4z
	"/>
<path d="M151.7,68.4c-0.3-0.2-0.6-0.2-0.9-0.2c-0.1,0-0.2,0.1-0.3,0.1c-0.3,0.4-0.7,0.9-1,1.3c-0.1,0.1-0.1,0.2-0.3,0l-0.3-0.3
	c-0.2-0.1-0.2-0.1,0-0.3c0.3-0.4,0.6-0.7,0.9-1.1c0.3-0.4,0.6-0.7,0.9-1.1c0-0.1,0.1-0.2,0.2-0.1c0.2,0.1,0.3,0.2,0.2,0.3
	c0,0.1,0,0.2,0,0.3c0,0.1,0,0.2,0.1,0.2c0.2,0,0.4,0.1,0.6,0.1c0.1,0,0.1,0,0.2,0.1c0.1,0.1,0.1,0.1,0.1,0.3
	c-0.1,0.1-0.1,0.2-0.1,0.3C151.8,68.4,151.7,68.5,151.7,68.4z"/>
<path d="M168.6,88.6c-0.1,0.1-0.1,0.1-0.2,0.1c-0.1-0.1-0.1-0.1,0-0.2c0.1-0.1,0.2-0.2,0.3-0.3c0.1-0.1,0.1-0.3,0-0.3
	c-0.1-0.1-0.3-0.1-0.4,0.1c-0.1,0.1-0.2,0.2-0.3,0.4c-0.1,0.1-0.1,0.1-0.2,0c0,0,0-0.1,0-0.2c0.1-0.1,0.2-0.2,0.3-0.4
	c0-0.1,0-0.2,0-0.3c0-0.1-0.1-0.1-0.2-0.1c0,0-0.1,0-0.2,0.1c-0.1,0.1-0.2,0.3-0.3,0.4c0,0-0.1,0-0.1,0c0,0,0-0.1,0-0.1
	c0.2-0.2,0.3-0.4,0.5-0.6c0,0,0,0,0.1,0c0,0,0,0,0,0c0.1,0,0.2,0.1,0.3,0.2c0.1,0.1,0.2,0.1,0.3,0.3c0,0.1,0.1,0.1,0.2,0.1
	c0.4,0.1,0.5,0.4,0.3,0.7C168.7,88.4,168.7,88.5,168.6,88.6z"/>
<path d="M156.9,78.6c0.1-0.3,0-0.5-0.3-0.6c-0.1,0-0.2-0.1-0.2-0.1c0,0,0,0,0,0c0,0,0,0,0,0c-0.3,0.3-0.6,0.7-0.8,1c0,0,0,0.1,0,0.1
	c0,0,0.1,0,0.1,0c0.1,0,0.1-0.1,0.1-0.2c0.1-0.1,0.1-0.1,0.2,0c0.2,0.2,0.3,0.2,0.5,0.1C156.7,78.8,156.8,78.7,156.9,78.6z
	 M156.4,78.7c-0.1,0-0.2-0.1-0.2-0.1c0,0,0-0.1,0-0.2c0,0,0-0.1,0.1-0.1c0,0,0-0.1,0.1-0.1c0.1-0.1,0.2-0.1,0.2-0.1
	c0.1,0,0.1,0.1,0.1,0.2C156.7,78.5,156.6,78.7,156.4,78.7z"/>
<path d="M155.9,78c0.2-0.3,0.1-0.6-0.3-0.7c0,0-0.1,0-0.1-0.1c-0.1-0.1-0.1-0.1-0.2,0c-0.1,0.1-0.2,0.3-0.4,0.5l-0.4,0.5
	c0,0.1-0.1,0.1,0,0.2c0,0,0.1,0,0.2,0c0,0,0.1-0.1,0.1-0.1c0.1-0.1,0.1-0.1,0.3,0c0,0,0.1,0.1,0.2,0.1
	C155.5,78.3,155.7,78.2,155.9,78z M155.3,78c-0.1-0.1-0.1-0.2,0-0.4c0.1-0.2,0.3-0.2,0.4-0.1c0.1,0.1,0.1,0.3,0,0.4
	C155.6,78,155.4,78,155.3,78z"/>
<path d="M163.6,83.9c0.1-0.2,0-0.5-0.2-0.6c-0.1,0-0.2-0.1-0.3-0.1c0,0,0,0,0-0.1c0,0-0.1,0.1-0.1,0.1c-0.2,0.2-0.4,0.5-0.5,0.7
	c-0.1,0.1-0.1,0.1-0.2,0.2c0,0,0,0.1,0,0.2c0.1,0,0.1,0,0.2,0c0,0,0.1-0.1,0.1-0.1c0.1-0.2,0.1-0.2,0.3,0c0.2,0.2,0.3,0.2,0.5,0.1
	C163.4,84.2,163.5,84.1,163.6,83.9z M163,84.1c-0.2,0-0.3-0.2-0.2-0.3c0-0.1,0.1-0.1,0.1-0.2c0.1-0.1,0.2-0.2,0.3-0.1
	c0.1,0.1,0.2,0.2,0.1,0.3c0,0.1,0,0.1-0.1,0.2C163.2,84,163.1,84.1,163,84.1z"/>
<path d="M159.8,81.6c0,0-0.1,0-0.2,0c0-0.1,0-0.1,0-0.2c0.1-0.1,0.2-0.2,0.3-0.4c0.1-0.2,0.1-0.4-0.2-0.4c-0.1,0-0.1,0-0.2,0.1
	c-0.1,0.1-0.2,0.2-0.3,0.3c0,0.1-0.1,0.1-0.2,0.1c-0.1-0.1,0-0.1,0-0.2c0.1-0.1,0.1-0.1,0.2-0.2l0.2-0.2c0.1-0.1,0.2-0.3,0.4-0.5
	c0.1-0.1,0.1-0.1,0.2,0c0.1,0.1,0,0.1,0,0.2l0,0c-0.2,0.2-0.2,0.2,0.1,0.4c0.2,0.1,0.3,0.3,0.1,0.5C160,81.3,159.9,81.5,159.8,81.6z
	"/>
<path d="M166.7,86c-0.3-0.2-0.5-0.1-0.7,0.1c-0.2,0.2-0.2,0.5,0.1,0.7c0.2,0.2,0.5,0.2,0.7-0.1C167,86.5,167,86.2,166.7,86z
	 M166.2,86.7c-0.1-0.1-0.1-0.3,0-0.4c0.1-0.2,0.3-0.2,0.4-0.1c0.1,0.1,0.1,0.3,0,0.4C166.5,86.8,166.3,86.8,166.2,86.7z"/>
<path d="M158.3,79.4c-0.1,0.1-0.2,0.1-0.2,0.2c-0.3,0.2-0.5,0.3-0.8,0.4c-0.2,0.1-0.3,0.1-0.5,0c0-0.1,0-0.1,0-0.2c0,0,0.1,0,0.1,0
	c0.3,0,0.3,0,0.4-0.3c0.1-0.2,0.1-0.4,0.2-0.6c0-0.1,0.1-0.2,0.2-0.1c0.1,0,0.1,0.1,0.1,0.2c0,0.1-0.1,0.2-0.1,0.3
	c0,0.1,0,0.1,0,0.2c0.2-0.1,0.3-0.2,0.4-0.3C158.2,79.2,158.3,79.2,158.3,79.4z"/>
<path d="M164.5,85.3c0,0,0.1-0.1,0.1-0.1l0,0c0.1-0.1,0.1-0.2,0.2-0.2c0.1-0.1,0.1-0.3,0-0.4c-0.1-0.1-0.2-0.1-0.3-0.2
	c0,0-0.1,0-0.2,0c0,0.1,0,0.1,0.1,0.2c0.1,0.1,0.1,0.1,0.2,0.2c0,0,0,0.1,0,0.1c0,0-0.1,0-0.1,0c-0.1,0-0.1-0.1-0.1-0.1
	c-0.2-0.1-0.4,0-0.5,0.2c0,0.1,0.1,0.3,0.2,0.4c0.1,0,0.1,0,0.2,0.1C164.3,85.5,164.4,85.4,164.5,85.3z M164.1,85
	c-0.1-0.1-0.1-0.1,0-0.2c0.1-0.1,0.2-0.1,0.3,0c0,0.1,0,0.2,0,0.2C164.3,85.1,164.2,85.1,164.1,85z"/>
<path d="M160.8,82.1L160.8,82.1c0.1-0.1,0.1-0.1,0.2-0.2c0.1-0.1,0.1-0.3,0-0.4c-0.1-0.1-0.2-0.2-0.3-0.2c0,0-0.1,0-0.2,0
	c-0.1,0.1,0,0.1,0.1,0.2c0.1,0.1,0.1,0.1,0.2,0.2c0,0,0,0.1,0,0.1c0,0-0.1,0-0.1,0c-0.1,0-0.1-0.1-0.2-0.1c-0.1-0.1-0.3-0.1-0.4,0.1
	c-0.1,0.2-0.1,0.4,0.1,0.5c0.1,0,0.2,0,0.3,0.2c0,0,0.1,0,0.1,0C160.7,82.2,160.7,82.1,160.8,82.1z M160.3,82
	c-0.1-0.1-0.1-0.1,0-0.2c0.1-0.1,0.2-0.1,0.3,0c0,0.1,0,0.2,0,0.2C160.5,82.1,160.4,82,160.3,82z"/>
<path d="M154.6,77.6C154.6,77.6,154.6,77.6,154.6,77.6c-0.1-0.2-0.3-0.1-0.4-0.2c-0.3-0.1-0.3-0.3-0.2-0.6c0.1-0.1,0.2-0.3,0.3-0.4
	c0.1-0.1,0.1-0.1,0.2,0c0.1,0.1,0,0.1,0,0.2c-0.1,0.1-0.2,0.2-0.3,0.4c-0.1,0.1-0.1,0.3,0,0.3c0.1,0.1,0.2,0.1,0.3-0.1
	c0.1-0.1,0.2-0.3,0.3-0.4c0,0,0.1,0,0.2,0c0,0,0,0.1,0,0.1C155,77.1,154.8,77.4,154.6,77.6z"/>
<path d="M161.9,83.3c-0.1,0.1-0.1,0.1-0.2,0c-0.1-0.1,0-0.1,0-0.2c0.1-0.1,0.2-0.2,0.3-0.3c0.1-0.1,0.1-0.3,0-0.3
	c-0.1-0.1-0.3-0.1-0.4,0.1c-0.1,0.1-0.2,0.2-0.3,0.3c0,0-0.1,0-0.2,0c0-0.1,0-0.1,0-0.2c0.2-0.2,0.3-0.4,0.5-0.6c0,0,0,0,0.1,0
	c0,0.2,0.1,0.2,0.3,0.2c0.3,0.1,0.4,0.4,0.2,0.6C162.1,83.1,162,83.2,161.9,83.3z"/>
<path d="M166,85.4c0,0,0,0.1,0,0.2c0,0.1,0,0.1,0,0.2c0,0-0.1,0-0.1,0c-0.1,0-0.1,0-0.2,0.1c-0.1,0.1-0.2,0.2-0.3,0.4
	c-0.1,0.1-0.1,0.1-0.2,0c-0.1-0.1-0.1-0.1,0-0.2c0.1-0.1,0.1-0.1,0.1-0.2c0,0,0,0,0,0c0.1-0.1,0.1-0.1,0.1-0.2c0,0,0-0.1,0-0.2
	c0-0.1,0-0.2,0.1-0.2c0.1,0,0.1,0,0.2-0.1c0.2-0.1,0.4-0.1,0.5,0.1c0,0,0,0.1,0,0.1c0,0-0.1,0-0.1,0c0,0-0.1,0-0.1,0
	C166.1,85.3,166.1,85.4,166,85.4z"/>
<path d="M153.8,76.8c-0.2,0-0.5-0.2-0.5-0.3c0,0,0-0.1,0-0.1c0,0,0.1,0,0.1,0c0.1,0,0.1,0.1,0.1,0.2c0,0,0.1,0,0.1,0
	c0,0,0-0.1,0-0.1c0-0.1-0.1-0.2-0.1-0.3c-0.1-0.1-0.1-0.2,0.1-0.3c0.1-0.1,0.3-0.1,0.4,0c0,0,0,0,0,0c0,0,0,0,0,0
	c0,0.1,0.1,0.1,0.1,0.2c0,0,0,0.1,0,0.1c0,0-0.1,0-0.1,0c-0.1-0.1-0.1-0.2-0.2-0.1c0,0,0,0.2,0.1,0.3C154,76.6,154,76.8,153.8,76.8z
	"/>
<path d="M165,85.9c-0.1,0-0.1,0-0.1,0c-0.2-0.2-0.2-0.4-0.1-0.6c0.1-0.1,0.1-0.1,0.2-0.2c0-0.1,0.1-0.1,0.1-0.2c0-0.1,0-0.1,0.1-0.1
	c0,0,0.1-0.1,0.1-0.1c0.1,0,0.1,0,0.2,0c0,0,0,0.1,0,0.1c-0.1,0.1,0,0.1,0,0.2c0,0,0,0.1,0,0.1c0,0-0.1,0-0.1,0c0,0,0,0,0,0
	c-0.2,0-0.2,0.2-0.3,0.3c-0.1,0.1-0.1,0.2,0,0.3C165,85.8,165,85.8,165,85.9z"/>
<path d="M158.7,80.9c-0.3-0.1-0.4-0.4-0.3-0.6c0.1-0.3,0.3-0.4,0.6-0.4c0.1,0,0.1,0.1,0.2,0.1c0.1,0.1,0.1,0.1,0.1,0.2
	c0,0,0,0.1,0,0.1c0,0-0.1,0-0.1,0c0,0-0.1-0.1-0.1-0.1c-0.2-0.1-0.3,0-0.4,0.2c-0.1,0.2,0,0.3,0.2,0.4c0.1,0,0.1,0.1,0.1,0.1
	C158.8,81,158.8,80.9,158.7,80.9z"/>
<path d="M163.6,84.7c-0.1,0.1-0.1,0.1-0.2,0c-0.1-0.1,0-0.1,0-0.2c0.1-0.1,0.2-0.2,0.2-0.3c0,0,0.1-0.1,0.1-0.1l0.4-0.5
	c0.1-0.1,0.1-0.1,0.2,0c0.1,0.1,0,0.1,0,0.2C164.1,84.1,163.9,84.4,163.6,84.7z"/>
<path d="M157,79.3c-0.1,0.1-0.1,0.1-0.2,0.1c-0.1-0.1,0-0.1,0-0.2c0.1-0.1,0.2-0.3,0.4-0.4c0.1-0.1,0.2-0.3,0.4-0.4
	c0.1-0.1,0.1-0.1,0.2,0c0.1,0.1,0,0.1,0,0.2C157.4,78.7,157.2,79,157,79.3z"/>
<path d="M167.6,86.9c0,0-0.1,0-0.1,0c-0.2-0.1-0.3,0-0.4,0.1c0,0.1-0.1,0.1-0.2,0.2c0,0.1-0.1,0.1-0.2,0c-0.1-0.1,0-0.1,0-0.2
	c0.1-0.1,0.2-0.2,0.2-0.3l0,0c0.1-0.1,0.2-0.2,0.2-0.3c0,0,0.1,0,0.1,0c0,0,0,0.1,0,0.1c0,0.1,0.1,0.1,0.2,0.2
	C167.6,86.8,167.7,86.8,167.6,86.9z"/>
<path d="M161,82.6c0,0-0.1,0-0.2,0c-0.1,0-0.1-0.1,0-0.2c0.2-0.2,0.3-0.4,0.5-0.6c0,0,0.1,0,0.1,0c0,0,0,0.1,0,0.2
	c-0.1,0.1-0.2,0.2-0.2,0.3C161.2,82.4,161.1,82.5,161,82.6z"/>
<path d="M161.7,81.7c-0.1,0-0.1,0-0.2,0c0,0,0-0.1,0-0.1c0,0,0.1-0.1,0.2,0C161.8,81.5,161.8,81.6,161.7,81.7
	C161.8,81.7,161.8,81.7,161.7,81.7z"/>
<path class="st1" d="M158.4,74.6c-0.1-0.1-0.2-0.1-0.3-0.2c0,0-0.1-0.1-0.1-0.1c0,0,0.1,0.1,0.1,0.1
	C158.2,74.5,158.3,74.5,158.4,74.6z"/>
<path d="M140.7,62.6c0.1,0.1,0.3,0.2,0.4,0.3c0,0,0.1,0.1,0.1,0.1c0,0-0.1,0.1-0.1,0.1c-0.1,0-0.2,0-0.3,0c-0.1,0-0.2,0.1-0.1,0.2
	c0.1,0.3,0.3,0.6,0.5,0.8c0.5,0.3,1,0.3,1.4,0.1c0.1,0,0.1,0,0.2,0c0.1,0.1,0.1,0.1,0.2,0.2c0.1,0.1,0.1,0.2,0,0.2
	c-0.5,0.3-1.1,0.5-1.7,0.2c-0.7-0.3-1.1-0.7-1.2-1.5c0-0.1-0.1-0.1-0.2-0.1c-0.1,0-0.2,0-0.3,0c-0.1,0-0.1,0-0.2-0.1
	c0,0,0-0.1,0-0.2c0.2-0.3,0.4-0.5,0.6-0.8c0.1-0.1,0.2-0.1,0.3,0C140.4,62.4,140.5,62.5,140.7,62.6z"/>
<path d="M144.4,62.8c0,0.1,0,0.2-0.1,0.2c-0.2,0.3-0.4,0.5-0.6,0.8c-0.1,0.1-0.2,0.1-0.3,0c-0.2-0.2-0.5-0.4-0.8-0.6
	c0,0-0.1-0.1-0.1-0.1c0,0,0.1-0.1,0.1-0.1c0.1,0,0.2,0,0.3,0c0.1,0,0.2-0.1,0.1-0.2c-0.1-0.5-0.5-0.9-1-1c-0.3-0.1-0.6-0.1-0.9,0.1
	c-0.1,0.1-0.2,0.1-0.3,0c0,0-0.1-0.1-0.1-0.1c-0.1-0.1-0.1-0.2,0-0.2c0.4-0.2,0.8-0.4,1.3-0.3c0.4,0,0.8,0.2,1.1,0.5
	c0.3,0.3,0.5,0.6,0.6,1c0,0.1,0.1,0.1,0.2,0.1C144.1,62.8,144.2,62.8,144.4,62.8z"/>
<path d="M174.2,52.5l-1-0.9l0.5-0.6l1,0.8l0.3-0.3l-1-0.8l0.5-0.6l1,0.9l0.3-0.3l-1.3-1.2l-1.8,2.1l1.3,1.2L174.2,52.5z"/>
<path d="M174.7,53.6l1.2-0.2l-0.3,1.2l0.4,0.4l0.4-1.6L178,53l-0.4-0.4l-1.1,0.2l0.3-1.1l-0.4-0.4l-0.4,1.6l-1.6,0.3L174.7,53.6z"/>
<path d="M178.5,53.6l-2.2,1.8l0.3,0.4l2.2-1.8L178.5,53.6z"/>
<path d="M180.6,56.5l-1.3-1.9l-0.3,0.2l0.5,0.7l-1.9,1.4l0.3,0.4l1.9-1.4l0.5,0.7L180.6,56.5z"/>
<path d="M180.7,61.7l-0.5-1.2l0.7-0.3l0.5,1.2l0.4-0.2l-0.5-1.2l0.7-0.3l0.5,1.2l0.4-0.2l-0.7-1.6l-2.5,1.2l0.7,1.6L180.7,61.7z"/>
<path d="M180.5,62.4l0.2,0.5l1.1,0.3l-0.7,1l0.2,0.5l1-1.4l1.6,0.4l-0.2-0.5l-1.1-0.3l0.7-0.9l-0.2-0.5l-1,1.3L180.5,62.4z"/>
<path d="M184.1,64.5l-2.7,0.7l0.1,0.4l2.7-0.7L184.1,64.5z"/>
<path d="M181.9,67.2l0.1,0.5l2.3-0.5l0.2,0.9l0.4-0.1l-0.4-2.3l-0.4,0.1l0.2,0.9L181.9,67.2z"/>
<path d="M182.4,72.8l0.4,0l0-1.3l0.8,0l0,1.3l0.4,0l0-1.3l0.7,0l0,1.3l0.4,0l0-1.8l-2.8,0.1L182.4,72.8z"/>
<path d="M182.4,73.4l0,0.5l0.9,0.7l-1,0.6l0,0.6l1.5-0.8l1.3,1l0-0.5l-0.9-0.7l1-0.6l0-0.5l-1.4,0.8L182.4,73.4z"/>
<path d="M184.8,76.8l-2.7-0.4l-0.1,0.5l2.7,0.4L184.8,76.8z"/>
<path d="M181.7,78.3l-0.1,0.5l2.3,0.5l-0.2,0.9l0.4,0.1l0.5-2.2l-0.4-0.1l-0.2,0.9L181.7,78.3z"/>
<path d="M179.9,83.7l0.4,0.2l0.5-1.2l0.7,0.3l-0.5,1.2l0.4,0.2l0.5-1.2l0.7,0.3l-0.5,1.2l0.4,0.2l0.7-1.6l-2.6-1L179.9,83.7z"/>
<path d="M179.7,84.2l-0.3,0.5l0.6,1l-1.2,0.1l-0.3,0.5l1.7-0.2l0.8,1.4l0.3-0.5l-0.5-1l1.2-0.1l0.3-0.5l-1.7,0.2L179.7,84.2z"/>
<path d="M180.6,88.3l-2.3-1.5l-0.3,0.4l2.3,1.5L180.6,88.3z"/>
<path d="M179,89.9l-1.9-1.4l-0.3,0.4l1.9,1.4l-0.5,0.7l0.3,0.2l1.4-1.9l-0.3-0.2L179,89.9z"/>
<path d="M173.3,92.8l0.3,0.3l0.9-0.9l0.6,0.6l-0.9,0.9l0.3,0.3l0.9-0.9l0.5,0.5l-0.9,0.9l0.3,0.3l1.3-1.2l-1.9-2L173.3,92.8z"/>
<path d="M172.9,93.1l-0.4,0.3l0.1,1.2l-1.1-0.4l-0.4,0.3l1.6,0.5l0.1,1.6l0.4-0.3l-0.1-1.2l1.1,0.4l0.4-0.3l-1.6-0.5L172.9,93.1z"/>
<path d="M170.5,95l-0.4,0.3l1.5,2.3l0.4-0.3L170.5,95z"/>
<path d="M170,98.1l-1.2-2.1l-0.4,0.2l1.2,2l-0.8,0.5l0.2,0.4l2-1.1l-0.2-0.4L170,98.1z"/>
<path d="M163.6,98.4l0.1,0.4l1.2-0.5l0.3,0.8l-1.2,0.5l0.1,0.4l1.2-0.5l0.2,0.7l-1.2,0.5l0.1,0.4l1.7-0.6l-0.9-2.6L163.6,98.4z"/>
<path d="M163.1,98.6l-0.5,0.1l-0.4,1.1l-0.9-0.8l-0.5,0.1l1.2,1.1l-0.5,1.6l0.5-0.1l0.4-1.1l0.9,0.8l0.5-0.1l-1.2-1.1L163.1,98.6z"
	/>
<path d="M160.2,99.3l-0.5,0.1l0.5,2.7l0.5-0.1L160.2,99.3z"/>
<path d="M158.5,101.9l-0.2-2.4l-0.5,0.1l0.2,2.4l-0.9,0.1l0,0.4l2.3-0.2l0-0.4L158.5,101.9z"/>
<path d="M152.6,99.7l0,0.4l1.3,0.1l-0.1,0.8l-1.3-0.1l0,0.4l1.3,0.1l-0.1,0.7l-1.3-0.1l0,0.4l1.8,0.1l0.2-2.8L152.6,99.7z"/>
<path d="M152,99.6l-0.5-0.1l-0.8,0.9l-0.5-1.1l-0.5-0.1l0.7,1.5l-1.1,1.2l0.5,0.1l0.8-0.9l0.5,1.1l0.5,0.1l-0.7-1.5L152,99.6z"/>
<path d="M149.1,99.1l-0.4-0.1l-0.7,2.7l0.4,0.1L149.1,99.1z"/>
<path d="M146.4,100.8l0.7-2.3l-0.4-0.1l-0.7,2.3l-0.9-0.3l-0.1,0.4l2.2,0.7l0.1-0.4L146.4,100.8z"/>
<path d="M142,96.4l-0.2,0.4l1.2,0.6l-0.4,0.7l-1.1-0.6l-0.2,0.4l1.1,0.6l-0.3,0.7l-1.2-0.6l-0.2,0.4l1.6,0.8l1.3-2.5L142,96.4z"/>
<path d="M141.5,96.1l-0.4-0.3l-1.1,0.5l0-1.2l-0.5-0.3l0,1.7l-1.5,0.7l0.4,0.3l1.1-0.5l0,1.2l0.5,0.3l0-1.7L141.5,96.1z"/>
<path d="M139,94.4l-0.4-0.3l-1.7,2.2l0.4,0.3L139,94.4z"/>
<path d="M137.5,93.2l-0.3-0.3l-1.6,1.8l-0.7-0.6l-0.3,0.3l1.7,1.5l0.3-0.3l-0.7-0.6L137.5,93.2z"/>
<path d="M133.3,89.3l0.8,1l-0.6,0.5l-0.8-1l-0.3,0.3l0.8,1l-0.6,0.5l-0.8-1l-0.3,0.3l1.1,1.4l2.2-1.8l-1.1-1.4L133.3,89.3z"/>
<path d="M133.3,88.6l-0.3-0.5l-1.2,0l0.5-1.1l-0.3-0.5l-0.7,1.6l-1.6,0l0.3,0.4l1.2,0l-0.5,1.1l0.3,0.5l0.7-1.5L133.3,88.6z"/>
<path d="M131.5,85.7l-2.4,1.3l0.2,0.4l2.4-1.3L131.5,85.7z"/>
<path d="M130.7,83.9l-2.2,1l-0.4-0.8l-0.4,0.2l0.9,2.1l0.4-0.2l-0.4-0.8l2.2-1L130.7,83.9z"/>
<path d="M128.6,79.1l0.3,1.3l-0.8,0.2l-0.3-1.3l-0.4,0.1l0.3,1.3l-0.7,0.2l-0.3-1.3l-0.4,0.1l0.4,1.7l2.7-0.7l-0.4-1.7L128.6,79.1z"
	/>
<path d="M128.8,77.9l-1.1-0.5l0.9-0.8l-0.1-0.5l-1.2,1.2l-1.5-0.7l0.1,0.5l1.1,0.5l-0.9,0.8l0.1,0.5l1.2-1.1l1.5,0.7L128.8,77.9z"/>
<path d="M128.5,75l-2.8,0.3l0,0.5l2.8-0.3L128.5,75z"/>
<path d="M128.4,73.5l0-0.5l-2.4,0l0-0.9l-0.4,0l0,2.3l0.4,0l0-0.9L128.4,73.5z"/>
<path d="M128.9,67.8l-0.4-0.1l-0.2,1.3l-0.8-0.1l0.2-1.3l-0.4-0.1l-0.2,1.3l-0.7-0.1l0.2-1.3l-0.4-0.1l-0.3,1.8l2.7,0.4L128.9,67.8z
	"/>
<path d="M129,67.3l0.1-0.5l-0.8-0.9l1.1-0.4l0.1-0.5l-1.6,0.6l-1.1-1.2l-0.1,0.5l0.8,0.9l-1.1,0.4l-0.1,0.5l1.6-0.6L129,67.3z"/>
<path d="M129.9,63.9l-2.6-0.9l-0.2,0.4l2.6,0.9L129.9,63.9z"/>
<path d="M128.3,61.6l2.2,0.9l0.2-0.4l-2.2-0.9l0.4-0.8l-0.4-0.2l-0.9,2.1l0.4,0.2L128.3,61.6z"/>
<path d="M133.2,57.5l-0.3-0.2l-0.7,1.1l-0.7-0.4l0.7-1.1l-0.3-0.2l-0.7,1.1l-0.6-0.4l0.7-1.1l-0.3-0.2l-1,1.5l2.3,1.5L133.2,57.5z"
	/>
<path d="M133.5,57l0.3-0.4l-0.4-1.1l1.2,0.1l0.3-0.4l-1.7-0.1l-0.5-1.6l-0.3,0.4l0.4,1.1l-1.2-0.1l-0.3,0.4l1.7,0.1L133.5,57z"/>
<path d="M133.7,52.5l-0.3,0.3l2,1.9l0.3-0.3L133.7,52.5z"/>
<path d="M135.2,51.6l1.6,1.7l0.3-0.3l-1.6-1.7l0.7-0.6l-0.3-0.3l-1.7,1.6l0.3,0.3L135.2,51.6z"/>
<path d="M141.3,49.7l-0.2-0.3l-1.1,0.7l-0.4-0.7l1.1-0.7l-0.2-0.3l-1.1,0.7l-0.4-0.6l1.1-0.7l-0.2-0.3l-1.5,1l1.5,2.3L141.3,49.7z"
	/>
<path d="M141.7,49.4l0.5-0.3l0.1-1.2l1,0.6l0.5-0.3l-1.5-0.8l0.2-1.6l-0.5,0.2l-0.1,1.2l-1-0.6l-0.5,0.3l1.5,0.8L141.7,49.4z"/>
<path d="M143.8,45.3l-0.4,0.2l1.1,2.5l0.4-0.2L143.8,45.3z"/>
<path d="M145.5,45.1l0.8,2.2l0.4-0.2l-0.8-2.2l0.9-0.3l-0.1-0.4l-2.2,0.8l0.1,0.4L145.5,45.1z"/>
<path d="M151.8,45.9l-0.1-0.4l-1.3,0.2l-0.1-0.8l1.3-0.2l-0.1-0.4l-1.3,0.2l-0.1-0.7l1.3-0.2l-0.1-0.4l-1.7,0.3l0.5,2.7L151.8,45.9z
	"/>
<path d="M152.3,45.8l0.5,0l0.6-1l0.7,0.9l0.5,0l-1-1.3l0.8-1.4l-0.5,0l-0.6,1l-0.7-0.9l-0.5,0l1,1.3L152.3,45.8z"/>
<path d="M155.8,42.9l-0.5,0l0,2.8l0.5,0L155.8,42.9z"/>
<path d="M158.9,43.4l0-0.4l-2.3-0.2l0,0.4l0.9,0.1l-0.2,2.4l0.5,0l0.2-2.4L158.9,43.4z"/>
<path d="M162.9,46.6l0.1-0.4l-1.3-0.3l0.2-0.8l1.3,0.3l0.1-0.4l-1.3-0.3l0.2-0.7l1.3,0.3l0.1-0.4l-1.7-0.4l-0.7,2.7L162.9,46.6z"/>
<path d="M163.4,46.7l0.5,0.2l1-0.7l0.3,1.2l0.5,0.2l-0.4-1.6l1.3-1l-0.5-0.2l-0.9,0.7l-0.3-1.1l-0.5-0.2l0.4,1.6L163.4,46.7z"/>
<path d="M167.8,45.4l-0.4-0.2l-1.1,2.5l0.4,0.2L167.8,45.4z"/>
<path d="M170.5,46.8l-2-1.1l-0.2,0.4l0.8,0.4l-1.1,2.1l0.4,0.2l1.1-2.1l0.8,0.4L170.5,46.8z"/>
<circle class="st0" cx="36.8" cy="126.6" r="33.6"/>
<path class="st1" d="M6.9,125.3l0.2,0l0,0.9l0.6,0l0-0.8l0.2,0l0,0.8l0.6,0l0-0.9l0.2,0l0,1.1l-1.8,0L6.9,125.3z"/>
<path class="st1" d="M8.9,123.4l0,0.3l-0.8,0.4l0.7,0.5l0,0.3l-0.9-0.7L7,124.8l0-0.3l0.7-0.4l-0.7-0.5l0-0.3l0.8,0.7L8.9,123.4z"/>
<path class="st1" d="M7.4,121.5l0.2,0l-0.1,0.9l0.6,0.1l0.1-0.8l0.2,0l-0.1,0.8l0.6,0.1l0.1-0.9l0.2,0L9,122.9l-1.8-0.3L7.4,121.5z"
	/>
<path class="st1" d="M9,119.8l0.5,0.1l0,0.2L9,120.1c-0.2,0-0.3,0-0.4,0.3l-0.1,0.5l0.8,0.2l0,0.2l-1.8-0.4l0.1-0.7
	c0.1-0.4,0.3-0.6,0.6-0.5c0.2,0,0.3,0.2,0.4,0.3C8.7,119.8,8.9,119.8,9,119.8z M8.4,120.4c0.1-0.3,0-0.4-0.2-0.5
	c-0.2,0-0.3,0.1-0.4,0.4l-0.1,0.4l0.6,0.1L8.4,120.4z"/>
<path class="st1" d="M8.9,117.5l-0.1,0.2c-0.2,0-0.5,0.1-0.5,0.4c-0.1,0.4,0.1,0.7,0.5,0.8c0.4,0.1,0.8-0.1,0.9-0.4
	c0.1-0.3,0-0.5-0.3-0.7l0.1-0.2c0.4,0.2,0.5,0.6,0.4,0.9c-0.1,0.5-0.6,0.7-1.1,0.6C8.3,119,8,118.5,8.2,118
	C8.3,117.7,8.6,117.4,8.9,117.5z"/>
<path class="st1" d="M8.7,116.4l1.7,0.6l-0.1,0.2l-1.7-0.6L8.7,116.4z"/>
<path class="st1" d="M10,116.3l0.1-0.2c0.2,0.1,0.5-0.1,0.6-0.3c0.1-0.2,0-0.4-0.1-0.5c-0.5-0.2-0.6,1-1.2,0.7
	c-0.3-0.1-0.3-0.4-0.2-0.8c0.1-0.3,0.5-0.5,0.8-0.4L9.8,115c-0.2-0.1-0.4,0.1-0.5,0.3c-0.1,0.2,0,0.4,0.1,0.5c0.4,0.2,0.5-1,1.2-0.7
	c0.3,0.1,0.4,0.5,0.2,0.8C10.8,116.2,10.4,116.4,10,116.3z"/>
<path class="st1" d="M10.2,112.9l0.2,0.1l-0.4,0.8l0.5,0.3l0.4-0.7l0.2,0.1l-0.4,0.7l0.6,0.3l0.4-0.8l0.2,0.1l-0.5,1l-1.6-0.8
	L10.2,112.9z"/>
<path class="st1" d="M12.2,109.6l1.2,1.5l-0.1,0.2l-1.5-0.4l1,1.2l-0.1,0.2l-1.8-0.5l0.1-0.2l1.5,0.4l-1-1.2l0.1-0.2l1.5,0.4l-1-1.2
	L12.2,109.6z"/>
<path class="st1" d="M13.3,108.1l0.1-0.2l1.4,1.1l-0.1,0.2l-0.7-0.5l-0.6,0.8l0.7,0.5l-0.1,0.2l-1.4-1.1l0.1-0.2l0.6,0.5l0.6-0.8
	L13.3,108.1z"/>
<path class="st1" d="M14.7,106.4l0.2,0.1l-0.6,0.7l0.4,0.4l0.5-0.6l0.2,0.1l-0.5,0.6l0.5,0.4l0.6-0.7l0.2,0.1l-0.7,0.8l-1.4-1.2
	L14.7,106.4z"/>
<path class="st1" d="M17,105.9l0.4,0.4l-0.2,0.2l-0.3-0.3c-0.1-0.1-0.3-0.1-0.4,0l-0.4,0.4l0.6,0.6l-0.2,0.2l-1.3-1.3l0.5-0.5
	c0.3-0.3,0.6-0.3,0.8-0.1c0.1,0.1,0.2,0.3,0.1,0.5C16.7,105.7,16.9,105.8,17,105.9z M16.2,106c0.2-0.2,0.2-0.4,0.1-0.5
	c-0.1-0.1-0.3-0.1-0.5,0.1l-0.3,0.3l0.4,0.4L16.2,106z"/>
<path class="st1" d="M17.5,103.7l0.1,0.2l-0.7,0.6l0.4,0.4l0.6-0.5l0.1,0.2l-0.6,0.5l0.4,0.5l0.7-0.6l0.1,0.2l-0.8,0.7l-1.2-1.4
	L17.5,103.7z"/>
<path class="st1" d="M20.8,103.4l-0.4-0.2l-0.7,0.5l0.1,0.4l-0.2,0.1l-0.5-1.9l0.2-0.1l1.7,1L20.8,103.4z M19.6,103.5l0.6-0.4
	l-0.8-0.5L19.6,103.5z"/>
<path class="st1" d="M21.4,100.9l0.2-0.1l1,1.5l-0.2,0.1l-1.4-0.7l-0.1-0.1l0.8,1.3l-0.2,0.1l-1-1.5l0.2-0.1L22,102l0.2,0.1
	L21.4,100.9z"/>
<path class="st1" d="M22.8,100.1c0.5-0.3,1-0.1,1.2,0.4c0.2,0.5,0.1,1-0.4,1.2l-0.5,0.3l-0.8-1.6L22.8,100.1z M22.6,100.4l0.7,1.3
	l0.3-0.2c0.4-0.2,0.5-0.6,0.3-1c-0.2-0.4-0.6-0.5-0.9-0.3L22.6,100.4z"/>
<path class="st1" d="M27.1,98.2l0.1,1.9l-0.2,0.1L26,98.9l0.1,1.5l-0.2,0.1l-1.2-1.5L25,99l1,1.2l-0.1-1.6l0.2-0.1l1,1.2l-0.1-1.6
	L27.1,98.2z"/>
<path class="st1" d="M28.9,97.6l0.2-0.1l0.5,1.8l-0.2,0.1l-0.2-0.8l-1,0.3l0.2,0.8l-0.2,0.1L27.7,98l0.2-0.1l0.2,0.8l1-0.3
	L28.9,97.6z"/>
<path class="st1" d="M31,97.1l0,0.2l-0.9,0.2l0.1,0.6l0.8-0.2l0,0.2l-0.8,0.2l0.1,0.6l0.9-0.2l0,0.2l-1.1,0.2l-0.4-1.8L31,97.1z"/>
<path class="st1" d="M32.8,96.8l0.2,0l0.3,1.8l-0.3,0l-1-1.2L32,97.3l0.2,1.5l-0.2,0L31.7,97l0.3,0l1,1.2l0.1,0.1L32.8,96.8z"/>
<path class="st1" d="M35.9,96.6l-0.6,1.1l0,0.7l-0.2,0l0-0.7l-0.7-1.1l0.3,0l0.5,0.8l0.4-0.9L35.9,96.6z"/>
<path class="st1" d="M36.3,97.4c0-0.5,0.4-0.9,0.9-0.9c0.5,0,0.9,0.4,0.9,1c0,0.5-0.4,0.9-0.9,0.9C36.6,98.4,36.3,98,36.3,97.4z
	 M37.8,97.5c0-0.4-0.3-0.7-0.6-0.7c-0.4,0-0.6,0.3-0.7,0.7c0,0.4,0.3,0.7,0.6,0.7C37.5,98.2,37.8,97.9,37.8,97.5z"/>
<path class="st1" d="M39.2,98.5c-0.4,0-0.6-0.3-0.6-0.7l0.1-1.2l0.2,0l-0.1,1.2c0,0.3,0.1,0.5,0.4,0.5l0.1,0c0.3,0,0.4-0.1,0.5-0.4
	l0.1-1.2l0.2,0L40,97.9c0,0.4-0.3,0.6-0.7,0.6L39.2,98.5z"/>
<path class="st1" d="M43.9,97.4L43,99.1l-0.2,0l-0.1-1.5l-0.7,1.4l-0.2,0l-0.2-1.9l0.2,0l0.1,1.6l0.7-1.4l0.2,0l0.1,1.6l0.7-1.4
	L43.9,97.4z"/>
<path class="st1" d="M45.1,99.6l-0.1-0.5l-0.9-0.3l-0.3,0.4l-0.2-0.1l1.2-1.5l0.2,0.1l0.2,2L45.1,99.6z M44.3,98.7l0.7,0.2l-0.1-1
	L44.3,98.7z"/>
<path class="st1" d="M47.5,98.5l0.2,0.1l-0.6,1.7l-0.3-0.1l-0.3-1.5l0-0.2L46,99.9l-0.2-0.1l0.6-1.7l0.3,0.1l0.3,1.5l0,0.2
	L47.5,98.5z"/>
<path class="st1" d="M49.6,99.4l-0.1,0.2L49,99.4l-0.7,1.5l-0.2-0.1l0.7-1.5L48.2,99l0.1-0.2L49.6,99.4z"/>
<path class="st1" d="M53.1,101.4l-0.1,0.2l-0.7-0.5l-0.3,0.5l0.7,0.4l-0.1,0.2l-0.7-0.4l-0.3,0.5l0.7,0.5l-0.1,0.2l-0.9-0.6l1-1.6
	L53.1,101.4z"/>
<path class="st1" d="M53.7,104.1l-0.2-0.2l0-0.9l-0.8,0.3l-0.2-0.2l1-0.4l0-1.1l0.2,0.2l0,0.8l0.8-0.3l0.2,0.2l-1,0.4L53.7,104.1z"
	/>
<path class="st1" d="M56.1,103.7l-0.1,0.2l-0.7-0.6l-0.4,0.5l0.6,0.5l-0.1,0.2l-0.6-0.5l-0.4,0.5l0.7,0.6l-0.1,0.2l-0.9-0.7l1.1-1.4
	L56.1,103.7z"/>
<path class="st1" d="M56.8,106l-0.4,0.4l-0.2-0.2l0.3-0.4c0.1-0.1,0.1-0.3,0-0.4l-0.4-0.4l-0.5,0.6l-0.2-0.2l1.2-1.3l0.5,0.5
	c0.3,0.3,0.3,0.6,0.1,0.8c-0.1,0.1-0.3,0.2-0.5,0.1C56.9,105.7,56.9,105.9,56.8,106z M56.6,105.2c0.2,0.2,0.4,0.2,0.5,0.1
	c0.1-0.1,0.1-0.3-0.1-0.5l-0.3-0.3l-0.4,0.5L56.6,105.2z"/>
<path class="st1" d="M58.8,107.1l-0.2-0.2c0.1-0.2,0.1-0.5-0.1-0.7c-0.3-0.3-0.7-0.3-1,0c-0.3,0.3-0.3,0.7-0.1,1
	c0.2,0.2,0.5,0.2,0.7,0.1l0.2,0.2c-0.3,0.2-0.8,0.2-1-0.1c-0.3-0.4-0.3-0.9,0.1-1.3c0.4-0.4,0.9-0.4,1.3,0
	C59,106.4,59,106.8,58.8,107.1z"/>
<path class="st1" d="M59.8,107.4l-1.4,1.2l-0.1-0.2l1.4-1.2L59.8,107.4z"/>
<path class="st1" d="M59.3,108.7l0.1,0.2c-0.2,0.2-0.2,0.5,0,0.7c0.1,0.2,0.3,0.2,0.5,0.1c0.4-0.3-0.5-1,0-1.4
	c0.2-0.2,0.5-0.1,0.8,0.2c0.2,0.3,0.2,0.7,0,0.9l-0.1-0.2c0.2-0.1,0.1-0.4,0-0.6c-0.1-0.2-0.3-0.2-0.4-0.1c-0.4,0.3,0.6,1,0,1.4
	c-0.3,0.2-0.6,0.1-0.8-0.2C59,109.3,59,108.9,59.3,108.7z"/>
<path class="st1" d="M62.1,110.5l-0.2,0.1l-0.5-0.7l-0.5,0.3l0.5,0.7l-0.2,0.1l-0.5-0.7l-0.5,0.4l0.5,0.7l-0.2,0.1l-0.6-0.9l1.5-1
	L62.1,110.5z"/>
<path class="st1" d="M63.9,113.9l-1.9,0.3l-0.1-0.2l1.1-1.1l-1.5,0.3l-0.1-0.2l1.3-1.3l0.1,0.2l-1.1,1.1l1.5-0.3l0.1,0.2l-1.1,1.1
	l1.5-0.3L63.9,113.9z"/>
<path class="st1" d="M64.7,115.6l0.1,0.2l-1.7,0.7l-0.1-0.2l0.8-0.3l-0.4-1l-0.8,0.3l-0.1-0.2l1.7-0.7l0.1,0.2l-0.7,0.3l0.4,1
	L64.7,115.6z"/>
<path class="st1" d="M65.4,117.7l-0.2,0.1l-0.3-0.8l-0.5,0.2l0.3,0.8l-0.2,0.1l-0.3-0.8l-0.6,0.2l0.3,0.8l-0.2,0.1l-0.4-1.1l1.7-0.6
	L65.4,117.7z"/>
<path class="st1" d="M64.7,120l-0.5,0.1l-0.1-0.2l0.5-0.1c0.2,0,0.3-0.2,0.2-0.4l-0.1-0.5l-0.8,0.2l-0.1-0.2l1.8-0.5l0.2,0.6
	c0.1,0.4,0,0.7-0.3,0.8c-0.2,0.1-0.4,0-0.5-0.1C64.9,119.8,64.8,119.9,64.7,120z M64.9,119.2c0.1,0.3,0.2,0.4,0.4,0.3
	c0.2-0.1,0.3-0.2,0.2-0.5l-0.1-0.4l-0.6,0.2L64.9,119.2z"/>
<path class="st1" d="M66.3,121.5l-0.2,0l-0.2-0.9l-0.6,0.1l0.2,0.8l-0.2,0l-0.2-0.8l-0.6,0.1l0.2,0.9l-0.2,0l-0.2-1.1l1.8-0.3
	L66.3,121.5z"/>
<path class="st1" d="M64.8,124.5l0.4-0.2l-0.1-0.9l-0.4-0.1l0-0.2l1.9,0.6l0,0.2l-1.7,0.9L64.8,124.5z M65.4,123.4l0.1,0.7l0.9-0.5
	L65.4,123.4z"/>
<path class="st1" d="M66.7,126.3l0,0.2l-1.8,0.1l0-0.3l1.3-0.8l0.1-0.1l-1.5,0l0-0.2l1.8-0.1l0,0.3l-1.3,0.8l-0.1,0.1L66.7,126.3z"
	/>
<path class="st1" d="M66.7,127.9c0,0.6-0.4,0.9-0.9,0.9c-0.5,0-0.9-0.4-0.9-1l0-0.6l1.8,0.1L66.7,127.9z M66.5,127.6l-1.4-0.1l0,0.4
	c0,0.4,0.3,0.7,0.7,0.7c0.4,0,0.7-0.2,0.7-0.7L66.5,127.6z"/>
<path class="st1" d="M66.2,132.6l-1.7-0.8l0-0.2l1.5-0.2l-1.4-0.7l0-0.2l1.9-0.3l0,0.2l-1.5,0.2l1.4,0.7l0,0.2l-1.5,0.2l1.4,0.7
	L66.2,132.6z"/>
<path class="st1" d="M65.7,134.5l-0.1,0.2l-1.8-0.4l0.1-0.2l0.8,0.2l0.2-1l-0.8-0.2l0.1-0.2l1.8,0.4l-0.1,0.2l-0.8-0.2l-0.2,1
	L65.7,134.5z"/>
<path class="st1" d="M65.1,136.5l-0.2-0.1l0.3-0.8l-0.6-0.2l-0.3,0.8l-0.2-0.1l0.3-0.8l-0.6-0.2l-0.3,0.8l-0.2-0.1l0.3-1.1l1.7,0.6
	L65.1,136.5z"/>
<path class="st1" d="M64.4,138.3l-0.1,0.2l-1.7-0.7l0.1-0.3l1.5-0.3l0.2,0l-1.4-0.6l0.1-0.2l1.7,0.7l-0.1,0.3l-1.5,0.3l-0.2,0
	L64.4,138.3z"/>
<path class="st1" d="M63.1,141.1l-0.7-1.1l-0.7-0.3l0.1-0.2l0.7,0.3l1.2-0.1l-0.1,0.2l-1,0l0.5,0.8L63.1,141.1z"/>
<path class="st1" d="M62.2,141c0.5,0.3,0.6,0.8,0.4,1.2c-0.3,0.4-0.8,0.6-1.2,0.3c-0.5-0.3-0.6-0.8-0.4-1.2
	C61.2,140.8,61.7,140.7,62.2,141z M61.4,142.3c0.4,0.2,0.8,0.1,1-0.2c0.2-0.3,0.1-0.7-0.3-0.9c-0.4-0.2-0.8-0.1-1,0.2
	C60.9,141.7,61,142.1,61.4,142.3z"/>
<path class="st1" d="M59.8,143c0.2-0.3,0.6-0.4,0.9-0.1l0.9,0.7l-0.1,0.2l-0.9-0.7c-0.2-0.2-0.5-0.1-0.6,0.1l-0.1,0.1
	c-0.2,0.2-0.1,0.4,0.1,0.6l0.9,0.7l-0.1,0.2l-0.9-0.7c-0.3-0.2-0.4-0.6-0.2-0.9L59.8,143z"/>
<path class="st1" d="M58.3,147.7l-1-1.6l0.2-0.2l1.4,0.7l-0.8-1.3l0.2-0.2l1.7,0.8l-0.2,0.2l-1.4-0.7l0.8,1.3l-0.2,0.2l-1.4-0.7
	l0.8,1.3L58.3,147.7z"/>
<path class="st1" d="M55.8,147.6l0.4,0.2l0.7-0.6l-0.2-0.4l0.2-0.2l0.7,1.8l-0.2,0.2l-1.8-0.8L55.8,147.6z M57,147.4l-0.5,0.5
	l0.9,0.4L57,147.4z"/>
<path class="st1" d="M55.5,150.3l-0.2,0.1l-1.2-1.4l0.2-0.2l1.5,0.5l0.2,0.1l-0.9-1.1l0.2-0.1l1.2,1.4l-0.2,0.2l-1.5-0.5l-0.2-0.1
	L55.5,150.3z"/>
<path class="st1" d="M53.7,151.6l-0.1-0.2l0.5-0.4l-0.9-1.3l0.2-0.1l0.9,1.3l0.5-0.4l0.1,0.2L53.7,151.6z"/>
<path class="st1" d="M50.3,153.7l-0.1-0.2l0.8-0.4l-0.3-0.5l-0.7,0.4l-0.1-0.2l0.7-0.4l-0.3-0.6l-0.8,0.4l-0.1-0.2l1-0.5l0.8,1.6
	L50.3,153.7z"/>
<path class="st1" d="M47.7,152.9l0.2-0.1l0.7,0.5l0.1-0.9l0.2-0.1l-0.2,1.1l0.9,0.6l-0.2,0.1l-0.7-0.5l-0.1,0.8l-0.2,0.1l0.2-1.1
	L47.7,152.9z"/>
<path class="st1" d="M46.8,155.2l-0.1-0.2l0.8-0.3l-0.2-0.5l-0.8,0.3l-0.1-0.2l0.8-0.3l-0.2-0.6l-0.8,0.3l-0.1-0.2l1-0.4l0.6,1.7
	L46.8,155.2z"/>
<path class="st1" d="M44.5,154.6l-0.2-0.5l0.2-0.1l0.1,0.5c0.1,0.2,0.2,0.3,0.4,0.2l0.5-0.1l-0.2-0.8l0.2-0.1l0.5,1.7l-0.6,0.2
	c-0.4,0.1-0.7,0-0.8-0.3c-0.1-0.2,0-0.4,0.1-0.5C44.7,154.8,44.6,154.7,44.5,154.6z M45.3,154.8c-0.3,0.1-0.4,0.2-0.3,0.4
	c0.1,0.2,0.2,0.3,0.5,0.2l0.4-0.1l-0.2-0.6L45.3,154.8z"/>
<path class="st1" d="M42.5,155.8l0.2-0.1c0.1,0.2,0.4,0.3,0.6,0.3c0.4-0.1,0.6-0.4,0.5-0.9c-0.1-0.4-0.4-0.7-0.8-0.6
	c-0.3,0.1-0.4,0.3-0.4,0.6l-0.2,0.1c0-0.4,0.2-0.7,0.6-0.8c0.5-0.1,0.9,0.2,1.1,0.7c0.1,0.5-0.2,1-0.7,1.1
	C43,156.3,42.7,156.1,42.5,155.8z"/>
<path class="st1" d="M41.7,156.5l-0.3-1.8l0.2,0l0.3,1.8L41.7,156.5z"/>
<path class="st1" d="M41,155.4l-0.2,0c0-0.3-0.3-0.4-0.6-0.4c-0.2,0-0.4,0.2-0.4,0.4c0.1,0.5,1.1,0,1.2,0.7c0,0.3-0.2,0.5-0.6,0.6
	c-0.4,0-0.7-0.1-0.7-0.5l0.2,0c0,0.2,0.3,0.3,0.5,0.3c0.2,0,0.4-0.2,0.4-0.3c-0.1-0.5-1.1,0-1.2-0.7c0-0.3,0.2-0.6,0.6-0.6
	C40.5,154.8,40.9,155,41,155.4z"/>
<path class="st1" d="M38,156.9l0-0.2l0.9-0.1l0-0.6l-0.8,0l0-0.2l0.8,0l0-0.6l-0.9,0l0-0.2L39,155l0.1,1.8L38,156.9z"/>
<path class="st1" d="M34.1,156.8l0.6-1.8l0.2,0l0.4,1.5l0.5-1.5l0.2,0l0.5,1.9l-0.2,0l-0.4-1.5l-0.5,1.5l-0.2,0l-0.4-1.5l-0.5,1.5
	L34.1,156.8z"/>
<path class="st1" d="M32.3,156.6l-0.2,0l0.2-1.8l0.2,0l-0.1,0.8l1,0.1l0.1-0.8l0.2,0l-0.2,1.8l-0.2,0l0.1-0.8l-1-0.1L32.3,156.6z"/>
<path class="st1" d="M30.2,156.1l0-0.2l0.9,0.2l0.1-0.6l-0.8-0.2l0-0.2l0.8,0.2l0.1-0.6l-0.9-0.2l0-0.2l1.1,0.2l-0.4,1.8L30.2,156.1
	z"/>
<path class="st1" d="M28.6,154.4l0.1-0.5l0.2,0.1l-0.1,0.5c0,0.2,0,0.3,0.2,0.4l0.5,0.1l0.2-0.8l0.2,0.1l-0.5,1.8l-0.6-0.2
	c-0.4-0.1-0.6-0.4-0.5-0.7c0.1-0.2,0.2-0.3,0.4-0.3C28.5,154.7,28.5,154.5,28.6,154.4z M29,155c-0.3-0.1-0.4,0-0.5,0.2
	c-0.1,0.2,0.1,0.3,0.3,0.4l0.4,0.1l0.2-0.6L29,155z"/>
<path class="st1" d="M26.4,155l0.1-0.2l0.8,0.3l0.2-0.6l-0.8-0.3l0.1-0.2l0.8,0.3l0.2-0.6l-0.8-0.3l0.1-0.2l1,0.4l-0.6,1.7L26.4,155
	z"/>
<path class="st1" d="M24.6,152.3l0,0.5l0.8,0.4l0.3-0.3l0.2,0.1l-1.4,1.3l-0.2-0.1l0.1-2L24.6,152.3z M25.3,153.3l-0.7-0.3l0,1
	L25.3,153.3z"/>
<path class="st1" d="M22.1,153l-0.2-0.1l0.9-1.6l0.2,0.1l0.1,1.6l0,0.2l0.7-1.3l0.2,0.1l-0.9,1.6l-0.2-0.1l-0.1-1.6l0-0.2L22.1,153z
	"/>
<path class="st1" d="M20.7,152.1c-0.5-0.3-0.6-0.8-0.3-1.3c0.3-0.4,0.8-0.6,1.3-0.3l0.5,0.3l-1,1.5L20.7,152.1z M21.1,152.2l0.8-1.2
	l-0.3-0.2c-0.4-0.2-0.7-0.1-1,0.2c-0.2,0.4-0.2,0.7,0.2,1L21.1,152.2z"/>
<path class="st1" d="M16.9,149.3l1.6-1.1l0.2,0.2l-0.6,1.4l1.3-0.9l0.2,0.2l-0.7,1.8l-0.2-0.2l0.6-1.5l-1.3,0.9l-0.2-0.2l0.6-1.5
	l-1.3,0.9L16.9,149.3z"/>
<path class="st1" d="M15.6,148l-0.2-0.2l1.3-1.3l0.2,0.2l-0.6,0.6L17,148l0.6-0.6l0.2,0.2l-1.3,1.3l-0.2-0.2l0.5-0.6l-0.7-0.7
	L15.6,148z"/>
<path class="st1" d="M14.1,146.4l0.1-0.1l0.6,0.7l0.4-0.4l-0.5-0.6l0.1-0.1l0.5,0.6l0.5-0.4l-0.6-0.7l0.1-0.1l0.7,0.8l-1.3,1.2
	L14.1,146.4z"/>
<path class="st1" d="M13,144.9l-0.1-0.2l1.4-1.1l0.2,0.2l-0.6,1.5l-0.1,0.2l1.2-0.9l0.1,0.2l-1.4,1.1l-0.2-0.2l0.6-1.5l0.1-0.2
	L13,144.9z"/>
<path class="st1" d="M11.2,142.4l1.2-0.1l0.6-0.4l0.1,0.2l-0.6,0.4l-0.6,1.1l-0.1-0.2l0.5-0.9l-1,0.1L11.2,142.4z"/>
<path class="st1" d="M11.8,141.6c-0.5,0.3-1,0.1-1.2-0.3c-0.2-0.4-0.1-1,0.4-1.2c0.5-0.3,1-0.1,1.2,0.3
	C12.5,140.8,12.3,141.3,11.8,141.6z M11.1,140.2c-0.4,0.2-0.5,0.6-0.3,0.9c0.2,0.3,0.6,0.4,0.9,0.2c0.4-0.2,0.5-0.6,0.3-0.9
	C11.9,140.1,11.5,140,11.1,140.2z"/>
<path class="st1" d="M11.3,138.5c0.2,0.4,0,0.7-0.3,0.8l-1.1,0.5l-0.1-0.2l1.1-0.5c0.3-0.1,0.3-0.3,0.2-0.6l0-0.1
	c-0.1-0.2-0.3-0.3-0.6-0.2l-1.1,0.5l-0.1-0.2l1.1-0.5c0.4-0.2,0.7-0.1,0.8,0.3L11.3,138.5z"/>
<path class="st1" d="M8,134.9l1.9,0l0.1,0.2L8.7,136l1.5,0l0.1,0.2l-1.5,1.1L8.7,137l1.3-0.9l-1.6,0L8.3,136l1.3-0.9l-1.6,0L8,134.9
	z"/>
<path class="st1" d="M9.4,132.7L9,133l0.2,0.9l0.5,0.1l0.1,0.2l-1.9-0.3l-0.1-0.2l1.6-1.2L9.4,132.7z M9,133.9l-0.2-0.7L8,133.7
	L9,133.9z"/>
<path class="st1" d="M7.2,131.1l0-0.2l1.8-0.3l0,0.3l-1.2,1L7.7,132l1.5-0.2l0,0.2l-1.8,0.3l0-0.3l1.2-1l0.1-0.1L7.2,131.1z"/>
<path class="st1" d="M7,128.8l0.2,0l0.1,0.6l1.6-0.2l0,0.2l-1.6,0.2l0.1,0.6l-0.2,0L7,128.8z"/>
<path class="st1" d="M38.6,112c-0.4-0.1-0.8-0.1-1.2-0.2C37.8,111.9,38.2,111.9,38.6,112c0.2,0,0.4,0.1,0.6,0.1
	C38.9,112,38.8,112,38.6,112z"/>
<path class="st1" d="M35.4,115.8c0.8,0.5,1.6,0.9,2.3,1.3c1.6,0.9,3.1,1.8,4.7,2.7c0.3,0.2,0.4,0.4,0.3,0.7
	c-0.1,0.3-0.1,0.6-0.1,0.9c-0.8-0.5-1.5-0.9-2.2-1.3c-0.2-0.1-0.5-0.2-0.7-0.1c-1.5,0.4-3,0.9-4.6,1.3c-0.1,0-0.3,0-0.5,0.1
	c0.1-0.4,0.1-0.8,0.2-1.2c0-0.1,0.2-0.3,0.4-0.3c1-0.3,1.9-0.5,2.9-0.8c0.1,0,0.2-0.1,0.3-0.2c-0.1-0.1-0.2-0.2-0.3-0.3
	c-0.8-0.4-1.6-0.9-2.5-1.3c-0.3-0.2-0.5-0.4-0.4-0.8C35.3,116.4,35.3,116.2,35.4,115.8z"/>
<path class="st1" d="M36.3,107.8c-0.2,1.6,0.6,2.8,2.4,3.1c1.6,0.2,2.9-0.7,3.1-2.3c0.2-1.6-0.7-2.9-2.3-3.1
	C37.8,105.2,36.5,106.2,36.3,107.8z M40.6,107.8c0.3,1.1-0.5,2.1-1.8,1.8c-0.8-0.1-1.3-0.6-1.4-1.2c-0.1-0.7,0.2-1.2,0.8-1.5
	C39.2,106.5,40.4,107,40.6,107.8z"/>
<path class="st1" d="M31.9,141.8c-0.2,1.7,0.8,2.9,2.4,3.1c1.6,0.2,2.8-0.8,3-2.4c0.2-1.6-0.8-2.9-2.4-3.1
	C33.4,139.2,32.1,140.1,31.9,141.8z M36.3,142.4c-0.1,0.8-0.8,1.3-1.8,1.2c-1-0.1-1.5-0.8-1.4-1.6c0.1-0.8,0.8-1.3,1.8-1.2
	C35.8,140.8,36.4,141.5,36.3,142.4z"/>
<path class="st1" d="M38,133.5c0.4,0,0.5,0.2,0.4,0.5c0,0.1,0,0.2,0,0.3c0,0.4-0.1,0.5-0.5,0.4c-0.1,0-0.2,0-0.4,0
	c0.1,0.2,0.2,0.3,0.3,0.4c0.6,0.7,0.6,1.5,0.2,2.3c-0.4,0.7-1.1,1-1.9,0.9c-1.1-0.1-2.1-0.2-3.1-0.4c-0.1,0-0.3-0.2-0.3-0.3
	c0-0.9,0-1,1-0.8c0.7,0.1,1.5,0.2,2.2,0.3c0.6,0.1,1.1-0.3,1.3-0.8c0.2-0.5,0.1-1.2-0.4-1.5c-0.3-0.2-0.7-0.3-1.1-0.4
	c-0.7-0.1-1.4-0.2-2.2-0.3c-0.3,0-0.4-0.2-0.4-0.5c0.1-0.9,0.1-0.9,0.9-0.7C35.3,133.1,36.6,133.3,38,133.5z"/>
<path class="st1" d="M39.5,122.9c0.3,0,0.3,0.2,0.3,0.4c0,0.9-0.1,0.9-0.9,0.8c-0.7-0.1-1.4-0.2-2.1-0.3c-1.1-0.1-1.8,0.8-1.5,1.8
	c0.2,0.6,0.7,0.8,1.2,0.9c0.8,0.1,1.6,0.2,2.3,0.3c0.4,0,0.5,0.2,0.4,0.5c-0.1,0.9,0,0.8-0.9,0.7c-1.3-0.2-2.6-0.4-4-0.5
	c-0.4,0-0.5-0.2-0.4-0.6c0-0.1,0-0.2,0-0.3c0-0.3,0.1-0.4,0.5-0.4c0.1,0,0.3,0,0.4,0c-0.2-0.5-0.5-0.8-0.6-1.2
	c-0.3-1.5,0.6-2.6,2.2-2.5C37.5,122.6,38.5,122.8,39.5,122.9z"/>
<path class="st1" d="M34.8,146L34.8,146c1.1,0.2,2.2,0.3,3.3,0.5c0.8,0.2,1.3,1.4,0.9,2.1c-0.1,0.1-0.5,0.1-0.7,0.1
	c-0.1,0-0.3-0.2-0.3-0.3c-0.1-0.7-0.1-0.7-0.8-0.8c-1.8-0.2-3.5-0.5-5.3-0.7c-0.5-0.1-0.5-0.3-0.4-0.7c0.1-0.6,0.1-0.7,0.6-0.6
	C33,145.8,33.9,145.9,34.8,146z"/>
<path class="st1" d="M34.1,128.4c0.1,0,0.1,0,0.2,0c0.7,0.1,0.7,0.1,0.6,0.8c0,0.7,0.3,1.2,1,1.4c0.8,0.1,1.6,0.2,2.3,0.3
	c0.3,0,0.4,0.2,0.4,0.5c-0.1,0.9-0.1,0.9-0.9,0.8c-1.3-0.2-2.6-0.4-3.9-0.5c-0.4,0-0.6-0.2-0.5-0.6c0-0.1,0-0.2,0-0.3
	c0-0.3,0.2-0.5,0.5-0.4c0.1,0,0.2,0,0.3,0c-0.2-0.5-0.4-1-0.6-1.5C33.6,128.4,33.7,128.3,34.1,128.4z"/>
<path class="st1" d="M40.7,112.3c0.3,0,0.5,0.1,0.4,0.5c-0.1,1-0.1,0.8-0.9,0.7c-1.3-0.2-2.6-0.4-3.9-0.5c-0.5-0.1-0.6-0.2-0.5-0.7
	c0-0.1,0-0.2,0-0.3c0-0.3,0.2-0.4,0.4-0.3c0.3,0.1,0.7,0.1,1,0.1c0.4,0.1,0.8,0.1,1.2,0.2c0.2,0,0.4,0.1,0.6,0.1
	C39.7,112.1,40.2,112.2,40.7,112.3z"/>
<path class="st1" d="M34.4,111.2c0.4,0.1,0.6,0.4,0.6,0.9c-0.1,0.5-0.4,0.8-0.8,0.7c-0.4,0-0.7-0.5-0.6-0.9
	C33.6,111.5,34,111.2,34.4,111.2z"/>
<path class="st1" d="M30,145.2c0.4,0.1,0.6,0.4,0.5,0.9c-0.1,0.5-0.4,0.7-0.8,0.7c-0.4-0.1-0.6-0.4-0.6-0.9
	C29.2,145.4,29.5,145.2,30,145.2z"/>
<path class="st1" d="M40.6,115.9c0.1-0.4-0.2-0.8-0.6-0.8c-0.4-0.1-0.8,0.2-0.8,0.6c-0.1,0.4,0.2,0.8,0.6,0.8
	C40.2,116.6,40.6,116.3,40.6,115.9z"/>
</svg>
