<svg id="Layer_1" data-name="Layer 1" xmlns="http://www.w3.org/2000/svg" viewBox="0 0 1435.88 163.06"><path d="M634,153.14a45,45,0,1,0-62.72-10.78A45,45,0,0,0,634,153.14Z" fill="aqua"/><path d="M582.38,138.26a.46.46,0,0,1,.11-.65l1.69-1.19c.1-.08.18-.12.29,0a2.19,2.19,0,0,0,2.7.38A4.9,4.9,0,0,0,589,135.4a1.48,1.48,0,0,0,.3-1.52,1.13,1.13,0,0,0-1-.78,4.65,4.65,0,0,0-1.92.32c-1,.36-2,.76-3,1.14a5.66,5.66,0,0,1-1.15.27,3.06,3.06,0,0,1-2.8-1.22,3.73,3.73,0,0,1-1-3.38,4.28,4.28,0,0,1,1.24-2.13,8.25,8.25,0,0,1,3.48-2.23,3.89,3.89,0,0,1,4.08,1.13c.46.46.44.47-.09.85l-.8.56a1.18,1.18,0,0,1-1.34.13,2.38,2.38,0,0,0-2.62.23,3.68,3.68,0,0,0-1.1,1,1.48,1.48,0,0,0-.09,1.69,1.06,1.06,0,0,0,.89.51,4.21,4.21,0,0,0,1.67-.36c1-.38,2.07-.78,3.11-1.15a5.13,5.13,0,0,1,1.5-.3,3.36,3.36,0,0,1,3.06,1.89c1.13,1.93.66,3.68-.87,5.23a11.69,11.69,0,0,1-3,2,4.07,4.07,0,0,1-4.67-.63,1.86,1.86,0,0,0-.29-.27A.42.42,0,0,1,582.38,138.26Z"/><path d="M618.93,117.13a4.13,4.13,0,0,1-4.89-.78,7.72,7.72,0,0,1-2.43-4,4,4,0,0,1,1.38-4,5.75,5.75,0,0,1,2.35-1.34,4.09,4.09,0,0,1,3.7.83A7.23,7.23,0,0,1,621.8,112a4.07,4.07,0,0,1-1.26,4A7.21,7.21,0,0,1,618.93,117.13Zm-4.09-3.91a6.45,6.45,0,0,0,1.51,1.6,1.86,1.86,0,0,0,2.24,0,2,2,0,0,0,.63-2.27,5.92,5.92,0,0,0-1.26-2.15,3,3,0,0,0-1.35-.93,1.92,1.92,0,0,0-2.49,2.09A3.51,3.51,0,0,0,614.84,113.22Z"/><path d="M602.79,121.09l-3.34-4.73a1.37,1.37,0,0,1,.35-2c1.14-.81,2.27-1.62,3.42-2.42a6.46,6.46,0,0,1,3.27-1.21,4.62,4.62,0,0,1,3.21,1.1,10,10,0,0,1,3.44,4.94,5.22,5.22,0,0,1-1.75,5.7c-1.56,1.27-3.26,2.35-4.88,3.54-.19.13-.24,0-.31-.11-1.14-1.6-2.27-3.21-3.4-4.81Zm1.86-2,2.34,3.31c.08.11.12.26.31.12.76-.57,1.58-1.06,2.29-1.69a2.81,2.81,0,0,0,.86-3.32A8.09,8.09,0,0,0,608,114.1a2.76,2.76,0,0,0-3.67-.13c-.66.45-1.31.93-2,1.38-.2.13-.21.22-.08.41C603.11,116.85,603.88,117.94,604.65,119Z"/><path d="M601.64,120.88l1.64,2.32a5.44,5.44,0,0,1,.86,1.84,2.67,2.67,0,0,1-.22,1.9,5.93,5.93,0,0,1-4.7,3.29,2.94,2.94,0,0,1-2.56-.94,6.93,6.93,0,0,1-.9-1q-1.69-2.42-3.4-4.81c-.13-.17-.13-.25.06-.38.61-.41,1.2-.84,1.8-1.27.17-.13.25-.12.38.06,1.19,1.71,2.4,3.4,3.59,5.1a1.66,1.66,0,0,0,1.66.87,2,2,0,0,0,1.62-1.28,1.5,1.5,0,0,0-.24-1.56l-3-4.3a1.27,1.27,0,0,1-.05-1.57,6.84,6.84,0,0,1,1.38-1.06c.13-.09.16.07.21.14Z"/><path d="M630.12,100.72c.59.84,1.18,1.66,1.76,2.5a1.59,1.59,0,0,0,1.77.78,2,2,0,0,0,1.55-1.5,1.52,1.52,0,0,0-.32-1.31c-1-1.44-2-2.87-3-4.3a1.26,1.26,0,0,1,0-1.66,9.94,9.94,0,0,1,1.28-1,.11.11,0,0,1,.16,0l.12.17,3.5,5a6.56,6.56,0,0,1,.64,1.16,3.14,3.14,0,0,1-.43,3.32,5.94,5.94,0,0,1-4.6,2.58,2.9,2.9,0,0,1-2.24-1,6.29,6.29,0,0,1-.88-1c-1.13-1.6-2.26-3.21-3.4-4.8-.13-.19-.13-.28.07-.41.59-.4,1.17-.81,1.75-1.24.19-.14.28-.14.43.07C628.88,99,629.5,99.85,630.12,100.72Z"/><path d="M627.27,102.34l-2.16,1.53c-.12.08-.2,0-.29,0a2,2,0,0,0-2.74,1.41,2.48,2.48,0,0,0,.31,1.62,6.49,6.49,0,0,0,1.45,2,2.13,2.13,0,0,0,3.48-.61,1.39,1.39,0,0,0,.15-.63,1.2,1.2,0,0,1,.58-.94c.47-.31.92-.63,1.36-1,.18-.13.23-.1.3.1a4.32,4.32,0,0,1-1.23,4.62,5.74,5.74,0,0,1-2.32,1.39,4.22,4.22,0,0,1-4.14-1,7.68,7.68,0,0,1-2.39-3.74,4.2,4.2,0,0,1,1.66-4.58,5.89,5.89,0,0,1,2.62-1.18A4.36,4.36,0,0,1,627.27,102.34Z"/><path d="M595.64,133.78a1.58,1.58,0,0,1-2.31-.45l-.3-.4L586.71,124c-.15-.21-.15-.31.08-.44s.53-.37.8-.56a1.33,1.33,0,0,1,2,.33c.28.39.56.78.83,1.18.09.14.16.16.3.06.32-.24.64-.46,1-.69.06,0,.12-.13.2,0a1.68,1.68,0,0,1,.51,1.42,1.21,1.21,0,0,1-.56.83c-.18.1-.17.19-.06.34l3.16,4.47a.59.59,0,0,0,.89.18c.22-.13.43-.29.64-.44s.16-.11.24,0l1,1.42a.18.18,0,0,1,0,.19c0,.07-.07.06-.2.15C597,132.77,595.77,133.71,595.64,133.78Z"/><g opacity="0.9"><path d="M45,163.06a45,45,0,1,0-45-45A45,45,0,0,0,45,163.06Z" fill="#000edc"/><path d="M18.64,111.48v1L16,114l-2.66,1.52v6.1l.16-.09,1.77-1,1.6-.93v-1c0-.54,0-1,0-1l-.84.47a9.1,9.1,0,0,1-.88.47,3.85,3.85,0,0,1,0-1l0-1,1.65-.94,1.78-1,.12-.07v6.1l-3.55,2c-1.95,1.12-3.54,2-3.54,2l.88.51c.87.49.87.49,1,.43l3.55-2,3.41-2V111.49l-.69-.41c-.38-.22-.78-.44-.88-.51l-.19-.11Z" fill="#fff"/><path d="M50.91,112.13s0,2,0,4.48V121h1.61l0-2,0-2,.13-.25A1.26,1.26,0,0,1,53.9,116a1.16,1.16,0,0,1,1.15.68c.1.24.1.24.12,2.3v2.07h1.61l0-2.29a12.9,12.9,0,0,0-.09-2.55,2.25,2.25,0,0,0-.61-1.06,2.48,2.48,0,0,0-3.31-.07l-.22.21V112.1l-.8,0C51.12,112.07,50.92,112.08,50.91,112.13Z" fill="#fff"/><path d="M26.86,114.6A3.16,3.16,0,0,0,24.58,117a3.12,3.12,0,0,0-.08,1,2.67,2.67,0,0,0,.16,1,3.07,3.07,0,0,0,.71,1.19,2.75,2.75,0,0,0,2,.93,2.29,2.29,0,0,0,1.85-.66l.28-.28,0,.59a1.51,1.51,0,0,1-.17.88,1.46,1.46,0,0,1-1.43.77,1.66,1.66,0,0,1-1.42-.64l-.17-.24-.62.38-.66.42c-.07.06.25.49.56.77a3,3,0,0,0,1.17.65,4.57,4.57,0,0,0,1.95,0,3.13,3.13,0,0,0,2-1.34,4.26,4.26,0,0,0,.22-.52l.13-.35v-6.86H29.45v.77l-.23-.24a2.28,2.28,0,0,0-.93-.59A3.43,3.43,0,0,0,26.86,114.6Zm1.49,1.58a1.69,1.69,0,0,1,.76.57,1.55,1.55,0,0,1,.31,1.09,1.46,1.46,0,0,1-.48,1.23,1.49,1.49,0,0,1-1.21.49,1.2,1.2,0,0,1-.75-.17,1.54,1.54,0,0,1-.78-.79,1.32,1.32,0,0,1-.12-.76,1.39,1.39,0,0,1,.14-.81,1.7,1.7,0,0,1,1-.89A2.37,2.37,0,0,1,28.35,116.18Z" fill="#fff"/><path d="M34.84,114.62a1.83,1.83,0,0,0-1.18.89l-.08.16,0-.5v-.5H32v6.16h1.56v-1.67c0-2,0-2,.44-2.4a1.5,1.5,0,0,1,1.11-.46h.32v-1.77h-.14A2,2,0,0,0,34.84,114.62Z" fill="#fff"/><path d="M38.21,114.6a3.18,3.18,0,0,0-2.34,2.76,3.35,3.35,0,0,0,1.72,3.38,2.62,2.62,0,0,0,3-.37l.23-.23v.73h1.57v-6.16H40.79v.72l-.14-.16a2.39,2.39,0,0,0-1-.6A3.33,3.33,0,0,0,38.21,114.6Zm1.62,1.6a1.73,1.73,0,0,1,1,1.77,1.69,1.69,0,0,1-1,1.4,1.24,1.24,0,0,1-.69.14,1.7,1.7,0,0,1-.66-.1,1.67,1.67,0,0,1-.85-.81c-.14-.28-.14-.31-.14-.83s0-.56.12-.79a1.7,1.7,0,0,1,1.08-.89,2.46,2.46,0,0,1,.52,0A1.45,1.45,0,0,1,39.83,116.2Z" fill="#fff"/><path d="M46.27,114.6a2.59,2.59,0,0,0-1.09.58l-.23.24v-.71H43.38v8.75H45v-3.18l.23.23a2.46,2.46,0,0,0,1.87.62,2.57,2.57,0,0,0,1.89-.89,2.93,2.93,0,0,0,.75-1.23,2.68,2.68,0,0,0,.16-1,3.23,3.23,0,0,0-.08-1,3.19,3.19,0,0,0-2-2.3A3.32,3.32,0,0,0,46.27,114.6Zm1.09,1.64a1.71,1.71,0,0,1,.78.79,1.67,1.67,0,0,1,.15.74,1.67,1.67,0,0,1-2.59,1.58,1.63,1.63,0,0,1-.61-.74,2.27,2.27,0,0,1-.08-1.32,1.76,1.76,0,0,1,1-1.11A2.18,2.18,0,0,1,47.36,116.24Z" fill="#fff"/><path d="M60.29,114.61a3.51,3.51,0,0,0-1.69.89,3.17,3.17,0,0,0,.2,4.79,3.29,3.29,0,0,0,2.13.72,3.36,3.36,0,0,0,2.34-.8,3.48,3.48,0,0,0,.61-.77,1.31,1.31,0,0,0-.34-.22l-.35-.19-.11.15a2.58,2.58,0,0,1-2.74,1,2.54,2.54,0,0,1-1.77-1.65,3.11,3.11,0,0,1,0-1.39,2.53,2.53,0,0,1,1.79-1.72,3.45,3.45,0,0,1,1.32,0,2.28,2.28,0,0,1,1.36.94l.11.19.35-.19.35-.18-.12-.22A3.25,3.25,0,0,0,60.29,114.61Z" fill="#fff"/><path d="M66.71,114.58a2.21,2.21,0,0,0-1.2.75.6.6,0,0,1-.16.18,1.2,1.2,0,0,1,0-.42v-.42h-.8v6.16h.79l0-2a11.58,11.58,0,0,1,.09-2.21,1.72,1.72,0,0,1,1-1.18,1.28,1.28,0,0,1,.74-.12c.42,0,.52,0,.67.1a1.57,1.57,0,0,1,.59.61c.17.34.19.64.19,2.74v2h.8l0-2a12,12,0,0,1,.09-2.27,1.68,1.68,0,0,1,.87-1.09,2.18,2.18,0,0,1,1.36,0,1.46,1.46,0,0,1,.88,1.17c0,.16,0,1.12,0,2.26v2h.8v-2.11c0-2.33,0-2.48-.27-3a2.49,2.49,0,0,0-.89-.93,2.54,2.54,0,0,0-2.17,0,1.8,1.8,0,0,0-.81.64l-.18.26-.11-.19a2.14,2.14,0,0,0-.82-.73A2.63,2.63,0,0,0,66.71,114.58Z" fill="#fff"/><path d="M75.45,114.6a2.08,2.08,0,0,0-1.42,1,1.52,1.52,0,0,0,.3,1.77,3.42,3.42,0,0,0,1.5.65c1.38.38,1.72.6,1.83,1.12s-.18.75-.67.93a2.43,2.43,0,0,1-1.87-.1,1.81,1.81,0,0,1-.68-.67c0-.06,0-.11-.06-.11a7.08,7.08,0,0,0-.71.38c0,.05.22.44.47.68a2,2,0,0,0,.65.46,2.62,2.62,0,0,0,1.38.28,2.26,2.26,0,0,0,2.19-1.08,1.09,1.09,0,0,0,.15-.7,1.14,1.14,0,0,0-.12-.64,1.72,1.72,0,0,0-.75-.76,9,9,0,0,0-1.07-.36,3.52,3.52,0,0,1-1.69-.75.59.59,0,0,1-.12-.46.58.58,0,0,1,.13-.46,1.12,1.12,0,0,1,.42-.31,1.35,1.35,0,0,1,.79-.14,4.46,4.46,0,0,1,.67,0,1.48,1.48,0,0,1,.75.56.91.91,0,0,0,.15.21,5.5,5.5,0,0,0,.68-.39,1.66,1.66,0,0,0-.46-.61A2.82,2.82,0,0,0,75.45,114.6Z" fill="#fff"/></g><path d="M152.43,117.75a45,45,0,1,0-62.58-11.6A45,45,0,0,0,152.43,117.75Z" fill="#31ff3f"/><path d="M104.2,86.74c-.41.32-.93.75-1.28,1-4,3.39-5.9,6.32-5.57,8.6A3.57,3.57,0,0,0,98.6,98.6c1.33,1.17,3.66,1.89,6.42,2a22,22,0,0,0,3-.12,16.52,16.52,0,0,0,5.62-1.18,6.5,6.5,0,0,0,1.14-.72c1.32-1.14,1.9-2.93,1.85-5.81a6.7,6.7,0,0,0-.09-1.09,14.27,14.27,0,0,0-1.45-4.7,11,11,0,0,0-.94-1.37,4.78,4.78,0,0,0-2.25-1.47,5,5,0,0,0-1.11-.18,8,8,0,0,0-3.87,1,12.78,12.78,0,0,0-1.68,1Zm5.37,1.36a.94.94,0,0,1,1.18.45,1,1,0,0,1,0,.8c-.12.24.13.07-4.05,2.94S102.78,95,102.51,95a1,1,0,0,1-.9-.51,1,1,0,0,1,.14-1C101.84,93.38,109.43,88.16,109.57,88.1Zm-.71,3.77a.93.93,0,0,1,.61.12c.16.08.17.09.3.28a.66.66,0,0,1,.16.36,1,1,0,0,1-.12.62l-.08.15-2.11,1.45-2.11,1.45-.19,0a.89.89,0,0,1-.95-.5.93.93,0,0,1,.08-.95,17.12,17.12,0,0,1,2.17-1.54l2.1-1.44Zm3.78.57a.92.92,0,0,1,1.11.47,1,1,0,0,1-.17,1c-.11.12-5.27,3.67-5.43,3.74a1,1,0,0,1-.85,0,.73.73,0,0,1-.26-.24.87.87,0,0,1-.2-.55,1,1,0,0,1,.19-.56l.09-.13,2.69-1.85A26.78,26.78,0,0,1,112.64,92.44Z"/><path d="M117.67,80.22l-.7.6-.2.17.55.79.54.79-.43.3-.44.31.45.66.45.66.44-.3.44-.31,1,1.45,1,1.44.18.15a2.32,2.32,0,0,0,2.08.49,2.78,2.78,0,0,0,1-.47,2,2,0,0,0,.47-.38,2.74,2.74,0,0,0,.34-.55,10.15,10.15,0,0,0-1.16-.94l-.16.16a1,1,0,0,1-.49.32.76.76,0,0,1-.84-.28L121.23,84l-.82-1.21.44-.3.44-.3-.45-.66-.46-.65-.44.29-.44.3-.6-.87-.6-.88-.06,0Z"/><path d="M149,61.13a3.45,3.45,0,0,0-1.13,1.93,3.29,3.29,0,0,0,.13,2,3.56,3.56,0,0,0,.45.86,3.57,3.57,0,0,0,2.41,1.56,3.5,3.5,0,0,0,2.63-.62,3.56,3.56,0,0,0,1.36-1.68,4.66,4.66,0,0,0,.24-1.33,3.74,3.74,0,0,0-.84-2.26A3.38,3.38,0,0,0,152,60.22a3.34,3.34,0,0,0-2.22.39A6.5,6.5,0,0,0,149,61.13Zm1.8.91a1.77,1.77,0,0,1,1.84.42,3.2,3.2,0,0,1,.51.75,1.83,1.83,0,0,1-.16,1.73,2.25,2.25,0,0,1-1,.7,1.75,1.75,0,0,1-1.5-.2,2.27,2.27,0,0,1-.91-1.31,1.74,1.74,0,0,1,.52-1.68A2.57,2.57,0,0,1,150.76,62Z"/><path d="M122.71,79.35,122,80,122,80l2,2.84,2,2.84.81-.56.82-.56-1.24-1.81L125,80.93l0-.21a1.74,1.74,0,0,1,.17-1,.67.67,0,0,1,.25-.28,1.58,1.58,0,0,1,.92-.32c.05,0,.09,0,.09,0s-.84-1.76-.86-1.76a1.48,1.48,0,0,0-.3.15A2.55,2.55,0,0,0,124,79.18l0,.14-.21-.31-.22-.32-.06,0Z"/><path d="M128.89,75a3.62,3.62,0,0,0-.8,1,3.49,3.49,0,0,0-.42,2,3.79,3.79,0,0,0,.34,1.18,6.52,6.52,0,0,0,.73,1.07,3.39,3.39,0,0,0,1.87,1,3.29,3.29,0,0,0,2.06-.28,6.36,6.36,0,0,0,1.48-1.06,2.84,2.84,0,0,0,.91-1.66l0-.15-.8-.15-.79-.15-.05.14a2.85,2.85,0,0,1-1.05,1.29,1.47,1.47,0,0,1-.76.32,1.28,1.28,0,0,1-1.14-.38l-.05,0,2-1.39,2-1.4-.32-.45A4.19,4.19,0,0,0,133,74.65a3.14,3.14,0,0,0-3-.33A4.57,4.57,0,0,0,128.89,75Zm1.5.95a1.25,1.25,0,0,1,1.58.23l.05.08-1.17.81-1.17.8-.05-.1a1,1,0,0,1-.11-.77A1.61,1.61,0,0,1,130.39,76Z"/><path d="M134.2,71.46l-.71.6,0,0,2,2.84,2,2.85.82-.56.82-.57-1.28-1.86-1.27-1.86,0-.12a2.09,2.09,0,0,1,0-.71,1.45,1.45,0,0,1,.11-.26c.06-.11.08-.13.3-.28a1.14,1.14,0,0,1,.41-.21,1.2,1.2,0,0,1,.59,0,1.61,1.61,0,0,1,.61.31,17.2,17.2,0,0,1,1.33,1.86l1.22,1.76.82-.57.82-.56-1.38-2c-1.5-2.16-1.41-2-1.74-2.29a2.65,2.65,0,0,0-2-.52,3.39,3.39,0,0,0-1.26.6,2.44,2.44,0,0,0-.88,1.24l0,.15-.18-.26L135,70.8l-.06,0Z"/><path d="M142.14,65.91a3.72,3.72,0,0,0-.82,1,3.25,3.25,0,0,0,0,2.78,5.46,5.46,0,0,0,1,1.45,3,3,0,0,0,2.82,1.07,3.88,3.88,0,0,0,2-1.26,2.87,2.87,0,0,0,.46-.88.08.08,0,0,1,0,0,2.38,2.38,0,0,1,.42.69,1.94,1.94,0,0,1,.07,1,2.15,2.15,0,0,1-.84,1,3.59,3.59,0,0,1-1.73.6l-.27,0-.08.69-.08.7.12,0a3.78,3.78,0,0,0,.77,0,4.62,4.62,0,0,0,2.19-.76,5.72,5.72,0,0,0,1-.78,2.92,2.92,0,0,0,.8-1.65,3.5,3.5,0,0,0-.45-2.34c-.1-.16-.75-1.12-2-2.89l-1.82-2.64-.78.42-.88.47-.1.05.18.26.18.26-.19,0a2.26,2.26,0,0,0-1.29.32A2.92,2.92,0,0,0,142.14,65.91Zm1.72.84a1.5,1.5,0,0,1,1.56.19c.12.09.16.14.51.63a3.45,3.45,0,0,1,.43.68,1.4,1.4,0,0,1-.21,1.35,1.66,1.66,0,0,1-.55.52,2.23,2.23,0,0,1-.73.24,1.73,1.73,0,0,1-.9-.14,2.42,2.42,0,0,1-1-1,1.77,1.77,0,0,1-.15-1.31A2,2,0,0,1,143.86,66.75Z"/><path d="M1390.88,161.32a45,45,0,1,0-45-45A45,45,0,0,0,1390.88,161.32Z" fill="#f0f"/><path d="M1414.65,116.68a1.26,1.26,0,0,0-1.49.92,14,14,0,0,1-.71,1.86,3.78,3.78,0,0,1-1.38,1.61c-.36.23-.47.19-.59-.22a3.91,3.91,0,0,1,0-2c.28-1.3.59-2.58.87-3.88.05-.22.14-.3.37-.29.51,0,1,0,1.53,0a1.19,1.19,0,0,0,1.24-1.2,1.24,1.24,0,0,0-1.25-1.22H1412c0-.21.09-.41.14-.62.16-.65.32-1.29.47-1.94a1.29,1.29,0,0,0-.57-1.44,1.15,1.15,0,0,0-1.41.17,1.68,1.68,0,0,0-.41.75c-.64,2.72-1.27,5.46-1.89,8.18a7.84,7.84,0,0,1-1.2,3,5,5,0,0,1-.93,1c-.43.35-.61.27-.73-.3a4.55,4.55,0,0,1,.09-2c.41-1.68.8-3.36,1.24-5a1.28,1.28,0,0,0-1.3-1.67c-.89,0-1.79,0-2.68,0h-.39c.32-1.38.62-2.71.92-4,.7.12,1.37.25,2,.32a4,4,0,0,0,1.86-.25,3.32,3.32,0,0,0,2.14-3.37,3.11,3.11,0,0,0-2.44-2.85,4.1,4.1,0,0,0-3.2.68,5.07,5.07,0,0,0-1.54,1.52l-.2.29c-.28-.41-.53-.76-.77-1.14a1.21,1.21,0,0,0-.94-.64,1.07,1.07,0,0,0-1.07.5,1.16,1.16,0,0,0,0,1.25,8.39,8.39,0,0,0,1.81,2.21.44.44,0,0,1,.16.51c-.37,1.56-.72,3.12-1.09,4.68l-.07.27c-.82,0-1.47.22-1.59,1.15-.08.58.28,1,1,1.3a20.24,20.24,0,0,1-1,3.56,5.1,5.1,0,0,1-2.85,2.7,2.88,2.88,0,0,1-3-.44,5.94,5.94,0,0,1-.56-.63l.27-.09a6.6,6.6,0,0,0,5.05-4.86,2.69,2.69,0,0,0-.84-2.85,2.46,2.46,0,0,0-2.42-.51,5.66,5.66,0,0,0-3.48,2.74,7.59,7.59,0,0,0-1.21,3.67,2.05,2.05,0,0,1-.28.82,5,5,0,0,1-2,1.9,3.44,3.44,0,0,1-.4.15,3.51,3.51,0,0,1,.08-1.52c.25-1.11.54-2.21.79-3.31a5.25,5.25,0,0,0,.13-2.23,2.53,2.53,0,0,0-3.26-2c-.39.12-.75.32-1.12.46a.49.49,0,0,1-.36,0,1.22,1.22,0,0,0-1.88.67,5.49,5.49,0,0,1-1.76,2.45c-.09.07-.19.13-.36.24.08-.33.14-.6.2-.86a22,22,0,0,0,.71-5.6,7,7,0,0,0-.82-3.37,4.2,4.2,0,0,0-5-2,8.64,8.64,0,0,0-4.28,2.94,14.82,14.82,0,0,0-3.07,6.59c-.18.84-.26,1.71-.39,2.56a2.56,2.56,0,0,1,0,.27v1.75c.1.6.17,1.22.31,1.81a6.9,6.9,0,0,0,1.87,3.44,4.89,4.89,0,0,0,3.94,1.51,5,5,0,0,0,3-1.46,8.72,8.72,0,0,0,2-3.06c.22-.51.41-1.05.63-1.56a.81.81,0,0,1,.31-.35c.55-.33,1.11-.64,1.71-1l-.37,1.55c-.23,1-.47,1.94-.7,2.91a1.26,1.26,0,0,0,.49,1.41,1.14,1.14,0,0,0,1.34,0,1.58,1.58,0,0,0,.5-.75c.35-1.3.63-2.61,1-3.91a9.45,9.45,0,0,1,1.6-3.5,3.69,3.69,0,0,1,.82-.76c.34-.24.67-.08.68.33a5.48,5.48,0,0,1-.15,1.39c-.25,1.13-.58,2.26-.78,3.41a5.71,5.71,0,0,0,0,1.89,2.37,2.37,0,0,0,3.1,1.89,5,5,0,0,0,2.37-1.48l.22-.26a4.77,4.77,0,0,0,3.43,2.15,6.08,6.08,0,0,0,4-.8c0,.14,0,.22,0,.3l-1.38,5.9a1.27,1.27,0,0,0,.78,1.73h.56a1.45,1.45,0,0,0,1-1.19q1.66-7.22,3.34-14.42c.06-.26.16-.36.43-.35.6,0,1.2,0,1.85,0-.11.46-.22.88-.3,1.31-.26,1.27-.53,2.54-.74,3.83a4.47,4.47,0,0,0,.26,2.34,2.6,2.6,0,0,0,3.56,1.52,9.56,9.56,0,0,0,1.44-1,2.61,2.61,0,0,0,.25-.23l.09.1a2.52,2.52,0,0,0,3.29.81,5.69,5.69,0,0,0,2.35-2.21,8.73,8.73,0,0,0,1.24-3.05l.06-.15v-.31A1.34,1.34,0,0,0,1414.65,116.68Zm-8.54-12.34a.86.86,0,0,1,1,.68,1,1,0,0,1-.71,1.17,3.12,3.12,0,0,1-1.66,0c-.25-.05-.49-.14-.8-.23A2.8,2.8,0,0,1,1406.11,104.34Zm-28.63,5.06a12.28,12.28,0,0,1-1.3,5.52,9.29,9.29,0,0,1-1.15,1.66,2.65,2.65,0,0,1-.88.62,1,1,0,0,1-1.33-.28,1.13,1.13,0,0,0-1.17-.41,1.22,1.22,0,0,0-.94,1,1.25,1.25,0,0,0,.15.79,3.23,3.23,0,0,0,3.81,1.36l.37-.11a5.23,5.23,0,0,1-2.11,2.45,2,2,0,0,1-1.94,0,4,4,0,0,1-2-2.62,9.55,9.55,0,0,1-.19-3.91,15.17,15.17,0,0,1,1.75-5.57,9,9,0,0,1,2.72-3.09,3.85,3.85,0,0,1,2-.75,1.75,1.75,0,0,1,1.77,1.07A4.92,4.92,0,0,1,1377.48,109.4Zm16.9,4.66a2.43,2.43,0,0,1,.61-.09,2.15,2.15,0,0,1,0,.62,4.58,4.58,0,0,1-3,2.76A4.91,4.91,0,0,1,1394.38,114.06Z"/><path d="M1407.67,110.52a1.17,1.17,0,0,1-1.13,1.2,1.19,1.19,0,0,1-1.16-1.22,1.17,1.17,0,0,1,1.16-1.18A1.15,1.15,0,0,1,1407.67,110.52Z"/><circle cx="1300.12" cy="117.08" r="45.76" transform="translate(298.01 953.62) rotate(-45)" fill="#31ff3f"/><path d="M1295.26,110.36a2.48,2.48,0,0,1,.81,1.84l-1,.21a1.89,1.89,0,0,0-.52-1.27,1.46,1.46,0,0,0-2.13,0,1.49,1.49,0,0,0,0,2.16,2.23,2.23,0,0,0,1.45.57l-.27,1a2.83,2.83,0,0,1-2-.86,2.56,2.56,0,1,1,3.62-3.62Z" fill-rule="evenodd"/><path d="M1298.43,111l.86.86-1.67,1.67a3.88,3.88,0,0,1-.31.28h0a1.91,1.91,0,0,1,1.88.51,1.58,1.58,0,0,1-.12,2.52l-2.22,2.22-.86-.85,2-2c.42-.42.6-.81.16-1.25a1.38,1.38,0,0,0-1.66-.22,2.19,2.19,0,0,0-.5.39l-1.59,1.59-.86-.86Z" fill-rule="evenodd"/><path d="M1299.35,120.34a1.25,1.25,0,0,0,1.68-.13l.09-.08L1301,120c-.44-.44-1.22-1.09-1.7-.61A.65.65,0,0,0,1299.35,120.34Zm2.23-.92.12.11,0,0a.81.81,0,0,0-.06-1.28,2.6,2.6,0,0,0-1.28-.61l.29-.95a3.32,3.32,0,0,1,1.79.93,1.82,1.82,0,0,1,.06,2.81l-2.17,2.17-.79-.8.29-.28a2.11,2.11,0,0,1,.25-.23h0a1.6,1.6,0,0,1-1.66-.45,1.53,1.53,0,0,1-.1-2.25C1299.46,117.45,1301,118.86,1301.58,119.42Z" fill-rule="evenodd"/><path d="M1304.59,119.86l.83.82-.4.4c-.13.13-.25.23-.25.23h0a1.91,1.91,0,0,1,2,.51,1.56,1.56,0,0,1-.12,2.51l-2.22,2.23-.85-.86,2-2c.42-.43.6-.82.16-1.26a1.34,1.34,0,0,0-1.63-.22,2,2,0,0,0-.53.4l-1.58,1.58-.86-.86Z" fill-rule="evenodd"/><path d="M1308.61,123.87l.83.83-.4.4a2.62,2.62,0,0,1-.25.22h0a1.91,1.91,0,0,1,2,.51,1.58,1.58,0,0,1-.12,2.52l-2.22,2.22-.86-.85,2-2c.42-.42.6-.81.16-1.25a1.36,1.36,0,0,0-1.64-.23,2.19,2.19,0,0,0-.52.4l-1.59,1.59-.86-.86Z" fill-rule="evenodd"/><path d="M1310.89,131.88a1.24,1.24,0,0,0,1.68-.13l.09-.08-.15-.15c-.44-.44-1.22-1.09-1.7-.61A.65.65,0,0,0,1310.89,131.88Zm2.23-.92.12.11,0,0a.81.81,0,0,0-.06-1.28,2.6,2.6,0,0,0-1.28-.61l.29-.95a3.3,3.3,0,0,1,1.78.93,1.82,1.82,0,0,1,.07,2.82l-2.17,2.16-.79-.8.28-.28a2.72,2.72,0,0,1,.26-.23h0a1.61,1.61,0,0,1-1.66-.44,1.53,1.53,0,0,1-.1-2.25C1311,129,1312.56,130.4,1313.12,131Z" fill-rule="evenodd"/><path d="M1315,135.9a1.32,1.32,0,0,0,1.94-.2,1.33,1.33,0,0,0,.22-1.95c-.45-.44-1.19-.54-2,.23A1.33,1.33,0,0,0,1315,135.9Zm2.47-5.86.86.86-1.48,1.48a3.88,3.88,0,0,1-.31.28l0,0a1.72,1.72,0,0,1,1.54.53c.93.94.79,2.27-.28,3.34a2.31,2.31,0,0,1-3.4.23,1.72,1.72,0,0,1-.51-1.55h0l-.22.25-.2.19-.81-.81Z" fill-rule="evenodd"/><path d="M1321.48,134l.85.86-3.61,3.6c-.38.38-.34.61-.12.83l.14.12-.75.75a2.22,2.22,0,0,1-.3-.25,1.33,1.33,0,0,1,0-2.17Z" fill-rule="evenodd"/><path d="M1322.77,140.63a.94.94,0,0,0,0-1.4,1.13,1.13,0,0,0-1.54-.11Zm.72-2a2.12,2.12,0,0,1-.11,3.17c-.1.11-.35.32-.35.32l-2.39-2.39a1.39,1.39,0,0,0,.12,1.95,2.42,2.42,0,0,0,1.38.62l-.29.95a3.08,3.08,0,0,1-1.88-.9,2.5,2.5,0,0,1,0-3.66A2.42,2.42,0,0,1,1323.49,138.58Z" fill-rule="evenodd"/><path d="M1280.49,95.72l-4.77-1.31-3.48,3.48,1.3,4.78,4.78,1.3-1.3-4.78Z" fill-rule="evenodd"/><path d="M1286.58,101.8l-3.48,3.48-4.78-1.31,1.3,4.78,4.78,1.31,3.48-3.48Z" fill-rule="evenodd"/><path d="M1286.58,101.8l3.48-3.48-1.31-4.78-4.78-1.3-3.47,3.48,4.78,1.3Z" fill-rule="evenodd"/><path d="M1280.5,95.72,1277,99.19l1.3,4.78,3.48-3.47Z" fill-rule="evenodd"/><path d="M1286.58,101.8l-4.78-1.3-3.48,3.47,4.78,1.31Z" fill-rule="evenodd"/><path d="M1286.58,101.8l-1.3-4.78-4.78-1.3,1.3,4.78Z" fill-rule="evenodd"/><path d="M531.57,90a45,45,0,1,0-45-45A45,45,0,0,0,531.57,90Z" fill="#f91c0e"/><path d="M555.79,38.84a.74.74,0,0,0-.74.74v0a.74.74,0,0,0,1.47,0v0A.74.74,0,0,0,555.79,38.84Z"/><path d="M530.3,41.18a3.05,3.05,0,0,0-1.3.26,2.8,2.8,0,0,0-1.53,1.7,3.45,3.45,0,0,0,0,2.37,2.8,2.8,0,0,0,1.53,1.7,3.05,3.05,0,0,0,1.3.26,3,3,0,0,0,1.06-.19,2.39,2.39,0,0,0,.81-.52l.06-.07v.61h1.3v-6h-1.3V42l-.06-.06a2.25,2.25,0,0,0-.81-.52A2.76,2.76,0,0,0,530.3,41.18Zm1.82,2.3a2.37,2.37,0,0,1,0,1.7,1.71,1.71,0,0,1-.42.61,1.92,1.92,0,0,1-.61.37,2.38,2.38,0,0,1-.7.11,1.57,1.57,0,0,1-.74-.16,1.84,1.84,0,0,1-1-1,2.1,2.1,0,0,1-.13-.74,2.17,2.17,0,0,1,.13-.76,1.73,1.73,0,0,1,.38-.62,1.91,1.91,0,0,1,.58-.43,1.83,1.83,0,0,1,.73-.15,2.06,2.06,0,0,1,.7.12,1.69,1.69,0,0,1,1,1Z"/><path d="M535.84,39.83h-1.3v5.63a1.74,1.74,0,0,0,.55,1.34,2.51,2.51,0,0,0,1.69.5h.94V46.17h-.93a.84.84,0,0,1-1-.94V42.47h1.89V41.34h-1.88Z"/><path d="M541.16,41.18a3,3,0,0,0-1.29.26,2.74,2.74,0,0,0-1,.69,3.12,3.12,0,0,0-.59,1,3.45,3.45,0,0,0,0,2.37,3,3,0,0,0,.59,1,2.86,2.86,0,0,0,1,.7,3,3,0,0,0,1.29.26,3,3,0,0,0,1.07-.19,2.35,2.35,0,0,0,.8-.52l.06-.07v.61h1.3v-6h-1.3V42l-.05-.06a2.25,2.25,0,0,0-.81-.52A2.78,2.78,0,0,0,541.16,41.18Zm1.83,2.3a2.37,2.37,0,0,1,0,1.7,1.79,1.79,0,0,1-1,1,2.38,2.38,0,0,1-.7.11,1.72,1.72,0,0,1-.74-.15,1.91,1.91,0,0,1-.58-.43,2,2,0,0,1-.38-.61,2.26,2.26,0,0,1,0-1.51,1.89,1.89,0,0,1,.38-.62,1.79,1.79,0,0,1,1.32-.58,2.1,2.1,0,0,1,.7.12,1.57,1.57,0,0,1,.61.36A1.81,1.81,0,0,1,543,43.48Z"/><path d="M556.44,41.34h-1.29v6h1.29Z"/><path d="M564.22,38.84a.74.74,0,0,0-.73.74v0a.73.73,0,0,0,1.46,0v0A.74.74,0,0,0,564.22,38.84Z"/><path d="M564.88,41.34h-1.3v6h1.3Z"/><path d="M550.39,45V41.34H549.1V45a1.23,1.23,0,0,1-2.46,0V41.34h-1.29V45a2.52,2.52,0,0,0,4.37,1.71l0,0,0,0A2.52,2.52,0,0,0,554.14,45V41.34h-1.3V45a1.23,1.23,0,0,1-2.45,0Z"/><path d="M561.27,43.86a6.61,6.61,0,0,0,1.42-2.5v0h-1.34a3.72,3.72,0,0,1-2.45,2.48V38.94h-1.26V47.3h1.26V45.11a3.86,3.86,0,0,0,1.36-.47l1.4,2.66h1.42Z"/><path d="M523.13,42.12a3,3,0,0,0-.65,1,3.06,3.06,0,0,0-.23,1.23,3,3,0,0,0,.23,1.22,3,3,0,0,0,.65,1,3,3,0,0,0,1,.64,3,3,0,0,0,1.22.23h1.74V46.23H525.4a1.83,1.83,0,0,1-.73-.15,1.54,1.54,0,0,1-.57-.41,1.8,1.8,0,0,1-.38-.6,2.18,2.18,0,0,1,0-1.51,1.84,1.84,0,0,1,.38-.61,1.64,1.64,0,0,1,.57-.4,2,2,0,0,1,.73-.14h1.66V41.25h-1.74a3.43,3.43,0,0,0-1.22.23A3.15,3.15,0,0,0,523.13,42.12Z"/><path d="M498,34.57v19.5h19.5V34.57Zm13.62,15.59h-3.35a5.84,5.84,0,0,1,0-11.68h3.35Z"/><circle cx="451.06" cy="85.34" r="45.16" fill="#000edc"/><path d="M457,94.2c-.1.31-.18.61-.28.9a11.51,11.51,0,0,1-2.43,4.29,13.16,13.16,0,0,1-2.86,2.17,15.44,15.44,0,0,1-4.59,2,13.19,13.19,0,0,1-5.83,0,13.62,13.62,0,0,1-6.65-3.52,14.4,14.4,0,0,1-3.82-14,13.3,13.3,0,0,1,13-9.69c.72,0,1.45.08,2.18.12.18,0,.24.06.23.25-.18,2.48-.36,5-.52,7.43,0,.17-.06.23-.24.23a19.83,19.83,0,0,0-2,0,5.61,5.61,0,0,0-5.19,5.8,6,6,0,0,0,2.13,4.53,4.93,4.93,0,0,0,5.1.9,10,10,0,0,0,3.38-2.08,4.23,4.23,0,0,0,1.11-1.73l.11-.32C452.16,92.32,454.55,93.25,457,94.2Z" fill="#fff"/><path d="M465.19,68a.6.6,0,0,1-.63-.28q-1.26-2.3-2.54-4.57a.58.58,0,0,1,.05-.65,1.93,1.93,0,0,0,.27-.56,1.53,1.53,0,0,0-.57-1.58,1.45,1.45,0,0,0-1.66-.17,1.37,1.37,0,0,0-.8,1.43.62.62,0,0,1-.35.66l-.31.17-17.24,9.59a.35.35,0,0,1-.45,0,1.64,1.64,0,0,0-1.21-.39,1.44,1.44,0,0,0-1.2.94,1.51,1.51,0,0,0,.25,1.59,1.48,1.48,0,0,0,1.65.51,1.37,1.37,0,0,0,1-1.19,2.75,2.75,0,0,0,.05-.57.37.37,0,0,1,.23-.36q4.38-2.43,8.75-4.87c2.92-1.62,5.83-3.23,8.74-4.86a.68.68,0,0,1,.54-.07l1.42.4a.61.61,0,0,1,.39.33c.43.79.88,1.57,1.32,2.36L464.06,68c.09.17.17.35,0,.53a1.61,1.61,0,0,0-.3,1.49c0,.14,0,.22-.12.27a3.14,3.14,0,0,0-.31.18c-2.82,1.56-5.65,3.13-8.46,4.71a.3.3,0,0,1-.42,0,2.34,2.34,0,0,0-.49-.33,1.42,1.42,0,0,0-1.83.4,1.59,1.59,0,0,0,0,1.94,1.79,1.79,0,0,0,1.33.59.59.59,0,0,1,.51.92,2.72,2.72,0,0,0-.21.46,1.55,1.55,0,0,0,.64,1.76,1.56,1.56,0,0,0,1.89-.15,1.61,1.61,0,0,0,.48-1.21.66.66,0,0,1,.37-.59c.65-.36,1.3-.74,2-1.1s1.41-.78,2.12-1.17a.45.45,0,0,1,.55,0,1.54,1.54,0,0,0,1.53.23.21.21,0,0,1,.3.12l2.4,4.33a.42.42,0,0,1,0,.31c-.22.51-.44,1-.7,1.52a1,1,0,0,1-.39.41c-1.28.73-2.57,1.43-3.86,2.16a1,1,0,0,1-1,.07,1.51,1.51,0,0,0-1.23,0,1.55,1.55,0,0,0,.69,3,.67.67,0,0,1,.69.4c1.25,2.26,2.5,4.51,3.77,6.77a.8.8,0,0,1,0,.75,3.32,3.32,0,0,0-.26,1,.77.77,0,0,1-.41.67l-5.43,3a.63.63,0,0,1-.79,0,1.4,1.4,0,0,0-1-.28,1.51,1.51,0,0,0-1.35,1.52,1.61,1.61,0,0,0,1.4,1.58,1.51,1.51,0,0,0,1.65-1.21,3.41,3.41,0,0,0,.05-.55.57.57,0,0,1,.31-.48l5.53-3.09a.59.59,0,0,1,.64,0,2.38,2.38,0,0,0,.39.2,1.49,1.49,0,0,0,2.08-1.53A1.55,1.55,0,0,0,465.15,96a.7.7,0,0,1-.66-.39c-1.25-2.25-2.49-4.49-3.75-6.73a2,2,0,0,1-.1-.21.4.4,0,0,1,.05-.43,1.66,1.66,0,0,0,.27-1.58c0-.16,0-.23.13-.31,1.3-.71,2.6-1.41,3.89-2.15a.78.78,0,0,1,1.09.07.54.54,0,0,0,.12.09,1.51,1.51,0,0,0,2.17-.58,1.55,1.55,0,0,0-.75-2.13,3.38,3.38,0,0,0-.48-.16.83.83,0,0,1-.54-.39c-.79-1.44-1.6-2.88-2.4-4.31a.88.88,0,0,1-.06-.69,2.7,2.7,0,0,0,.12-.47,1.55,1.55,0,0,0-2.68-1.27,1.69,1.69,0,0,0-.36,1.24.54.54,0,0,1-.25.55l-4.14,2.3a.41.41,0,0,1-.54,0A1.62,1.62,0,0,0,455,78a.49.49,0,0,1-.48-.57c.16-.48.32-1,.51-1.43a1,1,0,0,1,.35-.39c.27-.18.56-.32.84-.47L463.73,71a.82.82,0,0,1,.83,0,1.36,1.36,0,0,0,.28.11,1.52,1.52,0,0,0,2-1.55A1.55,1.55,0,0,0,465.19,68Zm-24.8,5.91a.86.86,0,0,1-1.13-.34.82.82,0,1,1,1.43-.79A.87.87,0,0,1,440.39,73.92Zm16.3,29.35a.84.84,0,1,1,.32-1.14A.86.86,0,0,1,456.69,103.27Zm9.3-6.13a.82.82,0,1,1-1.44.8.82.82,0,1,1,1.44-.8Zm-6.08-9.23a.83.83,0,1,1,.32-1.12A.84.84,0,0,1,459.91,87.91Zm7.79-5.28a.84.84,0,0,1-.33,1.13.82.82,0,0,1-1.1-.34.83.83,0,0,1,.31-1.12A.87.87,0,0,1,467.7,82.63Zm-5.38-8a.87.87,0,0,1,1.13.31.85.85,0,0,1-.32,1.14.83.83,0,0,1-1.11-.33A.84.84,0,0,1,462.32,74.66ZM456,79.15a.82.82,0,1,1-1.44.78.82.82,0,0,1,1.44-.78Zm-2.2-2.28a.84.84,0,0,1-1.12-.3.83.83,0,1,1,1.44-.81A.83.83,0,0,1,453.78,76.87ZM460.12,62a.83.83,0,0,1,.3-1.12.84.84,0,0,1,1.13.32.89.89,0,0,1-.3,1.13A.85.85,0,0,1,460.12,62Zm5.53,8.29a.82.82,0,0,1-.79-1.44.85.85,0,0,1,1.13.33A.84.84,0,0,1,465.65,70.27Z" fill="#fff"/></svg>