<svg width="38" height="39" viewBox="0 0 38 39" fill="none" xmlns="http://www.w3.org/2000/svg">
<circle cx="19.0647" cy="19.6547" r="18.76" transform="rotate(0.485734 19.0647 19.6547)" fill="#000EDC"/>
<path d="M15.51 28.0087C22.7436 28.0087 26.7013 22.0143 26.7013 16.8174C26.7013 16.6489 26.6975 16.4766 26.69 16.3081C27.4599 15.7514 28.1243 15.0617 28.652 14.2716C27.935 14.5907 27.1737 14.799 26.3942 14.8896C27.215 14.3976 27.8295 13.6247 28.124 12.7141C27.3518 13.1717 26.5074 13.4945 25.6268 13.6687C25.0336 13.0383 24.2492 12.6209 23.3949 12.4811C22.5406 12.3412 21.664 12.4867 20.9007 12.895C20.1374 13.3032 19.5298 13.9516 19.1719 14.7398C18.8141 15.528 18.7258 16.4122 18.9208 17.2556C17.3573 17.1771 15.8278 16.771 14.4313 16.0635C13.0348 15.3559 11.8026 14.3628 10.8146 13.1485C10.3124 14.0143 10.1587 15.0389 10.3848 16.0139C10.6109 16.9889 11.1997 17.8413 12.0317 18.3978C11.4071 18.378 10.7962 18.2098 10.2495 17.9072V17.9559C10.2489 18.8645 10.563 19.7452 11.1384 20.4484C11.7138 21.1516 12.515 21.6339 13.4057 21.8132C12.8271 21.9715 12.2199 21.9945 11.631 21.8806C11.8823 22.662 12.3714 23.3454 13.0298 23.8355C13.6883 24.3256 14.4833 24.5979 15.304 24.6143C13.9107 25.7088 12.1897 26.3024 10.418 26.2996C10.1038 26.2991 9.78992 26.2798 9.47803 26.2419C11.2779 27.3966 13.3716 28.0099 15.51 28.0087Z" fill="white"/>
</svg>
