<svg class="icon-crunchbase" width="27" height="27" viewBox="0 0 27 27" fill="none" xmlns="http://www.w3.org/2000/svg">
<path fill-rule="evenodd" clip-rule="evenodd" d="M26.4883 4.08691C26.4883 2.29236 25.0328 0.836914 23.2383 0.836914H3.73828C1.94373 0.836914 0.488281 2.29236 0.488281 4.08691V23.5869C0.488281 25.3815 1.94373 26.8369 3.73828 26.8369H23.2383C25.0328 26.8369 26.4883 25.3815 26.4883 23.5869V4.08691Z" fill="black"/>
<path d="M10.116 15.7563C9.83733 16.3503 9.36352 16.831 8.7735 17.1181C8.18349 17.4052 7.5129 17.4815 6.87347 17.3342C6.23403 17.187 5.66437 16.825 5.25939 16.3087C4.85441 15.7925 4.63857 15.153 4.64783 14.4969C4.65709 13.8408 4.89089 13.2076 5.31029 12.703C5.72968 12.1983 6.30933 11.8526 6.95266 11.7235C7.596 11.5943 8.26417 11.6895 8.84585 11.9932C9.42752 12.2968 9.88758 12.7907 10.1494 13.3923H12.3742C12.0851 12.2024 11.3698 11.1597 10.3637 10.4616C9.35762 9.76342 8.13053 9.45828 6.91463 9.60388C5.69874 9.74948 4.57839 10.3357 3.76558 11.2517C2.95278 12.1676 2.50391 13.3497 2.50391 14.5743C2.50391 15.7989 2.95278 16.981 3.76558 17.8969C4.57839 18.8129 5.69874 19.3991 6.91463 19.5447C8.13053 19.6903 9.35762 19.3852 10.3637 18.687C11.3698 17.9889 12.0851 16.9462 12.3742 15.7563H10.1494H10.116Z" fill="white"/>
<path d="M19.3876 9.55488H19.0205C18.1425 9.61901 17.2975 9.91666 16.5732 10.417V4.84375H14.543V19.1774H16.5843V18.6546C17.2304 19.1091 17.975 19.4043 18.7571 19.5159C19.5391 19.6276 20.3365 19.5525 21.0841 19.2969C21.8316 19.0413 22.508 18.6125 23.058 18.0454C23.608 17.4783 24.016 16.789 24.2486 16.034C24.4812 15.279 24.5318 14.4797 24.3962 13.7014C24.2607 12.9231 23.9429 12.188 23.4688 11.556C22.9947 10.9241 22.3777 10.4133 21.6684 10.0655C20.9591 9.71773 20.1775 9.54274 19.3876 9.55488V9.55488ZM22.2577 14.9168V15.0058C22.2391 15.1241 22.2131 15.2411 22.1798 15.3562C22.1417 15.4797 22.0953 15.6005 22.0407 15.7177V15.7622C21.849 16.1609 21.5683 16.5102 21.2201 16.7831C20.872 17.0561 20.4657 17.2453 20.0328 17.3363L19.7603 17.3808H19.6991C19.5953 17.3866 19.4913 17.3866 19.3876 17.3808C19.2573 17.3804 19.1272 17.3711 18.9982 17.353H18.9093C18.6575 17.3119 18.4124 17.237 18.1806 17.1305H18.125C17.8913 17.0157 17.6743 16.8698 17.4798 16.6967C17.2842 16.5186 17.1139 16.3146 16.9736 16.0904C16.9042 15.9762 16.8429 15.8572 16.7901 15.7344C16.6264 15.3609 16.5447 14.9566 16.5504 14.5488C16.5562 14.1411 16.6493 13.7393 16.8235 13.3705C17.0349 12.9239 17.3579 12.5393 17.7612 12.2539C18.1646 11.9684 18.6347 11.7917 19.1262 11.7408C19.2244 11.7357 19.3228 11.7357 19.421 11.7408C20.1626 11.7505 20.8719 12.0465 21.4005 12.5668C21.9291 13.0871 22.2362 13.7916 22.2577 14.533C22.2662 14.6608 22.2662 14.789 22.2577 14.9168L22.2577 14.9168Z" fill="white"/>
</svg>
