<svg width="38" height="39" viewBox="0 0 38 39" fill="none" xmlns="http://www.w3.org/2000/svg">
<circle cx="18.9182" cy="19.6547" r="18.76" transform="rotate(0.485734 18.9182 19.6547)" fill="#000EDC"/>
<path d="M14.0933 21.8107C14.0933 23.6107 14.0933 25.4107 14.0933 27.2107C14.0933 27.8107 14.0933 27.8107 13.4733 27.8107C12.5433 27.8107 11.6133 27.8007 10.6733 27.8107C10.3333 27.8107 10.2133 27.7007 10.2133 27.3507C10.2233 23.6507 10.2233 19.9507 10.2133 16.2407C10.2133 15.9207 10.3233 15.7907 10.6533 15.8007C11.6733 15.8107 12.6933 15.8207 13.7133 15.8007C14.0533 15.8007 14.1033 15.9807 14.1033 16.2507C14.0833 18.1107 14.0933 19.9607 14.0933 21.8107ZM12.1433 14.3407C10.9633 14.3307 9.92334 13.3007 9.92334 12.1207C9.92334 10.9207 10.9133 9.9007 12.0833 9.8907C13.3933 9.8807 14.3433 10.8107 14.3433 12.0907C14.3433 13.3607 13.3733 14.3407 12.1433 14.3407ZM27.8633 27.4007C27.8633 27.6807 27.7633 27.8207 27.4733 27.8107C26.4533 27.8007 25.4333 27.8007 24.4133 27.8107C24.1133 27.8107 24.0233 27.6707 24.0333 27.3907C24.0433 26.2307 24.0433 25.0707 24.0333 23.9207C24.0233 22.9207 24.0133 21.9307 23.9733 20.9407C23.9533 20.4107 23.8833 19.8907 23.5133 19.4507C23.0333 18.8907 22.3933 18.8107 21.7233 18.9207C21.0133 19.0407 20.4633 19.4407 20.3033 20.1607C20.1533 20.8507 20.0933 21.5707 20.0833 22.2807C20.0533 23.9907 20.0633 25.7007 20.0633 27.4107C20.0633 27.7007 19.9333 27.8107 19.6533 27.8107C18.6433 27.8007 17.6333 27.8007 16.6333 27.8107C16.3333 27.8107 16.2433 27.6807 16.2433 27.4007C16.2433 23.6607 16.2433 19.9207 16.2433 16.1807C16.2433 15.9407 16.3033 15.8007 16.5733 15.8007C17.5633 15.8007 18.5633 15.7807 19.5533 15.7707C19.8233 15.7707 19.9233 15.9207 19.9133 16.1907C19.8933 16.4907 19.9133 16.7907 19.9133 17.0907C19.9433 17.1007 19.9733 17.1207 19.9933 17.1307C20.3933 16.5307 20.9433 16.1307 21.5833 15.8507C22.5733 15.4207 23.6033 15.3807 24.6533 15.6007C26.2433 15.9207 27.1633 16.8907 27.5733 18.4407C27.8533 19.5107 27.8833 20.6007 27.8833 21.6907C27.8733 22.7207 27.9133 23.7607 27.9133 24.7907C27.8933 25.6607 27.8733 26.5307 27.8633 27.4007Z" fill="white"/>
</svg>
