<svg id="Layer_1" data-name="Layer 1" xmlns="http://www.w3.org/2000/svg" viewBox="0 0 16.25 12"><path d="M15.91,2.28a1.87,1.87,0,0,0-.52-.86,2.09,2.09,0,0,0-.91-.5A48.68,48.68,0,0,0,8.12.58,54.08,54.08,0,0,0,1.76.9a2.09,2.09,0,0,0-.9.52,2,2,0,0,0-.53.86A19.35,19.35,0,0,0,0,6,19.35,19.35,0,0,0,.33,9.72a1.92,1.92,0,0,0,.52.86,2.15,2.15,0,0,0,.91.5,48.83,48.83,0,0,0,6.36.34,54,54,0,0,0,6.36-.32,2.09,2.09,0,0,0,.91-.5,1.92,1.92,0,0,0,.52-.86A20.27,20.27,0,0,0,16.25,6a18.73,18.73,0,0,0-.34-3.74Zm-9.41,6V3.68L10.74,6Z"/></svg>