<?xml version="1.0" encoding="utf-8"?>
<!-- Generator: Adobe Illustrator 25.2.3, SVG Export Plug-In . SVG Version: 6.00 Build 0)  -->
<svg version="1.1" id="Layer_1" focusable="false" xmlns="http://www.w3.org/2000/svg" xmlns:xlink="http://www.w3.org/1999/xlink"
	 x="0px" y="0px" viewBox="0 0 16.2 12" style="enable-background:new 0 0 16.2 12;" xml:space="preserve">
<g>
	<g>
		<g>
			<path d="M15.9,2.3c-0.1-0.3-0.3-0.6-0.5-0.9c-0.3-0.2-0.6-0.4-0.9-0.5c-1.3-0.3-6.4-0.3-6.4-0.3C6,0.6,3.9,0.7,1.8,0.9
				C1.4,1,1.1,1.2,0.9,1.4C0.6,1.7,0.4,2,0.3,2.3C0.1,3.5,0,4.8,0,6c0,1.2,0.1,2.5,0.3,3.7c0.1,0.3,0.3,0.6,0.5,0.9s0.6,0.4,0.9,0.5
				c1.3,0.3,6.4,0.3,6.4,0.3c2.1,0,4.3-0.1,6.4-0.3c0.3-0.1,0.7-0.3,0.9-0.5c0.3-0.2,0.4-0.5,0.5-0.9c0.2-1.2,0.3-2.5,0.3-3.7
				C16.3,4.8,16.2,3.5,15.9,2.3L15.9,2.3z M6.5,8.3V3.7L10.7,6L6.5,8.3z"/>
		</g>
	</g>
</g>
</svg>
