<svg class="peak-logo-svg" width="97" height="97" viewBox="0 0 97 97" fill="none" xmlns="http://www.w3.org/2000/svg">
<path fill-rule="evenodd" clip-rule="evenodd" d="M0.0585937 48.5198C0.0585937 21.7549 21.7549 0.0585938 48.5198 0.0585938C75.2837 0.0585938 96.981 21.7558 96.981 48.5198C96.981 75.2837 75.2847 96.981 48.5198 96.981C21.7549 96.981 0.0585937 75.2847 0.0585937 48.5198ZM14.6452 51.671H17.9561C23.3879 51.671 26.7573 49.0281 26.7573 44.6703C26.7573 40.3136 23.3879 37.6707 17.9561 37.6707H10.0264L10.0264 59.3971H14.6452V51.671ZM33.8066 41.7665H43.6819V37.6716H29.1879V59.3981H43.6819V55.3023H33.8066V50.3642H43.0723V46.2684H33.8066V41.7665ZM62.1715 57.654L62.8512 59.3962L67.8789 59.3962L59.1936 37.6707H54.2866L45.5731 59.3962H50.5687L51.149 57.9072C51.1968 57.7874 51.2464 57.6686 51.3048 57.5547C52.4169 55.3851 54.4716 53.9994 56.7211 53.9994C58.9093 53.9994 60.8948 55.2828 62.0332 57.3521C62.0858 57.4495 62.1325 57.5508 62.1715 57.654ZM74.2817 51.9232L77.4816 48.6649L83.4743 59.3991H89.3785L81.0593 45.0589L88.3891 37.6415H82.5716L74.2817 45.9314V37.6415H69.6571V59.3981H74.2817V51.9232ZM17.9574 41.7651H14.6465V47.5748H17.9574C20.5711 47.5748 22.024 46.529 22.024 44.67C22.024 42.811 20.572 41.7651 17.9574 41.7651ZM54.2316 50.0132C55.035 49.8019 55.8706 49.6909 56.7226 49.6909C57.5689 49.6909 58.3956 49.798 59.1893 50.0015L56.7246 43.6553L54.2316 50.0132Z" fill="black"/>
</svg>
