<svg width="348" height="348" viewBox="0 0 348 348" fill="none" xmlns="http://www.w3.org/2000/svg">
<path d="M80.9567 27.9161C82.0202 27.9921 82.8937 28.5238 83.5394 29.5113C84.1851 30.4799 84.356 31.4864 84.0142 32.5118C83.6723 33.5373 82.8937 34.4679 81.6593 35.2845L79.7983 36.5189L82.324 40.317L80.6338 41.4374L73.9302 31.3914L77.4814 29.0366C78.7348 28.201 79.8932 27.8402 80.9567 27.9161ZM80.6528 33.7652C81.3745 33.2905 81.8302 32.7777 82.0201 32.246C82.2101 31.7142 82.1341 31.1825 81.7923 30.6698C81.4504 30.157 80.9947 29.8722 80.4249 29.8532C79.8552 29.8342 79.2096 30.0621 78.4879 30.5368L76.6268 31.7712L78.7918 34.9996L80.6528 33.7652Z" fill="white"/>
<path d="M92.1231 22.3141L87.1856 25.1247L88.7618 27.8973L93.3765 25.2766L94.2691 26.8528L89.6544 29.4735L91.3635 32.493L96.3011 29.6824L97.1936 31.2586L90.49 35.0757L84.5079 24.5739L91.2116 20.7568L92.1231 22.3141Z" fill="white"/>
<path d="M98.1432 17.2626L100.099 16.332L109.727 25.1247L107.752 26.0742L105.682 24.1751L100.688 26.5489L100.859 29.3406L98.8838 30.2901L98.1432 17.2626ZM104.258 22.8648L100.251 19.1616L100.593 24.6119L104.258 22.8648Z" fill="white"/>
<path d="M111.797 24.3074L107.505 13.027L109.405 12.3054L111.228 17.072L114.247 10.4633L116.64 9.55176L114.133 15.116L121.464 20.6422L119.052 21.5538L113.222 17.129L112.158 19.5028L113.715 23.5668L111.797 24.3074Z" fill="white"/>
<path d="M131.813 14.7747C131.32 14.6228 130.883 14.3759 130.522 13.9961C130.161 13.6163 129.914 13.1795 129.781 12.6478C129.648 12.1351 129.667 11.6223 129.8 11.1286C129.933 10.6348 130.199 10.198 130.579 9.8372C130.94 9.47638 131.396 9.22951 131.908 9.09657C132.421 8.96364 132.915 8.98263 133.428 9.11556C133.921 9.26749 134.358 9.51436 134.719 9.89417C135.08 10.255 135.327 10.7108 135.46 11.2045C135.593 11.7363 135.592 12.23 135.441 12.7428C135.289 13.2365 135.042 13.6733 134.662 14.0341C134.301 14.3949 133.845 14.6418 133.333 14.7747C132.82 14.9457 132.326 14.9267 131.813 14.7747Z" fill="white"/>
<path d="M149.551 13.5593C148.753 13.2934 148.088 12.8376 147.538 12.2299C146.987 11.6222 146.645 10.8816 146.493 10.008L148.563 9.72319C148.658 10.2169 148.886 10.6537 149.209 11.0145C149.532 11.3754 149.949 11.6222 150.405 11.7932C150.88 11.9451 151.374 12.0021 151.905 11.9261C152.551 11.8311 153.064 11.6033 153.463 11.2234C153.861 10.8436 154.013 10.4068 153.956 9.8941C153.899 9.47631 153.729 9.15347 153.444 8.92558C153.159 8.6977 152.817 8.56476 152.418 8.4888C152.019 8.41284 151.488 8.35587 150.785 8.31789C149.892 8.24192 149.152 8.14697 148.582 8.01404C148.012 7.90009 147.519 7.61524 147.082 7.21643C146.607 6.81763 146.341 6.20994 146.227 5.39334C146.132 4.74766 146.246 4.13997 146.55 3.58924C146.854 3.03851 147.329 2.56375 147.936 2.20293C148.563 1.82312 149.304 1.59523 150.158 1.48129C150.994 1.36734 151.773 1.42432 152.513 1.6522C153.235 1.88009 153.862 2.2599 154.374 2.77265C154.887 3.28539 155.21 3.89309 155.381 4.59574L153.254 4.8806C153.083 4.31088 152.722 3.8741 152.171 3.57025C151.621 3.2664 150.956 3.17145 150.196 3.2664C149.551 3.36135 149.057 3.55126 148.696 3.8741C148.335 4.19694 148.202 4.57675 148.259 5.01353C148.297 5.35536 148.449 5.62123 148.715 5.79214C148.981 5.96306 149.285 6.09599 149.646 6.15296C150.006 6.20994 150.519 6.26691 151.146 6.30489C152.076 6.38085 152.836 6.4758 153.444 6.60874C154.051 6.74167 154.583 7.04552 155.077 7.4823C155.571 7.91909 155.856 8.60275 155.988 9.4953C156.083 10.2169 155.988 10.8816 155.685 11.4893C155.381 12.097 154.925 12.6098 154.279 13.0086C153.653 13.4074 152.893 13.6732 152.019 13.7872C151.165 13.9011 150.348 13.8251 149.551 13.5593Z" fill="white"/>
<path d="M161.268 12.6283L159.236 12.7803L158.381 0.72126L160.413 0.569336L161.268 12.6283Z" fill="white"/>
<path d="M174.143 0L174.447 12.078L171.807 12.154L167.06 3.85508L166.509 2.77262L166.756 12.2869L164.724 12.3439L164.42 0.265868L167.06 0.189906L171.732 8.35584L172.339 9.59023L172.092 0.0759622L174.143 0Z" fill="white"/>
<path d="M186.202 0.816404C186.905 1.19621 187.475 1.70896 187.912 2.39262C188.348 3.05729 188.633 3.8359 188.728 4.70947L186.658 4.59552C186.525 3.89287 186.183 3.28518 185.614 2.81041C185.063 2.33565 184.398 2.06978 183.658 2.0318C182.974 1.97483 182.309 2.12675 181.721 2.46858C181.132 2.81041 180.638 3.30417 180.296 3.93085C179.935 4.57653 179.727 5.31716 179.689 6.15275C179.651 7.00732 179.765 7.76695 180.049 8.45061C180.334 9.13426 180.771 9.666 181.341 10.0838C181.91 10.4826 182.575 10.7105 183.316 10.7485C184.132 10.8054 184.854 10.5965 185.5 10.1218C186.126 9.666 186.563 9.03931 186.772 8.2607L188.842 8.37464C188.633 9.24821 188.272 10.0268 187.722 10.6915C187.171 11.3562 186.506 11.8499 185.728 12.1917C184.949 12.5336 184.094 12.6665 183.202 12.6095C182.062 12.5526 181.056 12.2107 180.182 11.622C179.309 11.0333 178.644 10.2547 178.188 9.2672C177.733 8.29868 177.524 7.21622 177.6 6.01981C177.676 4.82341 177.979 3.77893 178.549 2.86738C179.119 1.95584 179.86 1.25319 180.809 0.778423C181.759 0.303659 182.784 0.0947626 183.923 0.151734C184.759 0.227696 185.519 0.436593 186.202 0.816404Z" fill="white"/>
<path d="M200.407 3.91162L194.767 3.152L194.349 6.30443L199.61 7.00708L199.363 8.7922L194.102 8.08955L193.647 11.5268L199.287 12.2865L199.04 14.0716L191.387 13.0461L192.982 1.08203L200.635 2.10752L200.407 3.91162Z" fill="white"/>
<path d="M214.137 5.10824C214.669 5.54503 215.03 6.05777 215.258 6.64648C215.467 7.25418 215.505 7.88086 215.353 8.54553C215.182 9.30516 214.878 9.93184 214.422 10.4256C213.967 10.9194 213.492 11.2802 212.96 11.5271C212.428 11.7739 211.764 12.0208 210.985 12.2677C210.415 12.4386 209.96 12.6095 209.637 12.7424C209.314 12.8754 209.029 13.0463 208.782 13.2552C208.535 13.4641 208.383 13.73 208.307 14.0338L213.682 15.2492L213.283 17.0153L205.649 15.2682L205.82 14.5276C206.047 13.559 206.389 12.7994 206.864 12.2297C207.339 11.66 207.852 11.2422 208.383 10.9763C208.915 10.7105 209.618 10.4446 210.434 10.1977C211.042 10.0078 211.517 9.83689 211.859 9.68497C212.2 9.53304 212.504 9.32415 212.77 9.07727C213.036 8.8114 213.226 8.48856 213.321 8.05178C213.435 7.53903 213.34 7.10225 213.055 6.70345C212.77 6.30465 212.352 6.05777 211.783 5.92484C211.194 5.7919 210.624 5.88686 210.111 6.2097C209.599 6.53253 209.238 7.08326 209.01 7.88086L207.092 7.44408C207.32 6.58951 207.7 5.88686 208.212 5.33613C208.725 4.7854 209.333 4.40559 210.016 4.21569C210.7 4.02578 211.422 4.00679 212.181 4.17771C212.979 4.3866 213.625 4.67146 214.137 5.10824Z" fill="white"/>
<path d="M225.532 8.58421C226.007 9.24888 226.291 10.0845 226.348 11.072C226.405 12.0595 226.253 13.1799 225.874 14.4143C225.494 15.6487 225.019 16.6742 224.411 17.4718C223.804 18.2694 223.12 18.8201 222.36 19.105C221.601 19.3898 220.784 19.4088 219.93 19.143C219.056 18.8771 218.391 18.4213 217.917 17.7566C217.442 17.092 217.157 16.2564 217.1 15.2689C217.043 14.2814 217.195 13.1609 217.556 11.9265C217.936 10.6922 218.41 9.66667 219.018 8.86907C219.626 8.07147 220.309 7.53973 221.069 7.25487C221.829 6.97002 222.645 6.95102 223.519 7.21689C224.392 7.46377 225.057 7.91954 225.532 8.58421ZM219.17 15.8006C219.341 16.6172 219.778 17.13 220.461 17.3389C221.164 17.5478 221.81 17.3578 222.398 16.7691C222.987 16.1804 223.481 15.1929 223.899 13.8256C224.316 12.4393 224.43 11.3378 224.278 10.5212C224.108 9.70465 223.69 9.19191 222.987 8.98301C222.284 8.77412 221.639 8.96402 221.05 9.55273C220.461 10.1414 219.968 11.1289 219.55 12.5153C219.132 13.8826 218.999 14.984 219.17 15.8006Z" fill="white"/>
<path d="M237.002 12.648C237.439 13.3507 237.648 14.1863 237.629 15.1928C237.61 16.1993 237.382 17.3007 236.926 18.4971C236.47 19.6935 235.92 20.681 235.255 21.4407C234.59 22.2003 233.888 22.694 233.09 22.9219C232.292 23.1498 231.495 23.1118 230.659 22.789C229.824 22.4662 229.178 21.9534 228.741 21.2698C228.304 20.5671 228.095 19.7315 228.095 18.725C228.095 17.7185 228.342 16.6171 228.798 15.4207C229.254 14.2053 229.824 13.2367 230.469 12.4771C231.134 11.7175 231.856 11.2427 232.634 10.9959C233.413 10.749 234.229 10.806 235.084 11.1288C235.939 11.4516 236.565 11.9454 237.002 12.648ZM230.146 19.3897C230.26 20.2063 230.64 20.757 231.343 21.0229C232.027 21.2887 232.691 21.1368 233.318 20.5861C233.945 20.0354 234.514 19.0858 235.027 17.7565C235.54 16.4082 235.749 15.3257 235.635 14.4901C235.521 13.6545 235.141 13.1228 234.457 12.8569C233.774 12.5911 233.109 12.743 232.482 13.2747C231.856 13.8255 231.286 14.775 230.773 16.1233C230.241 17.4906 230.032 18.5731 230.146 19.3897Z" fill="white"/>
<path d="M245.32 20.3576C244.522 20.8513 243.782 21.478 243.117 22.2566C242.452 23.0162 241.864 23.9848 241.332 25.1432C241.123 25.58 240.914 26.1307 240.686 26.7574L238.806 25.9028C239.015 25.3141 239.224 24.8014 239.414 24.3836C240.173 22.7124 241.123 21.3831 242.243 20.3576C243.383 19.3511 244.712 18.5535 246.25 18.0027L240.781 15.515L241.522 13.8628L248.985 17.2621L248.225 18.9333C247.105 19.389 246.136 19.8638 245.32 20.3576Z" fill="white"/>
<path d="M255.841 31.5431C255.594 31.0873 255.461 30.5935 255.48 30.0808C255.48 29.5491 255.632 29.0553 255.898 28.5995C256.164 28.1438 256.524 27.8019 256.98 27.5361C257.436 27.2702 257.93 27.1562 258.442 27.1562C258.955 27.1562 259.449 27.2892 259.924 27.574C260.379 27.8399 260.721 28.2007 260.968 28.6565C261.215 29.1123 261.348 29.606 261.348 30.1188C261.348 30.6315 261.215 31.1253 260.949 31.581C260.683 32.0368 260.304 32.3976 259.848 32.6635C259.392 32.9104 258.898 33.0433 258.385 33.0433C257.873 33.0433 257.379 32.9104 256.923 32.6445C256.448 32.3597 256.088 31.9988 255.841 31.5431Z" fill="white"/>
<path d="M283.776 40.8674C284.023 41.9118 283.776 42.8993 283.054 43.8109C282.314 44.7224 281.421 45.1782 280.339 45.1782C279.256 45.1782 278.136 44.7034 276.977 43.7919L275.23 42.4056L272.381 45.9758L270.786 44.7034L278.307 35.2651L281.63 37.9238C282.826 38.8354 283.529 39.8229 283.776 40.8674ZM278.117 42.3676C278.781 42.8993 279.408 43.1842 279.978 43.2032C280.547 43.2222 281.022 42.9943 281.421 42.5005C281.801 42.0068 281.934 41.494 281.763 40.9433C281.611 40.3926 281.193 39.8609 280.528 39.3101L278.781 37.9238L276.351 40.9623L278.117 42.3676Z" fill="white"/>
<path d="M292.493 49.7363L288.296 45.9002L286.15 48.236L290.062 51.8252L288.846 53.1546L284.934 49.5653L282.579 52.1291L286.776 55.9652L285.561 57.2945L279.864 52.0721L288.011 43.1655L293.708 48.3689L292.493 49.7363Z" fill="white"/>
<path d="M299.177 53.9526L300.658 55.5289L295.246 67.398L293.746 65.8027L294.923 63.258L291.144 59.232L288.543 60.2575L287.042 58.6623L299.177 53.9526ZM295.721 61.4919L298.019 56.5354L292.929 58.5294L295.721 61.4919Z" fill="white"/>
<path d="M296.651 69.0875L306.071 61.5293L307.343 63.1245L303.374 66.3149L310.59 67.1505L312.205 69.1445L306.128 68.4608L303.127 77.1395L301.513 75.1265L303.925 68.233L301.342 67.9481L297.943 70.6827L296.651 69.0875Z" fill="white"/>
<path d="M311.882 85.2109C311.863 84.6982 311.977 84.2044 312.224 83.7297C312.471 83.2549 312.812 82.8941 313.268 82.6092C313.705 82.3244 314.199 82.1724 314.711 82.1724C315.224 82.1535 315.718 82.2674 316.174 82.5143C316.629 82.7612 317.009 83.103 317.294 83.5588C317.579 83.9955 317.712 84.4893 317.731 85.002C317.75 85.5148 317.636 86.0085 317.389 86.4643C317.142 86.9201 316.8 87.2999 316.364 87.5847C315.908 87.8696 315.414 88.0215 314.901 88.0405C314.389 88.0595 313.895 87.9456 313.42 87.7177C312.964 87.4708 312.584 87.129 312.319 86.6922C312.053 86.2174 311.901 85.7237 311.882 85.2109Z" fill="white"/>
<path d="M318.529 101.694C318.548 100.859 318.756 100.08 319.155 99.3773C319.573 98.6557 320.162 98.1049 320.94 97.7061L321.833 99.5862C321.396 99.8331 321.054 100.175 320.807 100.593C320.579 101.01 320.447 101.485 320.447 101.979C320.447 102.473 320.542 102.967 320.769 103.441C321.054 104.03 321.434 104.448 321.909 104.695C322.384 104.961 322.858 104.98 323.314 104.752C323.694 104.562 323.96 104.296 324.074 103.954C324.188 103.612 324.226 103.232 324.169 102.853C324.112 102.454 323.998 101.922 323.846 101.257C323.637 100.384 323.504 99.6432 323.447 99.0734C323.39 98.5037 323.485 97.934 323.751 97.3833C323.998 96.8326 324.511 96.3768 325.251 96.035C325.84 95.7501 326.448 95.6741 327.074 95.7881C327.701 95.902 328.29 96.2059 328.821 96.6806C329.372 97.1554 329.828 97.7821 330.189 98.5607C330.55 99.3203 330.739 100.08 330.739 100.84C330.739 101.599 330.569 102.321 330.246 102.967C329.904 103.612 329.429 104.106 328.821 104.486L327.91 102.549C328.404 102.207 328.707 101.732 328.821 101.124C328.935 100.498 328.821 99.8521 328.499 99.1494C328.214 98.5607 327.872 98.1619 327.473 97.915C327.074 97.6681 326.656 97.6492 326.258 97.8391C325.954 97.991 325.745 98.2189 325.65 98.5227C325.555 98.8266 325.555 99.1494 325.593 99.5292C325.631 99.909 325.745 100.384 325.916 101.01C326.144 101.922 326.277 102.682 326.334 103.289C326.391 103.897 326.277 104.505 325.992 105.112C325.707 105.72 325.156 106.214 324.34 106.594C323.694 106.898 323.029 107.011 322.365 106.917C321.7 106.822 321.073 106.537 320.485 106.043C319.896 105.549 319.421 104.923 319.041 104.125C318.699 103.346 318.51 102.53 318.529 101.694Z" fill="white"/>
<path d="M323.029 112.595L322.251 110.715L333.398 106.081L334.177 107.961L323.029 112.595Z" fill="white"/>
<path d="M338.943 120.932L327.549 124.901L326.675 122.394L333.132 115.33L334.006 114.475L325.004 117.609L324.34 115.691L335.734 111.722L336.608 114.228L330.246 121.16L329.258 122.11L338.26 118.976L338.943 120.932Z" fill="white"/>
<path d="M341.849 132.725C341.697 133.504 341.374 134.207 340.88 134.833C340.387 135.46 339.722 135.954 338.924 136.315L338.412 134.321C339.038 133.979 339.513 133.466 339.798 132.782C340.083 132.099 340.14 131.396 339.95 130.693C339.779 130.01 339.437 129.421 338.924 128.965C338.431 128.49 337.804 128.187 337.082 128.054C336.361 127.902 335.601 127.94 334.784 128.149C333.968 128.358 333.265 128.699 332.714 129.193C332.164 129.668 331.765 130.257 331.556 130.921C331.347 131.586 331.328 132.289 331.518 133.01C331.727 133.808 332.145 134.434 332.771 134.89C333.398 135.365 334.12 135.574 334.936 135.536L335.449 137.549C334.538 137.625 333.702 137.511 332.904 137.188C332.107 136.865 331.442 136.391 330.872 135.745C330.322 135.099 329.923 134.34 329.695 133.466C329.41 132.365 329.41 131.301 329.714 130.295C330.018 129.288 330.55 128.414 331.347 127.674C332.145 126.933 333.113 126.42 334.272 126.117C335.43 125.813 336.532 125.794 337.557 126.06C338.602 126.326 339.494 126.819 340.235 127.579C340.975 128.32 341.488 129.25 341.773 130.352C341.963 131.149 342.001 131.947 341.849 132.725Z" fill="white"/>
<path d="M343.216 147.177L342.21 141.575L339.076 142.125L340.007 147.348L338.222 147.671L337.291 142.448L333.873 143.056L334.879 148.658L333.094 148.981L331.746 141.385L343.634 139.258L344.982 146.854L343.216 147.177Z" fill="white"/>
<path d="M346.274 160.812C346.027 161.439 345.628 161.952 345.115 162.331C344.603 162.711 344.014 162.939 343.33 162.977C342.552 163.034 341.849 162.92 341.26 162.635C340.672 162.35 340.178 161.99 339.779 161.553C339.38 161.116 338.962 160.565 338.488 159.882C338.146 159.388 337.861 159.008 337.652 158.742C337.443 158.476 337.177 158.248 336.911 158.077C336.646 157.907 336.342 157.831 336.019 157.85L336.418 163.338L334.614 163.471L334.044 155.666L334.803 155.609C335.791 155.533 336.627 155.647 337.31 155.932C337.994 156.216 338.545 156.577 338.943 157.033C339.361 157.47 339.817 158.058 340.292 158.78C340.653 159.312 340.956 159.711 341.203 159.996C341.45 160.28 341.735 160.508 342.058 160.698C342.381 160.869 342.761 160.964 343.197 160.926C343.71 160.888 344.109 160.679 344.413 160.28C344.698 159.901 344.83 159.407 344.792 158.837C344.755 158.229 344.489 157.717 344.033 157.337C343.577 156.957 342.931 156.748 342.115 156.767L341.963 154.792C342.836 154.773 343.634 154.925 344.318 155.248C345.001 155.571 345.533 156.045 345.932 156.634C346.331 157.242 346.54 157.926 346.597 158.685C346.616 159.483 346.521 160.185 346.274 160.812Z" fill="white"/>
<path d="M346.483 172.492C346.008 173.156 345.305 173.669 344.375 174.03C343.444 174.391 342.343 174.581 341.051 174.619C339.76 174.657 338.639 174.505 337.709 174.182C336.759 173.859 336.038 173.365 335.525 172.72C335.012 172.074 334.746 171.295 334.727 170.422C334.708 169.51 334.936 168.732 335.43 168.067C335.905 167.402 336.607 166.89 337.538 166.529C338.469 166.168 339.57 165.959 340.861 165.94C342.153 165.921 343.273 166.073 344.204 166.396C345.153 166.719 345.875 167.212 346.388 167.858C346.9 168.504 347.166 169.282 347.185 170.175C347.204 171.049 346.957 171.827 346.483 172.492ZM337.652 168.656C336.93 169.055 336.57 169.624 336.589 170.365C336.607 171.105 336.987 171.656 337.728 172.036C338.469 172.416 339.551 172.587 340.994 172.549C342.438 172.511 343.52 172.302 344.242 171.884C344.963 171.466 345.324 170.897 345.305 170.175C345.286 169.434 344.906 168.884 344.166 168.504C343.425 168.124 342.324 167.953 340.88 167.972C339.456 168.029 338.374 168.238 337.652 168.656Z" fill="white"/>
<path d="M346.141 184.664C345.609 185.291 344.869 185.747 343.919 186.051C342.969 186.355 341.849 186.469 340.558 186.393C339.266 186.336 338.165 186.108 337.253 185.709C336.342 185.31 335.639 184.778 335.183 184.114C334.728 183.43 334.519 182.651 334.557 181.759C334.595 180.847 334.879 180.088 335.411 179.461C335.943 178.834 336.684 178.379 337.633 178.075C338.583 177.771 339.703 177.657 340.994 177.714C342.286 177.771 343.387 177.999 344.299 178.398C345.21 178.796 345.913 179.328 346.369 180.012C346.825 180.695 347.033 181.474 346.995 182.386C346.957 183.297 346.673 184.038 346.141 184.664ZM337.595 180.221C336.854 180.581 336.456 181.113 336.418 181.854C336.38 182.575 336.722 183.164 337.424 183.601C338.146 184.019 339.209 184.285 340.653 184.342C342.096 184.418 343.197 184.266 343.957 183.924C344.717 183.563 345.115 183.031 345.134 182.291C345.172 181.55 344.831 180.98 344.128 180.543C343.425 180.107 342.343 179.86 340.88 179.784C339.456 179.727 338.355 179.86 337.595 180.221Z" fill="white"/>
<path d="M341.374 194.938C340.653 194.33 339.817 193.818 338.886 193.438C337.956 193.039 336.854 192.773 335.582 192.621C335.107 192.564 334.519 192.526 333.835 192.507L334.063 190.456C334.69 190.475 335.24 190.513 335.696 190.57C337.519 190.779 339.076 191.254 340.387 192.033C341.697 192.792 342.856 193.818 343.862 195.109L344.546 189.146L346.35 189.355L345.419 197.502L343.615 197.293C342.837 196.343 342.096 195.565 341.374 194.938Z" fill="white"/>
<path d="M333.968 208.402C334.329 208.023 334.746 207.757 335.259 207.605C335.753 207.453 336.266 207.434 336.797 207.548C337.31 207.662 337.747 207.909 338.127 208.251C338.507 208.611 338.772 209.029 338.924 209.523C339.076 210.017 339.095 210.529 338.981 211.042C338.867 211.555 338.621 211.992 338.279 212.371C337.918 212.751 337.5 213.017 337.006 213.169C336.513 213.321 336 213.34 335.487 213.226C334.955 213.112 334.519 212.865 334.12 212.504C333.74 212.144 333.474 211.726 333.303 211.232C333.151 210.738 333.132 210.226 333.246 209.713C333.379 209.238 333.607 208.782 333.968 208.402Z" fill="white"/>
<path d="M333.664 237.856C332.752 238.407 331.746 238.483 330.645 238.065C329.543 237.647 328.84 236.926 328.518 235.9C328.195 234.875 328.29 233.659 328.821 232.273L329.619 230.184L325.346 228.57L326.068 226.671L337.367 230.944L335.867 234.932C335.297 236.337 334.595 237.306 333.664 237.856ZM330.512 232.919C330.208 233.716 330.132 234.4 330.284 234.951C330.436 235.502 330.796 235.881 331.385 236.109C331.974 236.337 332.506 236.28 332.98 235.976C333.455 235.653 333.854 235.103 334.158 234.305L334.955 232.216L331.309 230.849L330.512 232.919Z" fill="white"/>
<path d="M327.872 248.909L330.246 243.744L327.359 242.414L325.137 247.238L323.504 246.478L325.726 241.655L322.573 240.212L320.2 245.377L318.547 244.617L321.776 237.61L332.733 242.661L329.505 249.669L327.872 248.909Z" fill="white"/>
<path d="M325.897 256.562L324.852 258.461L311.901 256.923L312.964 255.005L315.737 255.346L318.415 250.523L316.649 248.339L317.712 246.421L325.897 256.562ZM317.655 255.574L323.067 256.258L319.611 252.023L317.655 255.574Z" fill="white"/>
<path d="M310.704 258.765L320.769 265.43L319.649 267.121L315.395 264.31L316.8 271.431L315.376 273.577L314.161 267.595L304.988 267.386L306.413 265.24L313.724 265.43L313.211 262.886L309.565 260.474L310.704 258.765Z" fill="white"/>
<path d="M300.81 277.205C301.304 277.034 301.798 276.977 302.311 277.072C302.823 277.148 303.298 277.376 303.716 277.718C304.115 278.06 304.418 278.458 304.589 278.952C304.76 279.446 304.817 279.94 304.722 280.452C304.627 280.965 304.418 281.421 304.077 281.839C303.735 282.238 303.336 282.541 302.842 282.712C302.349 282.883 301.855 282.94 301.342 282.845C300.829 282.75 300.374 282.56 299.975 282.219C299.557 281.877 299.253 281.459 299.082 280.965C298.911 280.471 298.854 279.978 298.93 279.465C299.006 278.952 299.215 278.496 299.557 278.098C299.918 277.661 300.336 277.376 300.81 277.205Z" fill="white"/>
<path d="M287.289 288.619C288.087 288.372 288.884 288.334 289.682 288.486C290.479 288.657 291.201 289.037 291.847 289.663L290.347 291.107C289.967 290.765 289.549 290.556 289.074 290.461C288.599 290.366 288.125 290.385 287.65 290.537C287.175 290.689 286.757 290.936 286.377 291.316C285.903 291.771 285.637 292.265 285.542 292.797C285.447 293.329 285.58 293.784 285.922 294.145C286.226 294.449 286.548 294.62 286.909 294.62C287.27 294.62 287.631 294.544 287.992 294.354C288.352 294.183 288.827 293.898 289.416 293.537C290.195 293.063 290.84 292.702 291.372 292.474C291.904 292.246 292.473 292.151 293.062 292.227C293.67 292.303 294.24 292.626 294.809 293.215C295.265 293.689 295.531 294.24 295.607 294.867C295.683 295.493 295.588 296.139 295.303 296.823C295.018 297.487 294.562 298.133 293.955 298.722C293.347 299.311 292.682 299.709 291.961 299.956C291.239 300.203 290.517 300.26 289.796 300.146C289.074 300.032 288.447 299.747 287.916 299.273L289.454 297.791C289.929 298.152 290.479 298.304 291.106 298.209C291.733 298.114 292.322 297.81 292.872 297.279C293.328 296.823 293.613 296.367 293.727 295.911C293.822 295.456 293.727 295.057 293.404 294.734C293.157 294.487 292.891 294.373 292.587 294.373C292.265 294.373 291.961 294.468 291.619 294.639C291.296 294.81 290.859 295.057 290.309 295.399C289.511 295.892 288.827 296.253 288.277 296.5C287.707 296.747 287.099 296.823 286.453 296.747C285.789 296.671 285.162 296.31 284.535 295.645C284.042 295.133 283.719 294.525 283.605 293.86C283.491 293.196 283.567 292.512 283.833 291.809C284.099 291.107 284.573 290.461 285.2 289.834C285.789 289.303 286.491 288.885 287.289 288.619Z" fill="white"/>
<path d="M278.364 296.328L279.902 294.999L287.802 304.114L286.264 305.444L278.364 296.328Z" fill="white"/>
<path d="M275.439 314.085L268.071 304.513L270.16 302.899L278.895 306.811L279.978 307.362L274.167 299.823L275.781 298.588L283.149 308.16L281.06 309.774L272.476 305.938L271.261 305.311L277.072 312.85L275.439 314.085Z" fill="white"/>
<path d="M265.165 320.58C264.387 320.675 263.608 320.599 262.867 320.314C262.108 320.029 261.443 319.573 260.835 318.928L262.563 317.807C263.095 318.301 263.722 318.567 264.443 318.643C265.184 318.7 265.868 318.529 266.475 318.13C267.064 317.75 267.501 317.237 267.786 316.611C268.071 315.984 268.166 315.3 268.071 314.579C267.976 313.838 267.71 313.136 267.254 312.433C266.798 311.711 266.248 311.179 265.602 310.8C264.956 310.42 264.292 310.23 263.608 310.249C262.905 310.249 262.241 310.458 261.614 310.876C260.93 311.312 260.455 311.92 260.228 312.661C259.981 313.401 260 314.161 260.304 314.921L258.556 316.041C258.196 315.205 258.044 314.37 258.101 313.515C258.158 312.661 258.385 311.863 258.822 311.141C259.259 310.401 259.848 309.793 260.607 309.299C261.557 308.673 262.563 308.35 263.627 308.312C264.671 308.274 265.678 308.521 266.627 309.034C267.577 309.546 268.375 310.306 269.02 311.312C269.666 312.319 270.027 313.344 270.122 314.427C270.198 315.49 270.008 316.497 269.533 317.446C269.058 318.396 268.337 319.174 267.387 319.782C266.703 320.2 265.944 320.466 265.165 320.58Z" fill="white"/>
<path d="M251.91 326.41L256.904 323.694L255.385 320.902L250.713 323.428L249.859 321.833L254.53 319.288L252.878 316.231L247.884 318.946L247.01 317.351L253.79 313.667L259.563 324.283L252.783 327.967L251.91 326.41Z" fill="white"/>
<path d="M240.079 333.569C239.395 333.531 238.806 333.341 238.274 332.98C237.743 332.619 237.344 332.126 237.078 331.499C236.774 330.777 236.641 330.094 236.717 329.429C236.793 328.764 236.964 328.195 237.249 327.682C237.534 327.169 237.914 326.58 238.407 325.916C238.768 325.441 239.034 325.042 239.205 324.738C239.395 324.435 239.509 324.131 239.585 323.827C239.661 323.523 239.623 323.219 239.509 322.915L234.457 325.099L233.736 323.447L240.933 320.352L241.237 321.054C241.636 321.966 241.788 322.782 241.75 323.523C241.712 324.264 241.541 324.89 241.256 325.422C240.971 325.954 240.572 326.58 240.06 327.264C239.68 327.777 239.395 328.195 239.205 328.518C239.015 328.84 238.882 329.182 238.825 329.543C238.768 329.904 238.806 330.284 238.977 330.682C239.186 331.157 239.509 331.461 239.984 331.613C240.439 331.765 240.933 331.727 241.465 331.499C242.035 331.252 242.414 330.853 242.642 330.284C242.87 329.714 242.832 329.049 242.547 328.29L244.351 327.511C244.655 328.347 244.769 329.125 244.693 329.885C244.617 330.644 244.351 331.29 243.915 331.86C243.478 332.43 242.908 332.847 242.187 333.17C241.465 333.474 240.762 333.607 240.079 333.569Z" fill="white"/>
<path d="M228.817 337.5C228.038 337.254 227.336 336.741 226.69 335.962C226.063 335.203 225.513 334.196 225.095 332.981C224.677 331.765 224.468 330.664 224.468 329.657C224.468 328.651 224.715 327.815 225.171 327.132C225.627 326.448 226.272 325.954 227.108 325.65C227.963 325.346 228.779 325.328 229.558 325.574C230.336 325.821 231.039 326.334 231.685 327.094C232.33 327.853 232.862 328.86 233.28 330.075C233.717 331.291 233.907 332.411 233.888 333.398C233.869 334.405 233.641 335.241 233.185 335.924C232.729 336.608 232.083 337.102 231.229 337.405C230.412 337.728 229.596 337.747 228.817 337.5ZM229.71 327.91C229.102 327.359 228.437 327.189 227.754 327.435C227.07 327.682 226.652 328.214 226.519 329.031C226.386 329.847 226.576 330.949 227.051 332.297C227.526 333.664 228.076 334.614 228.684 335.184C229.292 335.753 229.957 335.905 230.64 335.677C231.324 335.43 231.742 334.899 231.875 334.082C232.008 333.266 231.818 332.164 231.343 330.797C230.868 329.429 230.317 328.461 229.71 327.91Z" fill="white"/>
<path d="M217.214 340.956C216.454 340.652 215.79 340.083 215.201 339.285C214.612 338.488 214.157 337.443 213.815 336.209C213.473 334.955 213.34 333.854 213.435 332.847C213.511 331.86 213.815 331.024 214.308 330.379C214.802 329.733 215.486 329.277 216.359 329.049C217.233 328.802 218.05 328.84 218.809 329.144C219.569 329.448 220.233 329.999 220.822 330.815C221.411 331.632 221.867 332.657 222.209 333.892C222.55 335.145 222.683 336.266 222.588 337.253C222.493 338.241 222.209 339.076 221.715 339.722C221.221 340.368 220.537 340.823 219.664 341.051C218.79 341.279 217.974 341.26 217.214 340.956ZM218.79 331.442C218.22 330.834 217.575 330.644 216.872 330.834C216.17 331.024 215.714 331.537 215.543 332.335C215.372 333.132 215.448 334.253 215.847 335.639C216.226 337.025 216.701 338.032 217.271 338.639C217.841 339.247 218.486 339.456 219.189 339.266C219.892 339.076 220.347 338.564 220.518 337.766C220.689 336.968 220.594 335.848 220.215 334.443C219.835 333.037 219.36 332.05 218.79 331.442Z" fill="white"/>
<path d="M205.934 339.627C206.294 338.753 206.503 337.804 206.598 336.797C206.674 335.791 206.598 334.651 206.332 333.417C206.237 332.942 206.085 332.373 205.896 331.727L207.909 331.309C208.079 331.917 208.231 332.429 208.326 332.885C208.687 334.67 208.725 336.323 208.402 337.804C208.079 339.285 207.472 340.709 206.56 342.077L212.447 340.861L212.808 342.627L204.775 344.28L204.414 342.495C205.06 341.469 205.573 340.5 205.934 339.627Z" fill="white"/>
<path d="M190.798 336.797C191.273 337.006 191.653 337.329 191.976 337.747C192.279 338.165 192.469 338.639 192.526 339.19C192.583 339.722 192.507 340.216 192.279 340.69C192.07 341.165 191.748 341.545 191.33 341.868C190.912 342.172 190.437 342.362 189.906 342.419C189.374 342.476 188.88 342.4 188.405 342.172C187.931 341.963 187.551 341.64 187.228 341.222C186.924 340.804 186.734 340.33 186.677 339.817C186.62 339.285 186.696 338.772 186.924 338.298C187.133 337.823 187.456 337.424 187.874 337.12C188.291 336.816 188.766 336.626 189.279 336.569C189.83 336.493 190.323 336.588 190.798 336.797Z" fill="white"/>
<path d="M162.787 345.799C161.97 345.097 161.591 344.166 161.629 343.008C161.667 341.83 162.141 340.938 162.996 340.292C163.869 339.665 165.047 339.38 166.528 339.437L168.75 339.532L168.94 334.975L170.972 335.051L170.497 347.11L166.243 346.939C164.762 346.882 163.604 346.502 162.787 345.799ZM166.471 341.241C165.617 341.204 164.952 341.355 164.458 341.678C163.983 342.001 163.737 342.476 163.699 343.103C163.661 343.729 163.888 344.204 164.325 344.565C164.781 344.907 165.427 345.116 166.281 345.154L168.503 345.249L168.655 341.355L166.471 341.241Z" fill="white"/>
<path d="M150.443 343.786L156.083 344.413L156.425 341.261L151.146 340.672L151.355 338.868L156.634 339.456L157.014 336.019L151.374 335.392L151.583 333.588L159.255 334.443L157.925 346.445L150.253 345.59L150.443 343.786Z" fill="white"/>
<path d="M142.581 344.337L140.454 343.938L137.833 331.157L139.998 331.556L140.549 334.31L145.98 335.335L147.481 332.98L149.646 333.379L142.581 344.337ZM140.948 336.209L142.011 341.564L144.936 336.949L140.948 336.209Z" fill="white"/>
<path d="M135.687 330.607L132.535 342.267L130.579 341.735L131.908 336.817L125.584 340.387L123.116 339.722L128.414 336.703L125.717 327.929L128.205 328.613L130.332 335.601L132.592 334.31L133.731 330.113L135.687 330.607Z" fill="white"/>
<path d="M113.924 326.562C114.247 326.979 114.437 327.435 114.513 327.948C114.589 328.461 114.532 328.974 114.323 329.467C114.133 329.961 113.829 330.36 113.412 330.683C112.994 331.005 112.538 331.195 112.025 331.271C111.513 331.347 111 331.29 110.506 331.081C110.012 330.892 109.614 330.588 109.291 330.17C108.968 329.752 108.778 329.296 108.702 328.784C108.626 328.271 108.683 327.777 108.873 327.283C109.082 326.79 109.386 326.372 109.784 326.049C110.202 325.726 110.658 325.517 111.171 325.441C111.684 325.365 112.177 325.422 112.671 325.612C113.184 325.84 113.602 326.144 113.924 326.562Z" fill="white"/>
<path d="M99.1306 317.276C99.6054 317.959 99.9092 318.7 99.9852 319.517C100.08 320.333 99.9282 321.131 99.5294 321.928L97.6873 320.941C97.8962 320.485 97.9722 320.01 97.9152 319.517C97.8583 319.042 97.6873 318.586 97.3835 318.187C97.0986 317.789 96.7188 317.466 96.2631 317.2C95.6933 316.896 95.1426 316.782 94.5919 316.858C94.0602 316.934 93.6613 317.2 93.4145 317.637C93.2056 318.016 93.1676 318.377 93.2625 318.719C93.3765 319.061 93.5664 319.384 93.8323 319.669C94.1171 319.953 94.5159 320.333 95.0477 320.77C95.7313 321.359 96.2631 321.872 96.6619 322.308C97.0417 322.745 97.2885 323.258 97.4025 323.847C97.5164 324.435 97.3835 325.1 97.0037 325.822C96.6998 326.391 96.2441 326.828 95.6743 327.094C95.1046 327.36 94.459 327.474 93.7373 327.398C93.0157 327.341 92.275 327.094 91.5154 326.695C90.7748 326.296 90.1671 325.784 89.7113 325.176C89.2555 324.549 88.9707 323.884 88.8567 323.163C88.7428 322.441 88.8377 321.758 89.1036 321.093L91.0027 322.099C90.7938 322.669 90.8318 323.22 91.1166 323.79C91.3825 324.359 91.8572 324.815 92.5409 325.176C93.1106 325.48 93.6234 325.613 94.0981 325.556C94.5729 325.518 94.9147 325.29 95.1236 324.891C95.2945 324.587 95.3135 324.283 95.2186 323.998C95.1236 323.714 94.9337 323.429 94.6678 323.163C94.402 322.897 94.0412 322.555 93.5474 322.156C92.8258 321.549 92.275 321.017 91.8762 320.561C91.4774 320.105 91.2116 319.536 91.0786 318.89C90.9457 318.244 91.0976 317.523 91.5344 316.725C91.8762 316.079 92.351 315.605 92.9397 315.301C93.5474 314.978 94.2121 314.845 94.9527 314.902C95.7123 314.959 96.4719 315.187 97.2506 315.605C98.0292 316.06 98.6369 316.592 99.1306 317.276Z" fill="white"/>
<path d="M89.0846 311.16L90.8318 312.224L84.5649 322.554L82.8177 321.491L89.0846 311.16Z" fill="white"/>
<path d="M71.2715 313.818L78.1081 303.867L80.292 305.367L79.2475 314.882L79.0576 316.078L84.4509 308.235L86.1221 309.393L79.2855 319.345L77.1016 317.844L78.1271 308.501L78.355 307.153L72.9616 314.996L71.2715 313.818Z" fill="white"/>
<path d="M62.0042 306.09C61.6624 305.368 61.5104 304.608 61.5484 303.811C61.5864 303.013 61.8143 302.235 62.2511 301.456L63.8463 302.766C63.5424 303.412 63.4665 304.096 63.6374 304.817C63.8083 305.539 64.1881 306.128 64.7578 306.602C65.3085 307.058 65.9162 307.305 66.5999 307.4C67.2836 307.476 67.9482 307.362 68.6319 307.058C69.2966 306.754 69.9043 306.261 70.436 305.615C70.9677 304.95 71.3286 304.267 71.4805 303.545C71.6514 302.823 71.6134 302.14 71.3855 301.475C71.1576 300.81 70.7588 300.241 70.1701 299.766C69.5434 299.253 68.8218 298.987 68.0432 298.987C67.2646 298.987 66.5429 299.234 65.9162 299.747L64.3021 298.436C64.9857 297.848 65.7453 297.43 66.5619 297.221C67.3975 297.012 68.2141 296.993 69.0497 297.183C69.8853 297.373 70.6449 297.753 71.3475 298.323C72.2211 299.044 72.8478 299.899 73.2086 300.886C73.5694 301.874 73.6454 302.899 73.4555 303.963C73.2656 305.026 72.7718 306.014 72.0312 306.944C71.2716 307.875 70.398 308.539 69.4105 308.938C68.423 309.337 67.3975 309.47 66.353 309.299C65.3085 309.147 64.34 308.691 63.4665 307.97C62.8398 307.438 62.346 306.811 62.0042 306.09Z" fill="white"/>
<path d="M52.3379 295.265L56.4589 299.177L58.6428 296.879L54.7877 293.214L56.0411 291.904L59.8961 295.569L62.2889 293.043L58.168 289.131L59.4214 287.821L65.0236 293.138L56.7057 301.893L51.1035 296.575L52.3379 295.265Z" fill="white"/>
<path d="M41.8552 286.188C41.6843 285.523 41.6843 284.897 41.8552 284.289C42.0262 283.681 42.368 283.15 42.8807 282.694C43.4694 282.181 44.0961 281.858 44.7418 281.725C45.3875 281.592 45.9952 281.592 46.5649 281.687C47.1346 281.801 47.8183 281.972 48.6159 282.238C49.1856 282.428 49.6414 282.561 49.9832 282.637C50.325 282.713 50.6479 282.751 50.9707 282.713C51.2935 282.694 51.5784 282.561 51.8063 282.352L48.1791 278.212L49.5464 277.016L54.7118 282.903L54.1421 283.396C53.4015 284.042 52.6609 284.46 51.9582 284.65C51.2556 284.84 50.5909 284.859 49.9832 284.764C49.3755 284.669 48.6728 284.479 47.8563 284.194C47.2486 284.004 46.7738 283.852 46.394 283.776C46.0332 283.7 45.6723 283.681 45.2925 283.738C44.9317 283.795 44.5709 283.966 44.248 284.251C43.8492 284.593 43.6593 285.011 43.6783 285.485C43.6783 285.96 43.8682 286.435 44.248 286.853C44.6468 287.309 45.1596 287.555 45.7673 287.593C46.375 287.631 47.0017 287.384 47.6474 286.891L48.9387 288.372C48.2551 288.923 47.5334 289.265 46.7928 289.416C46.0521 289.568 45.3495 289.511 44.6658 289.284C44.0012 289.037 43.4125 288.638 42.8997 288.049C42.368 287.46 42.0262 286.853 41.8552 286.188Z" fill="white"/>
<path d="M34.6388 276.712C34.6388 275.895 34.9047 275.059 35.4364 274.224C35.9681 273.388 36.7467 272.572 37.7722 271.774C38.7977 270.995 39.7852 270.445 40.7348 270.16C41.6843 269.875 42.5579 269.818 43.3555 270.046C44.1531 270.274 44.8177 270.73 45.3495 271.432C45.9002 272.154 46.1661 272.913 46.1851 273.73C46.1851 274.547 45.9192 275.382 45.3874 276.237C44.8557 277.091 44.0771 277.908 43.0516 278.687C42.0261 279.465 41.0386 280.016 40.0701 280.301C39.1206 280.586 38.247 280.624 37.4494 280.415C36.6518 280.206 35.9871 279.731 35.4364 279.009C34.9237 278.288 34.6388 277.528 34.6388 276.712ZM44.0391 274.585C44.3809 273.825 44.324 273.16 43.8872 272.572C43.4504 271.983 42.8047 271.774 41.9881 271.907C41.1715 272.04 40.184 272.534 39.0446 273.426C37.9052 274.3 37.1455 275.116 36.8037 275.876C36.4619 276.636 36.4999 277.3 36.9556 277.889C37.3924 278.478 38.0381 278.687 38.8547 278.554C39.6713 278.421 40.6588 277.908 41.8172 277.034C42.9567 276.161 43.6973 275.344 44.0391 274.585Z" fill="white"/>
<path d="M27.7832 266.779C27.8402 265.963 28.163 265.146 28.7517 264.348C29.3404 263.551 30.176 262.791 31.2585 262.07C32.341 261.367 33.3664 260.892 34.335 260.664C35.3035 260.436 36.177 260.455 36.9557 260.74C37.7343 261.025 38.361 261.519 38.8547 262.278C39.3485 263.038 39.5764 263.817 39.5194 264.633C39.4624 265.45 39.1396 266.266 38.5509 267.064C37.9622 267.862 37.1266 268.621 36.0441 269.343C34.9617 270.065 33.9362 270.52 32.9676 270.748C31.9991 270.976 31.1256 270.957 30.3469 270.672C29.5683 270.406 28.9416 269.894 28.4479 269.134C27.9541 268.374 27.7263 267.596 27.7832 266.779ZM37.2975 265.317C37.6963 264.576 37.6963 263.912 37.2785 263.304C36.8797 262.696 36.253 262.43 35.4364 262.506C34.6008 262.582 33.5943 263.019 32.3979 263.817C31.2015 264.614 30.3849 265.374 29.9861 266.115C29.5873 266.855 29.5873 267.52 29.9861 268.128C30.3849 268.735 31.0116 269.001 31.8282 268.925C32.6448 268.849 33.6703 268.412 34.8857 267.615C36.1011 266.817 36.8987 266.039 37.2975 265.317Z" fill="white"/>
<path d="M25.5233 255.65C26.4729 255.726 27.4414 255.631 28.4289 255.404C29.4164 255.176 30.4609 254.739 31.5623 254.112C31.9801 253.884 32.4739 253.561 33.0436 253.182L34.0691 254.967C33.5563 255.328 33.1006 255.612 32.7018 255.84C31.1066 256.752 29.5683 257.284 28.0491 257.436C26.5298 257.606 24.9916 257.455 23.4154 256.999L26.3969 262.221L24.8207 263.114L20.7567 255.992L22.3329 255.081C23.5293 255.385 24.5928 255.574 25.5233 255.65Z" fill="white"/>
<path d="M23.5293 240.382C23.4723 240.895 23.2824 241.37 22.9786 241.788C22.6747 242.205 22.2759 242.528 21.7822 242.737C21.3074 242.946 20.7947 243.022 20.2819 242.965C19.7692 242.908 19.2944 242.718 18.8766 242.414C18.4588 242.111 18.136 241.712 17.9271 241.218C17.7182 240.743 17.6422 240.23 17.6992 239.718C17.7562 239.205 17.9461 238.73 18.2499 238.312C18.5538 237.895 18.9526 237.572 19.4274 237.363C19.9211 237.154 20.4339 237.078 20.9466 237.135C21.4593 237.192 21.9341 237.382 22.3519 237.686C22.7697 237.99 23.0925 238.388 23.3014 238.863C23.5293 239.376 23.6053 239.87 23.5293 240.382Z" fill="white"/>
<path d="M6.70362 217.746C7.10242 216.758 7.88103 216.093 9.00147 215.771C10.1219 215.448 11.1284 215.6 12.002 216.226C12.8755 216.853 13.5212 217.879 13.92 219.303L14.5277 221.449L18.9145 220.195L19.4653 222.151L7.86204 225.475L6.68463 221.373C6.30482 219.949 6.30482 218.752 6.70362 217.746ZM12.1919 219.816C11.964 218.98 11.6032 218.391 11.1664 218.049C10.7106 217.689 10.1789 217.613 9.59018 217.784C8.98248 217.955 8.58368 218.315 8.39378 218.847C8.20387 219.379 8.22286 220.062 8.45075 220.898L9.05845 223.044L12.7996 221.981L12.1919 219.816Z" fill="white"/>
<path d="M4.74769 205.459L5.9251 211.023L9.03955 210.358L7.9381 205.155L9.70422 204.775L10.8057 209.979L14.205 209.257L13.0276 203.693L14.7937 203.313L16.3889 210.852L4.57677 213.359L2.98157 205.82L4.74769 205.459Z" fill="white"/>
<path d="M1.76618 198.185L1.48132 196.039L12.7807 189.525L13.0845 191.69L10.6538 193.077L11.3944 198.584L14.11 199.268L14.4139 201.451L1.76618 198.185ZM8.9636 194.064L4.21596 196.761L9.51433 198.09L8.9636 194.064Z" fill="white"/>
<path d="M12.6097 187.266L0.550726 187.969L0.436783 185.937L5.52625 185.652L0.132934 180.79L0 178.207L4.55773 182.271L12.021 176.935L12.1729 179.518L6.20991 183.734L8.14695 185.462L12.4958 185.215L12.6097 187.266Z" fill="white"/>
<path d="M9.55225 165.351C9.26739 165.787 8.88758 166.11 8.41281 166.357C7.93805 166.604 7.4443 166.699 6.91256 166.661C6.38083 166.623 5.90606 166.471 5.46928 166.186C5.0325 165.901 4.70966 165.522 4.46278 165.066C4.23489 164.61 4.12095 164.097 4.15893 163.566C4.19691 163.034 4.34884 162.559 4.63369 162.122C4.91855 161.685 5.29836 161.363 5.75414 161.116C6.20991 160.888 6.70366 160.774 7.2354 160.812C7.76714 160.85 8.26089 161.002 8.69767 161.287C9.13446 161.572 9.47629 161.951 9.70417 162.407C9.93206 162.863 10.046 163.357 10.008 163.888C10.008 164.439 9.83711 164.933 9.55225 165.351Z" fill="white"/>
<path d="M13.6922 148.07C13.1985 148.735 12.5718 149.247 11.8312 149.589C11.0905 149.931 10.2739 150.045 9.40036 149.912L9.76118 147.861C10.2739 147.918 10.7297 147.842 11.1855 147.633C11.6223 147.424 11.9831 147.12 12.2869 146.722C12.5908 146.323 12.7807 145.848 12.8566 145.335C12.9706 144.709 12.8946 144.139 12.6477 143.645C12.4009 143.151 12.04 142.867 11.5463 142.772C11.1285 142.696 10.7677 142.772 10.4638 142.981C10.179 143.189 9.9321 143.474 9.74219 143.835C9.55229 144.196 9.34339 144.69 9.07752 145.335C8.73569 146.171 8.41285 146.836 8.128 147.348C7.84314 147.861 7.42535 148.241 6.9126 148.545C6.38087 148.849 5.7162 148.925 4.91859 148.773C4.27291 148.659 3.72219 148.374 3.28541 147.918C2.84862 147.462 2.54477 146.874 2.37386 146.171C2.20294 145.468 2.20294 144.69 2.33588 143.835C2.4878 142.999 2.77266 142.278 3.20944 141.651C3.64623 141.024 4.19695 140.55 4.84263 140.208C5.48831 139.866 6.17197 139.733 6.87462 139.79L6.5138 141.898C5.92509 141.879 5.39336 142.088 4.93758 142.525C4.48181 142.962 4.19695 143.569 4.06402 144.31C3.95007 144.937 3.98806 145.487 4.19695 145.905C4.38686 146.342 4.7097 146.589 5.14648 146.665C5.48831 146.722 5.77317 146.665 6.02004 146.456C6.26692 146.266 6.47582 146 6.64673 145.677C6.81765 145.354 7.00755 144.88 7.25443 144.291C7.59626 143.417 7.93809 142.734 8.24194 142.202C8.54579 141.67 9.00156 141.233 9.57128 140.911C10.141 140.588 10.8816 140.493 11.7742 140.664C12.4958 140.778 13.0845 141.081 13.5783 141.556C14.072 142.031 14.4139 142.62 14.6038 143.341C14.7937 144.063 14.8127 144.861 14.6607 145.734C14.5088 146.627 14.186 147.405 13.6922 148.07Z" fill="white"/>
<path d="M16.3318 136.599L15.8761 138.574L4.10193 135.877L4.5577 133.902L16.3318 136.599Z" fill="white"/>
<path d="M8.22285 120.533L19.8261 123.895L19.0854 126.439L9.7231 128.452L8.5267 128.642L17.6801 131.301L17.0914 133.238L5.5072 129.877L6.24783 127.332L15.4393 125.357L16.7876 125.148L7.63414 122.489L8.22285 120.533Z" fill="white"/>
<path d="M12.6477 109.291C13.2174 108.74 13.8821 108.36 14.6607 108.132C15.4393 107.923 16.2559 107.885 17.1105 108.056L16.3699 109.993C15.6482 109.898 14.9836 110.05 14.3569 110.449C13.7302 110.848 13.2934 111.38 13.0275 112.082C12.7807 112.747 12.7237 113.412 12.8566 114.076C12.9896 114.741 13.3124 115.349 13.8251 115.899C14.3189 116.431 14.9646 116.849 15.7622 117.153C16.5598 117.457 17.3194 117.571 18.06 117.495C18.8007 117.419 19.4463 117.172 19.9971 116.754C20.5478 116.336 20.9656 115.767 21.2315 115.064C21.5163 114.304 21.5543 113.545 21.3074 112.804C21.0605 112.063 20.6048 111.456 19.9211 111.019L20.6617 109.082C21.4403 109.538 22.067 110.126 22.5228 110.848C22.9786 111.57 23.2634 112.348 23.3394 113.203C23.4154 114.057 23.3014 114.893 22.9786 115.748C22.5798 116.811 21.9531 117.666 21.1365 118.33C20.3009 118.976 19.3704 119.375 18.2879 119.527C17.2244 119.66 16.123 119.527 15.0026 119.109C13.8821 118.691 12.9896 118.064 12.2869 117.248C11.5843 116.431 11.1475 115.501 10.9766 114.475C10.8056 113.431 10.9196 112.386 11.3374 111.323C11.6412 110.506 12.078 109.841 12.6477 109.291Z" fill="white"/>
<path d="M19.9401 96.662L17.5093 101.808L20.3769 103.176L22.6558 98.3711L24.2889 99.1497L22.0101 103.954L25.1435 105.436L27.5743 100.289L29.2075 101.068L25.9031 108.037L15.0026 102.872L18.3069 95.9023L19.9401 96.662Z" fill="white"/>
<path d="M25.2384 83.9575C25.8082 83.5777 26.4159 83.3878 27.0425 83.3688C27.6882 83.3498 28.2959 83.5017 28.8656 83.8435C29.5493 84.2423 30.043 84.7361 30.3659 85.3058C30.6887 85.8755 30.8976 86.4452 30.9736 87.0339C31.0495 87.6227 31.0875 88.3253 31.0875 89.1609C31.0875 89.7496 31.1065 90.2244 31.1255 90.5852C31.1635 90.927 31.2395 91.2498 31.3534 91.5537C31.4863 91.8385 31.6762 92.0664 31.9611 92.2374L34.7527 87.4897L36.3099 88.4013L32.3409 95.1429L31.6952 94.7631C30.8407 94.2693 30.214 93.6996 29.8342 93.0729C29.4353 92.4462 29.2075 91.8385 29.1125 91.2498C29.0176 90.6611 28.9796 89.9205 28.9986 89.0469C28.9986 88.4202 28.9796 87.9075 28.9416 87.5467C28.9036 87.1669 28.8087 86.825 28.6377 86.4832C28.4668 86.1414 28.201 85.8755 27.8401 85.6476C27.4034 85.3818 26.9476 85.3248 26.4918 85.4957C26.036 85.6476 25.6562 85.9705 25.3714 86.4642C25.0675 86.996 24.9726 87.5467 25.1435 88.1354C25.2954 88.7241 25.7132 89.2368 26.3969 89.6926L25.3904 91.3828C24.6497 90.889 24.099 90.3193 23.7192 89.6736C23.3394 89.009 23.1685 88.3253 23.1875 87.6226C23.2064 86.901 23.4153 86.2173 23.8141 85.5527C24.194 84.831 24.6687 84.3183 25.2384 83.9575Z" fill="white"/>
<path d="M31.9801 74.1578C32.7587 73.9109 33.6322 73.892 34.6007 74.1388C35.5693 74.3857 36.5758 74.8605 37.6582 75.6011C38.7217 76.3227 39.5383 77.1014 40.127 77.9179C40.7157 78.7345 41.0196 79.5511 41.0575 80.3677C41.0955 81.1843 40.8676 81.9629 40.3549 82.7036C39.8421 83.4442 39.1965 83.9569 38.4178 84.2038C37.6392 84.4697 36.7657 84.4697 35.7972 84.2228C34.8286 83.9759 33.8031 83.5012 32.7397 82.7605C31.6762 82.0389 30.8596 81.2603 30.2709 80.4437C29.7012 79.6271 29.3783 78.8105 29.3404 77.9939C29.3024 77.1773 29.5303 76.3987 30.043 75.6391C30.5558 74.8795 31.2014 74.4237 31.9801 74.1578ZM36.9366 82.4187C37.7722 82.5137 38.3799 82.2478 38.7977 81.6401C39.2155 81.0324 39.2155 80.3677 38.8356 79.6271C38.4558 78.8865 37.6582 78.1079 36.4808 77.3102C35.2844 76.4937 34.2779 76.0379 33.4423 75.9619C32.6067 75.867 31.999 76.1328 31.5813 76.7215C31.1635 77.3103 31.1445 77.9939 31.5433 78.7345C31.9231 79.4752 32.7207 80.2538 33.9171 81.0704C35.0945 81.868 36.101 82.3238 36.9366 82.4187Z" fill="white"/>
<path d="M39.2915 64.492C40.0891 64.2831 40.9626 64.34 41.9122 64.6439C42.8617 64.9667 43.8492 65.5174 44.8557 66.315C45.8622 67.1126 46.6408 67.9482 47.1536 68.7838C47.6663 69.6384 47.9322 70.474 47.9132 71.2906C47.8942 72.1072 47.6093 72.8668 47.0586 73.5694C46.5079 74.2721 45.8242 74.7279 45.0266 74.9368C44.229 75.1456 43.3554 75.0887 42.4059 74.7848C41.4564 74.481 40.4689 73.9303 39.4624 73.1137C38.4559 72.2971 37.6773 71.4805 37.1645 70.6259C36.6518 69.7713 36.4049 68.9357 36.4049 68.1191C36.4239 67.3026 36.7088 66.5429 37.2785 65.8213C37.8292 65.1566 38.4939 64.7008 39.2915 64.492ZM43.6593 73.0757C44.4759 73.2276 45.1216 72.9997 45.5584 72.43C46.0141 71.8603 46.0711 71.1956 45.7483 70.436C45.4254 69.6764 44.6848 68.8408 43.5643 67.9482C42.4249 67.0557 41.4564 66.5239 40.6398 66.391C39.8232 66.2391 39.1775 66.448 38.7218 67.0367C38.266 67.6064 38.209 68.2711 38.5319 69.0307C38.8547 69.7903 39.5953 70.6259 40.7348 71.5185C41.8742 72.392 42.8427 72.9238 43.6593 73.0757Z" fill="white"/>
<path d="M49.1665 58.852C49.3944 59.7636 49.7742 60.6562 50.3059 61.5297C50.8377 62.4033 51.5783 63.2579 52.5278 64.0934C52.8886 64.4163 53.3444 64.7961 53.8761 65.1949L52.4898 66.7331C51.9961 66.3533 51.5783 66.0115 51.2175 65.7076C49.8691 64.4922 48.8626 63.1819 48.2359 61.7956C47.6093 60.4093 47.2674 58.909 47.1915 57.2758L43.1655 61.7386L41.8171 60.5232L47.3054 54.4272L48.6537 55.6426C48.7867 56.877 48.9386 57.9405 49.1665 58.852Z" fill="white"/>
<path d="M62.9917 52.2053C62.4789 52.3002 61.9852 52.2813 61.4914 52.1103C60.9977 51.9584 60.5609 51.6736 60.2001 51.2748C59.8393 50.876 59.6304 50.4392 59.5164 49.9264C59.4215 49.4137 59.4404 48.9199 59.5924 48.4262C59.7443 47.9324 60.0292 47.4956 60.428 47.1538C60.8268 46.812 61.2635 46.5841 61.7763 46.4701C62.289 46.3752 62.7828 46.3942 63.2765 46.5461C63.7703 46.698 64.1881 46.9829 64.5489 47.3627C64.9097 47.7615 65.1376 48.2173 65.2516 48.73C65.3465 49.2428 65.3275 49.7555 65.1756 50.2303C65.0237 50.724 64.7388 51.1418 64.359 51.5026C63.9602 51.8635 63.5044 52.0914 62.9917 52.2053Z" fill="white"/>
</svg>
